<?xml version="1.0" standalone="no"?>
<!DOCTYPE svg PUBLIC "-//W3C//DTD SVG 20010904//EN"
 "http://www.w3.org/TR/2001/REC-SVG-20010904/DTD/svg10.dtd">
<svg version="1.0" xmlns="http://www.w3.org/2000/svg"
 width="510.000000pt" height="510.000000pt" viewBox="0 0 510.000000 510.000000"
 preserveAspectRatio="xMidYMid meet">
<metadata>
Created by potrace 1.11, written by Peter Selinger 2001-2013
</metadata>
<g transform="translate(0.000000,510.000000) scale(0.100000,-0.100000)"
fill="#000000" stroke="none">
<path d="M2240 4698 c-357 -437 -508 -635 -675 -888 -202 -305 -326 -521 -489
-847 -143 -286 -202 -436 -257 -658 -127 -511 -99 -923 88 -1325 111 -239 334
-501 548 -642 128 -85 340 -190 469 -233 337 -112 732 -117 1159 -14 71 17
127 32 125 34 -2 1 -64 -1 -138 -5 -188 -10 -428 5 -580 36 -313 63 -548 183
-750 384 -307 306 -470 690 -470 1108 0 665 461 1232 1120 1377 103 23 342 31
449 15 172 -25 363 -103 507 -206 214 -152 382 -395 451 -649 24 -91 27 -117
27 -285 1 -209 -8 -255 -74 -396 -105 -226 -303 -390 -595 -494 -144 -51 -240
-70 -380 -77 -265 -12 -671 53 -912 147 -40 15 -73 25 -73 21 0 -3 18 -37 40
-75 152 -260 439 -481 760 -585 174 -56 246 -66 460 -66 178 1 204 3 303 28
258 65 465 184 648 374 169 176 277 386 335 653 29 132 27 469 -5 645 -56 317
-120 508 -279 835 -209 430 -472 861 -762 1250 -116 155 -724 903 -738 907 -4
2 -144 -165 -312 -369z"/>
<path d="M2539 2641 c-219 -41 -412 -139 -563 -288 -175 -172 -276 -380 -306
-628 -11 -88 -8 -219 6 -266 6 -22 128 -81 245 -119 202 -65 448 -101 694
-101 164 -1 235 9 350 46 285 93 453 247 496 454 15 71 6 255 -16 336 -68 253
-273 460 -540 545 -77 25 -281 36 -366 21z"/>
</g>
</svg>
