  0
SECTION
  2
HEADER
  9
$ACADVER
  1
AC1024
  9
$ACADMAINTVER
 70
6
  9
$DWGCODEPAGE
  3
ANSI_1252
  9
$LASTSAVEDBY
  1
ezdxf
  9
$INSBASE
 10
0.0
 20
0.0
 30
0.0
  9
$EXTMIN
 10
1e+20
 20
1e+20
 30
1e+20
  9
$EXTMAX
 10
-1e+20
 20
-1e+20
 30
-1e+20
  9
$LIMMIN
 10
0.0
 20
0.0
  9
$LIMMAX
 10
420.0
 20
297.0
  9
$ORTHOMODE
 70
0
  9
$REGENMODE
 70
1
  9
$FILLMODE
 70
1
  9
$QTEXTMODE
 70
0
  9
$MIRRTEXT
 70
1
  9
$LTSCALE
 40
1.0
  9
$ATTMODE
 70
1
  9
$TEXTSIZE
 40
2.5
  9
$TRACEWID
 40
1.0
  9
$TEXTSTYLE
  7
Standard
  9
$CLAYER
  8
0
  9
$CELTYPE
  6
ByLayer
  9
$CECOLOR
 62
256
  9
$CELTSCALE
 40
1.0
  9
$DISPSILH
 70
0
  9
$DIMSCALE
 40
1.0
  9
$DIMASZ
 40
2.5
  9
$DIMEXO
 40
0.625
  9
$DIMDLI
 40
3.75
  9
$DIMRND
 40
0.0
  9
$DIMDLE
 40
0.0
  9
$DIMEXE
 40
1.25
  9
$DIMTP
 40
0.0
  9
$DIMTM
 40
0.0
  9
$DIMTXT
 40
2.5
  9
$DIMCEN
 40
2.5
  9
$DIMTSZ
 40
0.0
  9
$DIMTOL
 70
0
  9
$DIMLIM
 70
0
  9
$DIMTIH
 70
0
  9
$DIMTOH
 70
0
  9
$DIMSE1
 70
0
  9
$DIMSE2
 70
0
  9
$DIMTAD
 70
1
  9
$DIMZIN
 70
8
  9
$DIMBLK
  1

  9
$DIMASO
 70
1
  9
$DIMSHO
 70
1
  9
$DIMPOST
  1

  9
$DIMAPOST
  1

  9
$DIMALT
 70
0
  9
$DIMALTD
 70
3
  9
$DIMALTF
 40
0.03937007874
  9
$DIMLFAC
 40
1.0
  9
$DIMTOFL
 70
1
  9
$DIMTVP
 40
0.0
  9
$DIMTIX
 70
0
  9
$DIMSOXD
 70
0
  9
$DIMSAH
 70
0
  9
$DIMBLK1
  1

  9
$DIMBLK2
  1

  9
$DIMSTYLE
  2
ISO-25
  9
$DIMCLRD
 70
0
  9
$DIMCLRE
 70
0
  9
$DIMCLRT
 70
0
  9
$DIMTFAC
 40
1.0
  9
$DIMGAP
 40
0.625
  9
$DIMJUST
 70
0
  9
$DIMSD1
 70
0
  9
$DIMSD2
 70
0
  9
$DIMTOLJ
 70
0
  9
$DIMTZIN
 70
8
  9
$DIMALTZ
 70
0
  9
$DIMALTTZ
 70
0
  9
$DIMUPT
 70
0
  9
$DIMDEC
 70
2
  9
$DIMTDEC
 70
2
  9
$DIMALTU
 70
2
  9
$DIMALTTD
 70
3
  9
$DIMTXSTY
  7
Standard
  9
$DIMAUNIT
 70
0
  9
$DIMADEC
 70
0
  9
$DIMALTRND
 40
0.0
  9
$DIMAZIN
 70
0
  9
$DIMDSEP
 70
44
  9
$DIMATFIT
 70
3
  9
$DIMFRAC
 70
0
  9
$DIMLDRBLK
  1

  9
$DIMLUNIT
 70
2
  9
$DIMLWD
 70
-2
  9
$DIMLWE
 70
-2
  9
$DIMTMOVE
 70
0
  9
$DIMFXL
 40
1.0
  9
$DIMFXLON
 70
0
  9
$DIMJOGANG
 40
0.785398163397
  9
$DIMTFILL
 70
0
  9
$DIMTFILLCLR
 70
0
  9
$DIMARCSYM
 70
0
  9
$DIMLTYPE
  6

  9
$DIMLTEX1
  6

  9
$DIMLTEX2
  6

  9
$DIMTXTDIRECTION
 70
0
  9
$LUNITS
 70
2
  9
$LUPREC
 70
4
  9
$SKETCHINC
 40
1.0
  9
$FILLETRAD
 40
10.0
  9
$AUNITS
 70
0
  9
$AUPREC
 70
2
  9
$MENU
  1
.
  9
$ELEVATION
 40
0.0
  9
$PELEVATION
 40
0.0
  9
$THICKNESS
 40
0.0
  9
$LIMCHECK
 70
0
  9
$CHAMFERA
 40
0.0
  9
$CHAMFERB
 40
0.0
  9
$CHAMFERC
 40
0.0
  9
$CHAMFERD
 40
0.0
  9
$SKPOLY
 70
0
  9
$TDCREATE
 40
2460207.0527083334
  9
$TDUCREATE
 40
2458532.153996898
  9
$TDUPDATE
 40
2460207.0527083334
  9
$TDUUPDATE
 40
2458532.1544311
  9
$TDINDWG
 40
0.0
  9
$TDUSRTIMER
 40
0.0
  9
$USRTIMER
 70
1
  9
$ANGBASE
 50
0.0
  9
$ANGDIR
 70
0
  9
$PDMODE
 70
0
  9
$PDSIZE
 40
0.0
  9
$PLINEWID
 40
0.0
  9
$SPLFRAME
 70
0
  9
$SPLINETYPE
 70
6
  9
$SPLINESEGS
 70
8
  9
$HANDSEED
  5
450
  9
$SURFTAB1
 70
6
  9
$SURFTAB2
 70
6
  9
$SURFTYPE
 70
6
  9
$SURFU
 70
6
  9
$SURFV
 70
6
  9
$UCSBASE
  2

  9
$UCSNAME
  2

  9
$UCSORG
 10
0.0
 20
0.0
 30
0.0
  9
$UCSXDIR
 10
1.0
 20
0.0
 30
0.0
  9
$UCSYDIR
 10
0.0
 20
1.0
 30
0.0
  9
$UCSORTHOREF
  2

  9
$UCSORTHOVIEW
 70
0
  9
$UCSORGTOP
 10
0.0
 20
0.0
 30
0.0
  9
$UCSORGBOTTOM
 10
0.0
 20
0.0
 30
0.0
  9
$UCSORGLEFT
 10
0.0
 20
0.0
 30
0.0
  9
$UCSORGRIGHT
 10
0.0
 20
0.0
 30
0.0
  9
$UCSORGFRONT
 10
0.0
 20
0.0
 30
0.0
  9
$UCSORGBACK
 10
0.0
 20
0.0
 30
0.0
  9
$PUCSBASE
  2

  9
$PUCSNAME
  2

  9
$PUCSORG
 10
0.0
 20
0.0
 30
0.0
  9
$PUCSXDIR
 10
1.0
 20
0.0
 30
0.0
  9
$PUCSYDIR
 10
0.0
 20
1.0
 30
0.0
  9
$PUCSORTHOREF
  2

  9
$PUCSORTHOVIEW
 70
0
  9
$PUCSORGTOP
 10
0.0
 20
0.0
 30
0.0
  9
$PUCSORGBOTTOM
 10
0.0
 20
0.0
 30
0.0
  9
$PUCSORGLEFT
 10
0.0
 20
0.0
 30
0.0
  9
$PUCSORGRIGHT
 10
0.0
 20
0.0
 30
0.0
  9
$PUCSORGFRONT
 10
0.0
 20
0.0
 30
0.0
  9
$PUCSORGBACK
 10
0.0
 20
0.0
 30
0.0
  9
$USERI1
 70
0
  9
$USERI2
 70
0
  9
$USERI3
 70
0
  9
$USERI4
 70
0
  9
$USERI5
 70
0
  9
$USERR1
 40
0.0
  9
$USERR2
 40
0.0
  9
$USERR3
 40
0.0
  9
$USERR4
 40
0.0
  9
$USERR5
 40
0.0
  9
$WORLDVIEW
 70
1
  9
$SHADEDGE
 70
3
  9
$SHADEDIF
 70
70
  9
$TILEMODE
 70
1
  9
$MAXACTVP
 70
64
  9
$PINSBASE
 10
0.0
 20
0.0
 30
0.0
  9
$PLIMCHECK
 70
0
  9
$PEXTMIN
 10
1e+20
 20
1e+20
 30
1e+20
  9
$PEXTMAX
 10
-1e+20
 20
-1e+20
 30
-1e+20
  9
$PLIMMIN
 10
0.0
 20
0.0
  9
$PLIMMAX
 10
420.0
 20
297.0
  9
$UNITMODE
 70
0
  9
$VISRETAIN
 70
1
  9
$PLINEGEN
 70
0
  9
$PSLTSCALE
 70
1
  9
$TREEDEPTH
 70
3020
  9
$CMLSTYLE
  2
Standard
  9
$CMLJUST
 70
0
  9
$CMLSCALE
 40
20.0
  9
$PROXYGRAPHICS
 70
1
  9
$MEASUREMENT
 70
1
  9
$CELWEIGHT
370
-1
  9
$ENDCAPS
280
0
  9
$JOINSTYLE
280
0
  9
$LWDISPLAY
290
0
  9
$INSUNITS
 70
6
  9
$HYPERLINKBASE
  1

  9
$STYLESHEET
  1

  9
$XEDIT
290
1
  9
$CEPSNTYPE
380
0
  9
$PSTYLEMODE
290
1
  9
$FINGERPRINTGUID
  2
{4BC80191-D1F8-4597-99F7-1F88DCE331EC}
  9
$VERSIONGUID
  2
{9D0B6C63-C62E-4277-89CD-1139FAC237B2}
  9
$EXTNAMES
290
1
  9
$PSVPSCALE
 40
0.0
  9
$OLESTARTUP
290
0
  9
$SORTENTS
280
127
  9
$INDEXCTL
280
0
  9
$HIDETEXT
280
1
  9
$XCLIPFRAME
280
0
  9
$HALOGAP
280
0
  9
$OBSCOLOR
 70
257
  9
$OBSLTYPE
280
0
  9
$INTERSECTIONDISPLAY
280
0
  9
$INTERSECTIONCOLOR
 70
257
  9
$DIMASSOC
280
2
  9
$PROJECTNAME
  1

  9
$CAMERADISPLAY
290
0
  9
$LENSLENGTH
 40
50.0
  9
$CAMERAHEIGHT
 40
0.0
  9
$STEPSPERSEC
 40
24.0
  9
$STEPSIZE
 40
100.0
  9
$3DDWFPREC
 40
2.0
  9
$PSOLWIDTH
 40
0.005
  9
$PSOLHEIGHT
 40
0.08
  9
$LOFTANG1
 40
1.570796326795
  9
$LOFTANG2
 40
1.570796326795
  9
$LOFTMAG1
 40
0.0
  9
$LOFTMAG2
 40
0.0
  9
$LOFTPARAM
 70
7
  9
$LOFTNORMALS
280
1
  9
$LATITUDE
 40
37.795
  9
$LONGITUDE
 40
-122.394
  9
$NORTHDIRECTION
 40
0.0
  9
$TIMEZONE
 70
-8000
  9
$LIGHTGLYPHDISPLAY
280
1
  9
$TILEMODELIGHTSYNCH
280
1
  9
$CMATERIAL
347
20
  9
$SOLIDHIST
280
0
  9
$SHOWHIST
280
1
  9
$DWFFRAME
280
2
  9
$DGNFRAME
280
2
  9
$REALWORLDSCALE
290
1
  9
$INTERFERECOLOR
 62
256
  9
$CSHADOW
280
0
  9
$SHADOWPLANELOCATION
 40
0.0
  0
ENDSEC
  0
SECTION
  2
CLASSES
  0
CLASS
  1
ACDBDICTIONARYWDFLT
  2
AcDbDictionaryWithDefault
  3
ObjectDBX Classes
 90
0
 91
0
280
0
281
0
  0
CLASS
  1
SUN
  2
AcDbSun
  3
SCENEOE
 90
1153
 91
0
280
0
281
0
  0
CLASS
  1
VISUALSTYLE
  2
AcDbVisualStyle
  3
ObjectDBX Classes
 90
4095
 91
0
280
0
281
0
  0
CLASS
  1
MATERIAL
  2
AcDbMaterial
  3
ObjectDBX Classes
 90
1153
 91
0
280
0
281
0
  0
CLASS
  1
SCALE
  2
AcDbScale
  3
ObjectDBX Classes
 90
1153
 91
0
280
0
281
0
  0
CLASS
  1
TABLESTYLE
  2
AcDbTableStyle
  3
ObjectDBX Classes
 90
4095
 91
0
280
0
281
0
  0
CLASS
  1
MLEADERSTYLE
  2
AcDbMLeaderStyle
  3
ACDB_MLEADERSTYLE_CLASS
 90
4095
 91
0
280
0
281
0
  0
CLASS
  1
DICTIONARYVAR
  2
AcDbDictionaryVar
  3
ObjectDBX Classes
 90
0
 91
0
280
0
281
0
  0
CLASS
  1
CELLSTYLEMAP
  2
AcDbCellStyleMap
  3
ObjectDBX Classes
 90
1152
 91
0
280
0
281
0
  0
CLASS
  1
MENTALRAYRENDERSETTINGS
  2
AcDbMentalRayRenderSettings
  3
SCENEOE
 90
1024
 91
0
280
0
281
0
  0
CLASS
  1
ACDBDETAILVIEWSTYLE
  2
AcDbDetailViewStyle
  3
ObjectDBX Classes
 90
1025
 91
0
280
0
281
0
  0
CLASS
  1
ACDBSECTIONVIEWSTYLE
  2
AcDbSectionViewStyle
  3
ObjectDBX Classes
 90
1025
 91
0
280
0
281
0
  0
CLASS
  1
RASTERVARIABLES
  2
AcDbRasterVariables
  3
ISM
 90
0
 91
0
280
0
281
0
  0
CLASS
  1
ACDBPLACEHOLDER
  2
AcDbPlaceHolder
  3
ObjectDBX Classes
 90
0
 91
0
280
0
281
0
  0
CLASS
  1
LAYOUT
  2
AcDbLayout
  3
ObjectDBX Classes
 90
0
 91
0
280
0
281
0
  0
ENDSEC
  0
SECTION
  2
TABLES
  0
TABLE
  2
VPORT
  5
8
330
0
100
AcDbSymbolTable
 70
1
  0
VPORT
  5
23
330
8
100
AcDbSymbolTableRecord
100
AcDbViewportTableRecord
  2
*Active
 70
0
 10
0.0
 20
0.0
 11
1.0
 21
1.0
 12
0.0
 22
0.0
 13
0.0
 23
0.0
 14
0.5
 24
0.5
 15
0.5
 25
0.5
 16
0.0
 26
0.0
 36
1.0
 17
0.0
 27
0.0
 37
0.0
 40
1000.0
 41
1.34
 42
50.0
 43
0.0
 44
0.0
 50
0.0
 51
0.0
 71
0
 72
1000
 73
1
 74
3
 75
0
 76
0
 77
0
 78
0
281
0
 65
0
146
0.0
  0
ENDTAB
  0
TABLE
  2
LTYPE
  5
2
330
0
100
AcDbSymbolTable
 70
3
  0
LTYPE
  5
24
330
2
100
AcDbSymbolTableRecord
100
AcDbLinetypeTableRecord
  2
ByBlock
 70
0
  3

 72
65
 73
0
 40
0.0
  0
LTYPE
  5
25
330
2
100
AcDbSymbolTableRecord
100
AcDbLinetypeTableRecord
  2
ByLayer
 70
0
  3

 72
65
 73
0
 40
0.0
  0
LTYPE
  5
26
330
2
100
AcDbSymbolTableRecord
100
AcDbLinetypeTableRecord
  2
Continuous
 70
0
  3

 72
65
 73
0
 40
0.0
  0
ENDTAB
  0
TABLE
  2
LAYER
  5
1
330
0
100
AcDbSymbolTable
 70
2
  0
LAYER
  5
27
330
1
100
AcDbSymbolTableRecord
100
AcDbLayerTableRecord
  2
0
 70
0
 62
7
  6
Continuous
370
-3
390
13
347
21
  0
LAYER
  5
28
330
1
100
AcDbSymbolTableRecord
100
AcDbLayerTableRecord
  2
Defpoints
 70
0
 62
7
  6
Continuous
290
0
370
-3
390
13
347
21
  0
ENDTAB
  0
TABLE
  2
STYLE
  5
5
330
0
100
AcDbSymbolTable
 70
1
  0
STYLE
  5
29
330
5
100
AcDbSymbolTableRecord
100
AcDbTextStyleTableRecord
  2
Standard
 70
0
 40
0.0
 41
1.0
 50
0.0
 71
0
 42
2.5
  3
txt
  4

  0
ENDTAB
  0
TABLE
  2
VIEW
  5
7
330
0
100
AcDbSymbolTable
 70
0
  0
ENDTAB
  0
TABLE
  2
UCS
  5
6
330
0
100
AcDbSymbolTable
 70
0
  0
ENDTAB
  0
TABLE
  2
APPID
  5
3
330
0
100
AcDbSymbolTable
 70
3
  0
APPID
  5
2A
330
3
100
AcDbSymbolTableRecord
100
AcDbRegAppTableRecord
  2
ACAD
 70
0
  0
APPID
  5
44D
330
3
100
AcDbSymbolTableRecord
100
AcDbRegAppTableRecord
  2
HATCHBACKGROUNDCOLOR
 70
0
  0
APPID
  5
44E
330
3
100
AcDbSymbolTableRecord
100
AcDbRegAppTableRecord
  2
EZDXF
 70
0
  0
ENDTAB
  0
TABLE
  2
DIMSTYLE
  5
4
330
0
100
AcDbSymbolTable
 70
1
100
AcDbDimStyleTable
  0
DIMSTYLE
105
2B
330
4
100
AcDbSymbolTableRecord
100
AcDbDimStyleTableRecord
  2
Standard
 70
0
 40
1.0
 41
2.5
 42
0.625
 43
3.75
 44
1.25
 45
0.0
 46
0.0
 47
0.0
 48
0.0
 49
2.5
140
2.5
141
2.5
142
0.0
143
0.03937007874
144
1.0
145
0.0
146
1.0
147
0.625
148
0.0
 69
0
 70
0
 71
0
 72
0
 73
0
 74
0
 75
0
 76
0
 77
1
 78
8
 79
3
170
0
171
3
172
1
173
0
174
0
175
0
176
0
177
0
178
0
179
2
271
2
272
2
273
2
274
3
275
0
276
0
277
2
278
44
279
0
280
0
281
0
282
0
283
0
284
8
285
0
286
0
288
0
289
3
290
0
371
-2
372
-2
  0
ENDTAB
  0
TABLE
  2
BLOCK_RECORD
  5
9
330
0
100
AcDbSymbolTable
 70
2
  0
BLOCK_RECORD
  5
17
330
9
100
AcDbSymbolTableRecord
100
AcDbBlockTableRecord
  2
*Model_Space
340
1A
 70
0
280
1
281
0
  0
BLOCK_RECORD
  5
1B
330
9
100
AcDbSymbolTableRecord
100
AcDbBlockTableRecord
  2
*Paper_Space
340
1E
 70
0
280
1
281
0
  0
ENDTAB
  0
ENDSEC
  0
SECTION
  2
BLOCKS
  0
BLOCK
  5
18
330
17
100
AcDbEntity
  8
0
100
AcDbBlockBegin
  2
*Model_Space
 70
0
 10
0.0
 20
0.0
 30
0.0
  3
*Model_Space
  1

  0
ENDBLK
  5
19
330
17
100
AcDbEntity
  8
0
100
AcDbBlockEnd
  0
BLOCK
  5
1C
330
1B
100
AcDbEntity
  8
0
100
AcDbBlockBegin
  2
*Paper_Space
 70
0
 10
0.0
 20
0.0
 30
0.0
  3
*Paper_Space
  1

  0
ENDBLK
  5
1D
330
1B
100
AcDbEntity
  8
0
100
AcDbBlockEnd
  0
ENDSEC
  0
SECTION
  2
ENTITIES
  0
HATCH
  5
2F
330
17
100
AcDbEntity
  8
0
 62
0
100
AcDbHatch
 10
0.0
 20
0.0
 30
0.0
210
0.0
220
0.0
230
1.0
  2
SOLID
 70
1
 71
0
 91
100
 92
1
 93
1
 72
2
 10
10160.0
 20
-5080.0
 40
750
 50
0
 51
360
 73
1
 97
0
 92
1
 93
1
 72
2
 10
15240.0
 20
-5080.0
 40
750
 50
0
 51
360
 73
1
 97
0
 92
1
 93
1
 72
2
 10
17780.0
 20
-5080.0
 40
750
 50
0
 51
360
 73
1
 97
0
 92
1
 93
1
 72
2
 10
20320.0
 20
-5080.0
 40
750
 50
0
 51
360
 73
1
 97
0
 92
1
 93
1
 72
2
 10
22860.0
 20
-5080.0
 40
750
 50
0
 51
360
 73
1
 97
0
 92
1
 93
1
 72
2
 10
25400.0
 20
-5080.0
 40
750
 50
0
 51
360
 73
1
 97
0
 92
1
 93
1
 72
2
 10
27940.0
 20
-5080.0
 40
750
 50
0
 51
360
 73
1
 97
0
 92
1
 93
1
 72
2
 10
30480.0
 20
-5080.0
 40
750
 50
0
 51
360
 73
1
 97
0
 92
1
 93
1
 72
2
 10
35560.0
 20
-5080.0
 40
750
 50
0
 51
360
 73
1
 97
0
 92
1
 93
1
 72
2
 10
38100.0
 20
-5080.0
 40
750
 50
0
 51
360
 73
1
 97
0
 92
1
 93
1
 72
2
 10
43180.0
 20
-5080.0
 40
750
 50
0
 51
360
 73
1
 97
0
 92
1
 93
1
 72
2
 10
45720.0
 20
-5080.0
 40
750
 50
0
 51
360
 73
1
 97
0
 92
1
 93
1
 72
2
 10
48260.0
 20
-5080.0
 40
750
 50
0
 51
360
 73
1
 97
0
 92
1
 93
1
 72
2
 10
7620.0
 20
-7620.0
 40
750
 50
0
 51
360
 73
1
 97
0
 92
1
 93
1
 72
2
 10
10160.0
 20
-7620.0
 40
750
 50
0
 51
360
 73
1
 97
0
 92
1
 93
1
 72
2
 10
12700.0
 20
-7620.0
 40
750
 50
0
 51
360
 73
1
 97
0
 92
1
 93
1
 72
2
 10
15240.0
 20
-7620.0
 40
750
 50
0
 51
360
 73
1
 97
0
 92
1
 93
1
 72
2
 10
17780.0
 20
-7620.0
 40
750
 50
0
 51
360
 73
1
 97
0
 92
1
 93
1
 72
2
 10
22860.0
 20
-7620.0
 40
750
 50
0
 51
360
 73
1
 97
0
 92
1
 93
1
 72
2
 10
25400.0
 20
-7620.0
 40
750
 50
0
 51
360
 73
1
 97
0
 92
1
 93
1
 72
2
 10
27940.0
 20
-7620.0
 40
750
 50
0
 51
360
 73
1
 97
0
 92
1
 93
1
 72
2
 10
30480.0
 20
-7620.0
 40
750
 50
0
 51
360
 73
1
 97
0
 92
1
 93
1
 72
2
 10
33020.0
 20
-7620.0
 40
750
 50
0
 51
360
 73
1
 97
0
 92
1
 93
1
 72
2
 10
35560.0
 20
-7620.0
 40
750
 50
0
 51
360
 73
1
 97
0
 92
1
 93
1
 72
2
 10
38100.0
 20
-7620.0
 40
750
 50
0
 51
360
 73
1
 97
0
 92
1
 93
1
 72
2
 10
43180.0
 20
-7620.0
 40
750
 50
0
 51
360
 73
1
 97
0
 92
1
 93
1
 72
2
 10
45720.0
 20
-7620.0
 40
750
 50
0
 51
360
 73
1
 97
0
 92
1
 93
1
 72
2
 10
48260.0
 20
-7620.0
 40
750
 50
0
 51
360
 73
1
 97
0
 92
1
 93
1
 72
2
 10
50800.0
 20
-7620.0
 40
750
 50
0
 51
360
 73
1
 97
0
 92
1
 93
1
 72
2
 10
12700.0
 20
-56896.0
 40
750
 50
0
 51
360
 73
1
 97
0
 92
1
 93
1
 72
2
 10
15240.0
 20
-56896.0
 40
750
 50
0
 51
360
 73
1
 97
0
 92
1
 93
1
 72
2
 10
20320.0
 20
-56896.0
 40
750
 50
0
 51
360
 73
1
 97
0
 92
1
 93
1
 72
2
 10
22860.0
 20
-56896.0
 40
750
 50
0
 51
360
 73
1
 97
0
 92
1
 93
1
 72
2
 10
25400.0
 20
-56896.0
 40
750
 50
0
 51
360
 73
1
 97
0
 92
1
 93
1
 72
2
 10
27940.0
 20
-56896.0
 40
750
 50
0
 51
360
 73
1
 97
0
 92
1
 93
1
 72
2
 10
30480.0
 20
-56896.0
 40
750
 50
0
 51
360
 73
1
 97
0
 92
1
 93
1
 72
2
 10
33020.0
 20
-56896.0
 40
750
 50
0
 51
360
 73
1
 97
0
 92
1
 93
1
 72
2
 10
35560.0
 20
-56896.0
 40
750
 50
0
 51
360
 73
1
 97
0
 92
1
 93
1
 72
2
 10
40640.0
 20
-56896.0
 40
750
 50
0
 51
360
 73
1
 97
0
 92
1
 93
1
 72
2
 10
43180.0
 20
-56896.0
 40
750
 50
0
 51
360
 73
1
 97
0
 92
1
 93
1
 72
2
 10
12700.0
 20
-59436.0
 40
750
 50
0
 51
360
 73
1
 97
0
 92
1
 93
1
 72
2
 10
15240.0
 20
-59436.0
 40
750
 50
0
 51
360
 73
1
 97
0
 92
1
 93
1
 72
2
 10
17780.0
 20
-59436.0
 40
750
 50
0
 51
360
 73
1
 97
0
 92
1
 93
1
 72
2
 10
20320.0
 20
-59436.0
 40
750
 50
0
 51
360
 73
1
 97
0
 92
1
 93
1
 72
2
 10
27940.0
 20
-59436.0
 40
750
 50
0
 51
360
 73
1
 97
0
 92
1
 93
1
 72
2
 10
33020.0
 20
-59436.0
 40
750
 50
0
 51
360
 73
1
 97
0
 92
1
 93
1
 72
2
 10
35560.0
 20
-59436.0
 40
750
 50
0
 51
360
 73
1
 97
0
 92
1
 93
1
 72
2
 10
38100.0
 20
-59436.0
 40
750
 50
0
 51
360
 73
1
 97
0
 92
1
 93
1
 72
2
 10
40640.0
 20
-59436.0
 40
750
 50
0
 51
360
 73
1
 97
0
 92
1
 93
1
 72
2
 10
43180.0
 20
-59436.0
 40
750
 50
0
 51
360
 73
1
 97
0
 92
3
 72
0
 73
1
 93
10
 10
15120.0
 20
-20208.0
 10
15120.0
 20
-20208.0
 10
15120.0
 20
-20208.0
 10
16120.0
 20
-20208.0
 10
16120.0
 20
-20208.0
 10
16120.0
 20
-23808.0
 10
16120.0
 20
-23808.0
 10
15120.0
 20
-23808.0
 10
15120.0
 20
-23808.0
 10
15120.0
 20
-20208.0
 97
0
 92
3
 72
0
 73
1
 93
10
 10
16420.0
 20
-20208.0
 10
16420.0
 20
-20208.0
 10
16420.0
 20
-20208.0
 10
17420.0
 20
-20208.0
 10
17420.0
 20
-20208.0
 10
17420.0
 20
-23808.0
 10
17420.0
 20
-23808.0
 10
16420.0
 20
-23808.0
 10
16420.0
 20
-23808.0
 10
16420.0
 20
-20208.0
 97
0
 92
3
 72
0
 73
1
 93
10
 10
17720.0
 20
-20208.0
 10
17720.0
 20
-20208.0
 10
17720.0
 20
-20208.0
 10
18720.0
 20
-20208.0
 10
18720.0
 20
-20208.0
 10
18720.0
 20
-23808.0
 10
18720.0
 20
-23808.0
 10
17720.0
 20
-23808.0
 10
17720.0
 20
-23808.0
 10
17720.0
 20
-20208.0
 97
0
 92
3
 72
0
 73
1
 93
10
 10
19020.0
 20
-20208.0
 10
19020.0
 20
-20208.0
 10
19020.0
 20
-20208.0
 10
20020.0
 20
-20208.0
 10
20020.0
 20
-20208.0
 10
20020.0
 20
-23808.0
 10
20020.0
 20
-23808.0
 10
19020.0
 20
-23808.0
 10
19020.0
 20
-23808.0
 10
19020.0
 20
-20208.0
 97
0
 92
3
 72
0
 73
1
 93
10
 10
20320.0
 20
-20208.0
 10
20320.0
 20
-20208.0
 10
20320.0
 20
-20208.0
 10
21320.0
 20
-20208.0
 10
21320.0
 20
-20208.0
 10
21320.0
 20
-23808.0
 10
21320.0
 20
-23808.0
 10
20320.0
 20
-23808.0
 10
20320.0
 20
-23808.0
 10
20320.0
 20
-20208.0
 97
0
 92
3
 72
0
 73
1
 93
10
 10
21620.0
 20
-20208.0
 10
21620.0
 20
-20208.0
 10
21620.0
 20
-20208.0
 10
22620.0
 20
-20208.0
 10
22620.0
 20
-20208.0
 10
22620.0
 20
-23808.0
 10
22620.0
 20
-23808.0
 10
21620.0
 20
-23808.0
 10
21620.0
 20
-23808.0
 10
21620.0
 20
-20208.0
 97
0
 92
3
 72
0
 73
1
 93
10
 10
22920.0
 20
-20208.0
 10
22920.0
 20
-20208.0
 10
22920.0
 20
-20208.0
 10
23920.0
 20
-20208.0
 10
23920.0
 20
-20208.0
 10
23920.0
 20
-23808.0
 10
23920.0
 20
-23808.0
 10
22920.0
 20
-23808.0
 10
22920.0
 20
-23808.0
 10
22920.0
 20
-20208.0
 97
0
 92
3
 72
0
 73
1
 93
10
 10
24220.0
 20
-20208.0
 10
24220.0
 20
-20208.0
 10
24220.0
 20
-20208.0
 10
25220.0
 20
-20208.0
 10
25220.0
 20
-20208.0
 10
25220.0
 20
-23808.0
 10
25220.0
 20
-23808.0
 10
24220.0
 20
-23808.0
 10
24220.0
 20
-23808.0
 10
24220.0
 20
-20208.0
 97
0
 92
3
 72
0
 73
1
 93
10
 10
25520.0
 20
-20208.0
 10
25520.0
 20
-20208.0
 10
25520.0
 20
-20208.0
 10
26520.0
 20
-20208.0
 10
26520.0
 20
-20208.0
 10
26520.0
 20
-23808.0
 10
26520.0
 20
-23808.0
 10
25520.0
 20
-23808.0
 10
25520.0
 20
-23808.0
 10
25520.0
 20
-20208.0
 97
0
 92
3
 72
0
 73
1
 93
10
 10
26820.0
 20
-20208.0
 10
26820.0
 20
-20208.0
 10
26820.0
 20
-20208.0
 10
27820.0
 20
-20208.0
 10
27820.0
 20
-20208.0
 10
27820.0
 20
-23808.0
 10
27820.0
 20
-23808.0
 10
26820.0
 20
-23808.0
 10
26820.0
 20
-23808.0
 10
26820.0
 20
-20208.0
 97
0
 92
3
 72
0
 73
1
 93
10
 10
28120.0
 20
-20208.0
 10
28120.0
 20
-20208.0
 10
28120.0
 20
-20208.0
 10
29120.0
 20
-20208.0
 10
29120.0
 20
-20208.0
 10
29120.0
 20
-23808.0
 10
29120.0
 20
-23808.0
 10
28120.0
 20
-23808.0
 10
28120.0
 20
-23808.0
 10
28120.0
 20
-20208.0
 97
0
 92
3
 72
0
 73
1
 93
10
 10
29420.0
 20
-20208.0
 10
29420.0
 20
-20208.0
 10
29420.0
 20
-20208.0
 10
30420.0
 20
-20208.0
 10
30420.0
 20
-20208.0
 10
30420.0
 20
-23808.0
 10
30420.0
 20
-23808.0
 10
29420.0
 20
-23808.0
 10
29420.0
 20
-23808.0
 10
29420.0
 20
-20208.0
 97
0
 92
3
 72
0
 73
1
 93
10
 10
30720.0
 20
-20208.0
 10
30720.0
 20
-20208.0
 10
30720.0
 20
-20208.0
 10
31720.0
 20
-20208.0
 10
31720.0
 20
-20208.0
 10
31720.0
 20
-23808.0
 10
31720.0
 20
-23808.0
 10
30720.0
 20
-23808.0
 10
30720.0
 20
-23808.0
 10
30720.0
 20
-20208.0
 97
0
 92
3
 72
0
 73
1
 93
10
 10
21620.0
 20
-24108.0
 10
21620.0
 20
-24108.0
 10
21620.0
 20
-24108.0
 10
25220.0
 20
-24108.0
 10
25220.0
 20
-24108.0
 10
25220.0
 20
-25108.0
 10
25220.0
 20
-25108.0
 10
21620.0
 20
-25108.0
 10
21620.0
 20
-25108.0
 10
21620.0
 20
-24108.0
 97
0
 92
3
 72
0
 73
1
 93
10
 10
21620.0
 20
-25408.0
 10
21620.0
 20
-25408.0
 10
21620.0
 20
-25408.0
 10
25220.0
 20
-25408.0
 10
25220.0
 20
-25408.0
 10
25220.0
 20
-26408.0
 10
25220.0
 20
-26408.0
 10
21620.0
 20
-26408.0
 10
21620.0
 20
-26408.0
 10
21620.0
 20
-25408.0
 97
0
 92
3
 72
0
 73
1
 93
10
 10
21620.0
 20
-26708.0
 10
21620.0
 20
-26708.0
 10
21620.0
 20
-26708.0
 10
25220.0
 20
-26708.0
 10
25220.0
 20
-26708.0
 10
25220.0
 20
-27708.0
 10
25220.0
 20
-27708.0
 10
21620.0
 20
-27708.0
 10
21620.0
 20
-27708.0
 10
21620.0
 20
-26708.0
 97
0
 92
3
 72
0
 73
1
 93
10
 10
21620.0
 20
-28008.0
 10
21620.0
 20
-28008.0
 10
21620.0
 20
-28008.0
 10
25220.0
 20
-28008.0
 10
25220.0
 20
-28008.0
 10
25220.0
 20
-29008.0
 10
25220.0
 20
-29008.0
 10
21620.0
 20
-29008.0
 10
21620.0
 20
-29008.0
 10
21620.0
 20
-28008.0
 97
0
 92
3
 72
0
 73
1
 93
10
 10
21620.0
 20
-29308.0
 10
21620.0
 20
-29308.0
 10
21620.0
 20
-29308.0
 10
25220.0
 20
-29308.0
 10
25220.0
 20
-29308.0
 10
25220.0
 20
-30308.0
 10
25220.0
 20
-30308.0
 10
21620.0
 20
-30308.0
 10
21620.0
 20
-30308.0
 10
21620.0
 20
-29308.0
 97
0
 92
3
 72
0
 73
1
 93
10
 10
21620.0
 20
-30608.0
 10
21620.0
 20
-30608.0
 10
21620.0
 20
-30608.0
 10
25220.0
 20
-30608.0
 10
25220.0
 20
-30608.0
 10
25220.0
 20
-31608.0
 10
25220.0
 20
-31608.0
 10
21620.0
 20
-31608.0
 10
21620.0
 20
-31608.0
 10
21620.0
 20
-30608.0
 97
0
 92
3
 72
0
 73
1
 93
10
 10
21620.0
 20
-31908.0
 10
21620.0
 20
-31908.0
 10
21620.0
 20
-31908.0
 10
25220.0
 20
-31908.0
 10
25220.0
 20
-31908.0
 10
25220.0
 20
-32908.0
 10
25220.0
 20
-32908.0
 10
21620.0
 20
-32908.0
 10
21620.0
 20
-32908.0
 10
21620.0
 20
-31908.0
 97
0
 92
3
 72
0
 73
1
 93
10
 10
21620.0
 20
-33208.0
 10
21620.0
 20
-33208.0
 10
21620.0
 20
-33208.0
 10
25220.0
 20
-33208.0
 10
25220.0
 20
-33208.0
 10
25220.0
 20
-34208.0
 10
25220.0
 20
-34208.0
 10
21620.0
 20
-34208.0
 10
21620.0
 20
-34208.0
 10
21620.0
 20
-33208.0
 97
0
 92
3
 72
0
 73
1
 93
10
 10
21620.0
 20
-34508.0
 10
21620.0
 20
-34508.0
 10
21620.0
 20
-34508.0
 10
25220.0
 20
-34508.0
 10
25220.0
 20
-34508.0
 10
25220.0
 20
-35508.0
 10
25220.0
 20
-35508.0
 10
21620.0
 20
-35508.0
 10
21620.0
 20
-35508.0
 10
21620.0
 20
-34508.0
 97
0
 92
3
 72
0
 73
1
 93
10
 10
21620.0
 20
-35808.0
 10
21620.0
 20
-35808.0
 10
21620.0
 20
-35808.0
 10
25220.0
 20
-35808.0
 10
25220.0
 20
-35808.0
 10
25220.0
 20
-36808.0
 10
25220.0
 20
-36808.0
 10
21620.0
 20
-36808.0
 10
21620.0
 20
-36808.0
 10
21620.0
 20
-35808.0
 97
0
 92
3
 72
0
 73
1
 93
10
 10
21620.0
 20
-37108.0
 10
21620.0
 20
-37108.0
 10
21620.0
 20
-37108.0
 10
25220.0
 20
-37108.0
 10
25220.0
 20
-37108.0
 10
25220.0
 20
-38108.0
 10
25220.0
 20
-38108.0
 10
21620.0
 20
-38108.0
 10
21620.0
 20
-38108.0
 10
21620.0
 20
-37108.0
 97
0
 92
3
 72
0
 73
1
 93
10
 10
21620.0
 20
-38408.0
 10
21620.0
 20
-38408.0
 10
21620.0
 20
-38408.0
 10
25220.0
 20
-38408.0
 10
25220.0
 20
-38408.0
 10
25220.0
 20
-39408.0
 10
25220.0
 20
-39408.0
 10
21620.0
 20
-39408.0
 10
21620.0
 20
-39408.0
 10
21620.0
 20
-38408.0
 97
0
 92
3
 72
0
 73
1
 93
10
 10
25520.0
 20
-29308.0
 10
25520.0
 20
-29308.0
 10
25520.0
 20
-29308.0
 10
26520.0
 20
-29308.0
 10
26520.0
 20
-29308.0
 10
26520.0
 20
-32908.0
 10
26520.0
 20
-32908.0
 10
25520.0
 20
-32908.0
 10
25520.0
 20
-32908.0
 10
25520.0
 20
-29308.0
 97
0
 92
3
 72
0
 73
1
 93
10
 10
26820.0
 20
-29308.0
 10
26820.0
 20
-29308.0
 10
26820.0
 20
-29308.0
 10
27820.0
 20
-29308.0
 10
27820.0
 20
-29308.0
 10
27820.0
 20
-32908.0
 10
27820.0
 20
-32908.0
 10
26820.0
 20
-32908.0
 10
26820.0
 20
-32908.0
 10
26820.0
 20
-29308.0
 97
0
 92
3
 72
0
 73
1
 93
10
 10
28120.0
 20
-29308.0
 10
28120.0
 20
-29308.0
 10
28120.0
 20
-29308.0
 10
29120.0
 20
-29308.0
 10
29120.0
 20
-29308.0
 10
29120.0
 20
-32908.0
 10
29120.0
 20
-32908.0
 10
28120.0
 20
-32908.0
 10
28120.0
 20
-32908.0
 10
28120.0
 20
-29308.0
 97
0
 92
3
 72
0
 73
1
 93
10
 10
29420.0
 20
-29308.0
 10
29420.0
 20
-29308.0
 10
29420.0
 20
-29308.0
 10
30420.0
 20
-29308.0
 10
30420.0
 20
-29308.0
 10
30420.0
 20
-32908.0
 10
30420.0
 20
-32908.0
 10
29420.0
 20
-32908.0
 10
29420.0
 20
-32908.0
 10
29420.0
 20
-29308.0
 97
0
 92
3
 72
0
 73
1
 93
10
 10
30720.0
 20
-29308.0
 10
30720.0
 20
-29308.0
 10
30720.0
 20
-29308.0
 10
31720.0
 20
-29308.0
 10
31720.0
 20
-29308.0
 10
31720.0
 20
-32908.0
 10
31720.0
 20
-32908.0
 10
30720.0
 20
-32908.0
 10
30720.0
 20
-32908.0
 10
30720.0
 20
-29308.0
 97
0
 92
3
 72
0
 73
1
 93
10
 10
32020.0
 20
-29308.0
 10
32020.0
 20
-29308.0
 10
32020.0
 20
-29308.0
 10
33020.0
 20
-29308.0
 10
33020.0
 20
-29308.0
 10
33020.0
 20
-32908.0
 10
33020.0
 20
-32908.0
 10
32020.0
 20
-32908.0
 10
32020.0
 20
-32908.0
 10
32020.0
 20
-29308.0
 97
0
 92
3
 72
0
 73
1
 93
10
 10
33320.0
 20
-29308.0
 10
33320.0
 20
-29308.0
 10
33320.0
 20
-29308.0
 10
34320.0
 20
-29308.0
 10
34320.0
 20
-29308.0
 10
34320.0
 20
-32908.0
 10
34320.0
 20
-32908.0
 10
33320.0
 20
-32908.0
 10
33320.0
 20
-32908.0
 10
33320.0
 20
-29308.0
 97
0
 92
3
 72
0
 73
1
 93
10
 10
34620.0
 20
-29308.0
 10
34620.0
 20
-29308.0
 10
34620.0
 20
-29308.0
 10
35620.0
 20
-29308.0
 10
35620.0
 20
-29308.0
 10
35620.0
 20
-32908.0
 10
35620.0
 20
-32908.0
 10
34620.0
 20
-32908.0
 10
34620.0
 20
-32908.0
 10
34620.0
 20
-29308.0
 97
0
 92
3
 72
0
 73
1
 93
10
 10
35920.0
 20
-29308.0
 10
35920.0
 20
-29308.0
 10
35920.0
 20
-29308.0
 10
36920.0
 20
-29308.0
 10
36920.0
 20
-29308.0
 10
36920.0
 20
-32908.0
 10
36920.0
 20
-32908.0
 10
35920.0
 20
-32908.0
 10
35920.0
 20
-32908.0
 10
35920.0
 20
-29308.0
 97
0
 92
3
 72
0
 73
1
 93
10
 10
37220.0
 20
-29308.0
 10
37220.0
 20
-29308.0
 10
37220.0
 20
-29308.0
 10
38220.0
 20
-29308.0
 10
38220.0
 20
-29308.0
 10
38220.0
 20
-32908.0
 10
38220.0
 20
-32908.0
 10
37220.0
 20
-32908.0
 10
37220.0
 20
-32908.0
 10
37220.0
 20
-29308.0
 97
0
 92
3
 72
0
 73
1
 93
10
 10
38520.0
 20
-29308.0
 10
38520.0
 20
-29308.0
 10
38520.0
 20
-29308.0
 10
39520.0
 20
-29308.0
 10
39520.0
 20
-29308.0
 10
39520.0
 20
-32908.0
 10
39520.0
 20
-32908.0
 10
38520.0
 20
-32908.0
 10
38520.0
 20
-32908.0
 10
38520.0
 20
-29308.0
 97
0
 92
3
 72
0
 73
1
 93
10
 10
39820.0
 20
-29308.0
 10
39820.0
 20
-29308.0
 10
39820.0
 20
-29308.0
 10
40820.0
 20
-29308.0
 10
40820.0
 20
-29308.0
 10
40820.0
 20
-32908.0
 10
40820.0
 20
-32908.0
 10
39820.0
 20
-32908.0
 10
39820.0
 20
-32908.0
 10
39820.0
 20
-29308.0
 97
0
 92
3
 72
0
 73
1
 93
10
 10
41120.0
 20
-29308.0
 10
41120.0
 20
-29308.0
 10
41120.0
 20
-29308.0
 10
42120.0
 20
-29308.0
 10
42120.0
 20
-29308.0
 10
42120.0
 20
-32908.0
 10
42120.0
 20
-32908.0
 10
41120.0
 20
-32908.0
 10
41120.0
 20
-32908.0
 10
41120.0
 20
-29308.0
 97
0
 92
3
 72
0
 73
1
 93
10
 10
32020.0
 20
-13708.0
 10
32020.0
 20
-13708.0
 10
32020.0
 20
-13708.0
 10
35620.0
 20
-13708.0
 10
35620.0
 20
-13708.0
 10
35620.0
 20
-14708.0
 10
35620.0
 20
-14708.0
 10
32020.0
 20
-14708.0
 10
32020.0
 20
-14708.0
 10
32020.0
 20
-13708.0
 97
0
 92
3
 72
0
 73
1
 93
10
 10
32020.0
 20
-15008.0
 10
32020.0
 20
-15008.0
 10
32020.0
 20
-15008.0
 10
35620.0
 20
-15008.0
 10
35620.0
 20
-15008.0
 10
35620.0
 20
-16008.0
 10
35620.0
 20
-16008.0
 10
32020.0
 20
-16008.0
 10
32020.0
 20
-16008.0
 10
32020.0
 20
-15008.0
 97
0
 92
3
 72
0
 73
1
 93
10
 10
32020.0
 20
-16308.0
 10
32020.0
 20
-16308.0
 10
32020.0
 20
-16308.0
 10
35620.0
 20
-16308.0
 10
35620.0
 20
-16308.0
 10
35620.0
 20
-17308.0
 10
35620.0
 20
-17308.0
 10
32020.0
 20
-17308.0
 10
32020.0
 20
-17308.0
 10
32020.0
 20
-16308.0
 97
0
 92
3
 72
0
 73
1
 93
10
 10
32020.0
 20
-17608.0
 10
32020.0
 20
-17608.0
 10
32020.0
 20
-17608.0
 10
35620.0
 20
-17608.0
 10
35620.0
 20
-17608.0
 10
35620.0
 20
-18608.0
 10
35620.0
 20
-18608.0
 10
32020.0
 20
-18608.0
 10
32020.0
 20
-18608.0
 10
32020.0
 20
-17608.0
 97
0
 92
3
 72
0
 73
1
 93
10
 10
32020.0
 20
-18908.0
 10
32020.0
 20
-18908.0
 10
32020.0
 20
-18908.0
 10
35620.0
 20
-18908.0
 10
35620.0
 20
-18908.0
 10
35620.0
 20
-19908.0
 10
35620.0
 20
-19908.0
 10
32020.0
 20
-19908.0
 10
32020.0
 20
-19908.0
 10
32020.0
 20
-18908.0
 97
0
 92
3
 72
0
 73
1
 93
10
 10
32020.0
 20
-20208.0
 10
32020.0
 20
-20208.0
 10
32020.0
 20
-20208.0
 10
35620.0
 20
-20208.0
 10
35620.0
 20
-20208.0
 10
35620.0
 20
-21208.0
 10
35620.0
 20
-21208.0
 10
32020.0
 20
-21208.0
 10
32020.0
 20
-21208.0
 10
32020.0
 20
-20208.0
 97
0
 92
3
 72
0
 73
1
 93
10
 10
32020.0
 20
-21508.0
 10
32020.0
 20
-21508.0
 10
32020.0
 20
-21508.0
 10
35620.0
 20
-21508.0
 10
35620.0
 20
-21508.0
 10
35620.0
 20
-22508.0
 10
35620.0
 20
-22508.0
 10
32020.0
 20
-22508.0
 10
32020.0
 20
-22508.0
 10
32020.0
 20
-21508.0
 97
0
 92
3
 72
0
 73
1
 93
10
 10
32020.0
 20
-22808.0
 10
32020.0
 20
-22808.0
 10
32020.0
 20
-22808.0
 10
35620.0
 20
-22808.0
 10
35620.0
 20
-22808.0
 10
35620.0
 20
-23808.0
 10
35620.0
 20
-23808.0
 10
32020.0
 20
-23808.0
 10
32020.0
 20
-23808.0
 10
32020.0
 20
-22808.0
 97
0
 92
3
 72
0
 73
1
 93
10
 10
32020.0
 20
-24108.0
 10
32020.0
 20
-24108.0
 10
32020.0
 20
-24108.0
 10
35620.0
 20
-24108.0
 10
35620.0
 20
-24108.0
 10
35620.0
 20
-25108.0
 10
35620.0
 20
-25108.0
 10
32020.0
 20
-25108.0
 10
32020.0
 20
-25108.0
 10
32020.0
 20
-24108.0
 97
0
 92
3
 72
0
 73
1
 93
10
 10
32020.0
 20
-25408.0
 10
32020.0
 20
-25408.0
 10
32020.0
 20
-25408.0
 10
35620.0
 20
-25408.0
 10
35620.0
 20
-25408.0
 10
35620.0
 20
-26408.0
 10
35620.0
 20
-26408.0
 10
32020.0
 20
-26408.0
 10
32020.0
 20
-26408.0
 10
32020.0
 20
-25408.0
 97
0
 92
3
 72
0
 73
1
 93
10
 10
32020.0
 20
-26708.0
 10
32020.0
 20
-26708.0
 10
32020.0
 20
-26708.0
 10
35620.0
 20
-26708.0
 10
35620.0
 20
-26708.0
 10
35620.0
 20
-27708.0
 10
35620.0
 20
-27708.0
 10
32020.0
 20
-27708.0
 10
32020.0
 20
-27708.0
 10
32020.0
 20
-26708.0
 97
0
 92
3
 72
0
 73
1
 93
10
 10
32020.0
 20
-28008.0
 10
32020.0
 20
-28008.0
 10
32020.0
 20
-28008.0
 10
35620.0
 20
-28008.0
 10
35620.0
 20
-28008.0
 10
35620.0
 20
-29008.0
 10
35620.0
 20
-29008.0
 10
32020.0
 20
-29008.0
 10
32020.0
 20
-29008.0
 10
32020.0
 20
-28008.0
 97
0
 75
0
 76
1
 98
0
  0
HATCH
  5
30
330
17
100
AcDbEntity
  8
0
 62
0
100
AcDbHatch
 10
0.0
 20
0.0
 30
0.0
210
0.0
220
0.0
230
1.0
  2
SOLID
 70
1
 71
0
 91
0
 75
0
 76
1
 98
0
  0
HATCH
  5
31
330
17
100
AcDbEntity
  8
0
 62
1
100
AcDbHatch
 10
0.0
 20
0.0
 30
0.0
210
0.0
220
0.0
230
1.0
  2
SOLID
 70
1
 71
0
 91
0
 75
0
 76
1
 98
0
  0
HATCH
  5
32
330
17
100
AcDbEntity
  8
0
 62
1
100
AcDbHatch
 10
0.0
 20
0.0
 30
0.0
210
0.0
220
0.0
230
1.0
  2
SOLID
 70
1
 71
0
 91
0
 75
0
 76
1
 98
0
  0
HATCH
  5
33
330
17
100
AcDbEntity
  8
0
 62
5
100
AcDbHatch
 10
0.0
 20
0.0
 30
0.0
210
0.0
220
0.0
230
1.0
  2
SOLID
 70
1
 71
0
 91
8
 92
1
 93
1
 72
2
 10
0.0
 20
-7620.0
 40
750
 50
0
 51
360
 73
1
 97
0
 92
1
 93
1
 72
2
 10
20320.0
 20
-7620.0
 40
750
 50
0
 51
360
 73
1
 97
0
 92
1
 93
1
 72
2
 10
40640.0
 20
-7620.0
 40
750
 50
0
 51
360
 73
1
 97
0
 92
1
 93
1
 72
2
 10
60960.0
 20
-7620.0
 40
750
 50
0
 51
360
 73
1
 97
0
 92
1
 93
1
 72
2
 10
17780.0
 20
-56896.0
 40
750
 50
0
 51
360
 73
1
 97
0
 92
1
 93
1
 72
2
 10
38100.0
 20
-56896.0
 40
750
 50
0
 51
360
 73
1
 97
0
 92
1
 93
1
 72
2
 10
58420.0
 20
-56896.0
 40
750
 50
0
 51
360
 73
1
 97
0
 92
1
 93
1
 72
2
 10
78740.0
 20
-56896.0
 40
750
 50
0
 51
360
 73
1
 97
0
 75
0
 76
1
 98
0
  0
CIRCLE
  5
34
330
17
100
AcDbEntity
  8
0
100
AcDbCircle
 10
10160.0
 20
-5080.0
 30
0.0
 40
750.0
  0
CIRCLE
  5
35
330
17
100
AcDbEntity
  8
0
100
AcDbCircle
 10
15240.0
 20
-5080.0
 30
0.0
 40
750.0
  0
CIRCLE
  5
36
330
17
100
AcDbEntity
  8
0
100
AcDbCircle
 10
17780.0
 20
-5080.0
 30
0.0
 40
750.0
  0
CIRCLE
  5
37
330
17
100
AcDbEntity
  8
0
100
AcDbCircle
 10
20320.0
 20
-5080.0
 30
0.0
 40
750.0
  0
CIRCLE
  5
38
330
17
100
AcDbEntity
  8
0
100
AcDbCircle
 10
22860.0
 20
-5080.0
 30
0.0
 40
750.0
  0
CIRCLE
  5
39
330
17
100
AcDbEntity
  8
0
100
AcDbCircle
 10
25400.0
 20
-5080.0
 30
0.0
 40
750.0
  0
CIRCLE
  5
3A
330
17
100
AcDbEntity
  8
0
100
AcDbCircle
 10
27940.0
 20
-5080.0
 30
0.0
 40
750.0
  0
CIRCLE
  5
3B
330
17
100
AcDbEntity
  8
0
100
AcDbCircle
 10
30480.0
 20
-5080.0
 30
0.0
 40
750.0
  0
CIRCLE
  5
3C
330
17
100
AcDbEntity
  8
0
100
AcDbCircle
 10
35560.0
 20
-5080.0
 30
0.0
 40
750.0
  0
CIRCLE
  5
3D
330
17
100
AcDbEntity
  8
0
100
AcDbCircle
 10
38100.0
 20
-5080.0
 30
0.0
 40
750.0
  0
CIRCLE
  5
3E
330
17
100
AcDbEntity
  8
0
100
AcDbCircle
 10
43180.0
 20
-5080.0
 30
0.0
 40
750.0
  0
CIRCLE
  5
3F
330
17
100
AcDbEntity
  8
0
100
AcDbCircle
 10
45720.0
 20
-5080.0
 30
0.0
 40
750.0
  0
CIRCLE
  5
40
330
17
100
AcDbEntity
  8
0
100
AcDbCircle
 10
48260.0
 20
-5080.0
 30
0.0
 40
750.0
  0
CIRCLE
  5
41
330
17
100
AcDbEntity
  8
0
 62
5
100
AcDbCircle
 10
0.0
 20
-7620.0
 30
0.0
 40
750.0
  0
CIRCLE
  5
42
330
17
100
AcDbEntity
  8
0
100
AcDbCircle
 10
7620.0
 20
-7620.0
 30
0.0
 40
750.0
  0
CIRCLE
  5
43
330
17
100
AcDbEntity
  8
0
100
AcDbCircle
 10
10160.0
 20
-7620.0
 30
0.0
 40
750.0
  0
CIRCLE
  5
44
330
17
100
AcDbEntity
  8
0
100
AcDbCircle
 10
12700.0
 20
-7620.0
 30
0.0
 40
750.0
  0
CIRCLE
  5
45
330
17
100
AcDbEntity
  8
0
100
AcDbCircle
 10
15240.0
 20
-7620.0
 30
0.0
 40
750.0
  0
CIRCLE
  5
46
330
17
100
AcDbEntity
  8
0
100
AcDbCircle
 10
17780.0
 20
-7620.0
 30
0.0
 40
750.0
  0
CIRCLE
  5
47
330
17
100
AcDbEntity
  8
0
 62
5
100
AcDbCircle
 10
20320.0
 20
-7620.0
 30
0.0
 40
750.0
  0
CIRCLE
  5
48
330
17
100
AcDbEntity
  8
0
100
AcDbCircle
 10
22860.0
 20
-7620.0
 30
0.0
 40
750.0
  0
CIRCLE
  5
49
330
17
100
AcDbEntity
  8
0
100
AcDbCircle
 10
25400.0
 20
-7620.0
 30
0.0
 40
750.0
  0
CIRCLE
  5
4A
330
17
100
AcDbEntity
  8
0
100
AcDbCircle
 10
27940.0
 20
-7620.0
 30
0.0
 40
750.0
  0
CIRCLE
  5
4B
330
17
100
AcDbEntity
  8
0
100
AcDbCircle
 10
30480.0
 20
-7620.0
 30
0.0
 40
750.0
  0
CIRCLE
  5
4C
330
17
100
AcDbEntity
  8
0
100
AcDbCircle
 10
33020.0
 20
-7620.0
 30
0.0
 40
750.0
  0
CIRCLE
  5
4D
330
17
100
AcDbEntity
  8
0
100
AcDbCircle
 10
35560.0
 20
-7620.0
 30
0.0
 40
750.0
  0
CIRCLE
  5
4E
330
17
100
AcDbEntity
  8
0
100
AcDbCircle
 10
38100.0
 20
-7620.0
 30
0.0
 40
750.0
  0
CIRCLE
  5
4F
330
17
100
AcDbEntity
  8
0
 62
5
100
AcDbCircle
 10
40640.0
 20
-7620.0
 30
0.0
 40
750.0
  0
CIRCLE
  5
50
330
17
100
AcDbEntity
  8
0
100
AcDbCircle
 10
43180.0
 20
-7620.0
 30
0.0
 40
750.0
  0
CIRCLE
  5
51
330
17
100
AcDbEntity
  8
0
100
AcDbCircle
 10
45720.0
 20
-7620.0
 30
0.0
 40
750.0
  0
CIRCLE
  5
52
330
17
100
AcDbEntity
  8
0
100
AcDbCircle
 10
48260.0
 20
-7620.0
 30
0.0
 40
750.0
  0
CIRCLE
  5
53
330
17
100
AcDbEntity
  8
0
100
AcDbCircle
 10
50800.0
 20
-7620.0
 30
0.0
 40
750.0
  0
CIRCLE
  5
54
330
17
100
AcDbEntity
  8
0
 62
5
100
AcDbCircle
 10
60960.0
 20
-7620.0
 30
0.0
 40
750.0
  0
CIRCLE
  5
55
330
17
100
AcDbEntity
  8
0
100
AcDbCircle
 10
12700.0
 20
-56896.0
 30
0.0
 40
750.0
  0
CIRCLE
  5
56
330
17
100
AcDbEntity
  8
0
100
AcDbCircle
 10
15240.0
 20
-56896.0
 30
0.0
 40
750.0
  0
CIRCLE
  5
57
330
17
100
AcDbEntity
  8
0
 62
5
100
AcDbCircle
 10
17780.0
 20
-56896.0
 30
0.0
 40
750.0
  0
CIRCLE
  5
58
330
17
100
AcDbEntity
  8
0
100
AcDbCircle
 10
20320.0
 20
-56896.0
 30
0.0
 40
750.0
  0
CIRCLE
  5
59
330
17
100
AcDbEntity
  8
0
100
AcDbCircle
 10
22860.0
 20
-56896.0
 30
0.0
 40
750.0
  0
CIRCLE
  5
5A
330
17
100
AcDbEntity
  8
0
100
AcDbCircle
 10
25400.0
 20
-56896.0
 30
0.0
 40
750.0
  0
CIRCLE
  5
5B
330
17
100
AcDbEntity
  8
0
100
AcDbCircle
 10
27940.0
 20
-56896.0
 30
0.0
 40
750.0
  0
CIRCLE
  5
5C
330
17
100
AcDbEntity
  8
0
100
AcDbCircle
 10
30480.0
 20
-56896.0
 30
0.0
 40
750.0
  0
CIRCLE
  5
5D
330
17
100
AcDbEntity
  8
0
100
AcDbCircle
 10
33020.0
 20
-56896.0
 30
0.0
 40
750.0
  0
CIRCLE
  5
5E
330
17
100
AcDbEntity
  8
0
100
AcDbCircle
 10
35560.0
 20
-56896.0
 30
0.0
 40
750.0
  0
CIRCLE
  5
5F
330
17
100
AcDbEntity
  8
0
 62
5
100
AcDbCircle
 10
38100.0
 20
-56896.0
 30
0.0
 40
750.0
  0
CIRCLE
  5
60
330
17
100
AcDbEntity
  8
0
100
AcDbCircle
 10
40640.0
 20
-56896.0
 30
0.0
 40
750.0
  0
CIRCLE
  5
61
330
17
100
AcDbEntity
  8
0
100
AcDbCircle
 10
43180.0
 20
-56896.0
 30
0.0
 40
750.0
  0
CIRCLE
  5
62
330
17
100
AcDbEntity
  8
0
 62
5
100
AcDbCircle
 10
58420.0
 20
-56896.0
 30
0.0
 40
750.0
  0
CIRCLE
  5
63
330
17
100
AcDbEntity
  8
0
 62
5
100
AcDbCircle
 10
78740.0
 20
-56896.0
 30
0.0
 40
750.0
  0
CIRCLE
  5
64
330
17
100
AcDbEntity
  8
0
100
AcDbCircle
 10
12700.0
 20
-59436.0
 30
0.0
 40
750.0
  0
CIRCLE
  5
65
330
17
100
AcDbEntity
  8
0
100
AcDbCircle
 10
15240.0
 20
-59436.0
 30
0.0
 40
750.0
  0
CIRCLE
  5
66
330
17
100
AcDbEntity
  8
0
100
AcDbCircle
 10
17780.0
 20
-59436.0
 30
0.0
 40
750.0
  0
CIRCLE
  5
67
330
17
100
AcDbEntity
  8
0
100
AcDbCircle
 10
20320.0
 20
-59436.0
 30
0.0
 40
750.0
  0
CIRCLE
  5
68
330
17
100
AcDbEntity
  8
0
100
AcDbCircle
 10
27940.0
 20
-59436.0
 30
0.0
 40
750.0
  0
CIRCLE
  5
69
330
17
100
AcDbEntity
  8
0
100
AcDbCircle
 10
33020.0
 20
-59436.0
 30
0.0
 40
750.0
  0
CIRCLE
  5
6A
330
17
100
AcDbEntity
  8
0
100
AcDbCircle
 10
35560.0
 20
-59436.0
 30
0.0
 40
750.0
  0
CIRCLE
  5
6B
330
17
100
AcDbEntity
  8
0
100
AcDbCircle
 10
38100.0
 20
-59436.0
 30
0.0
 40
750.0
  0
CIRCLE
  5
6C
330
17
100
AcDbEntity
  8
0
100
AcDbCircle
 10
40640.0
 20
-59436.0
 30
0.0
 40
750.0
  0
CIRCLE
  5
6D
330
17
100
AcDbEntity
  8
0
100
AcDbCircle
 10
43180.0
 20
-59436.0
 30
0.0
 40
750.0
  0
POLYLINE
  5
6E
330
17
100
AcDbEntity
  8
0
100
AcDb2dPolyline
 66
1
 10
0.0
 20
0.0
 30
0.0
 70
1
  0
VERTEX
  5
70
330
17
100
AcDbEntity
  8
0
100
AcDbVertex
100
AcDb2dVertex
 10
15120.0
 20
-20208.0
 30
0.0
 70
0
  0
VERTEX
  5
71
330
17
100
AcDbEntity
  8
0
100
AcDbVertex
100
AcDb2dVertex
 10
15120.0
 20
-20208.0
 30
0.0
 70
0
  0
VERTEX
  5
72
330
17
100
AcDbEntity
  8
0
100
AcDbVertex
100
AcDb2dVertex
 10
15120.0
 20
-20208.0
 30
0.0
 70
0
  0
VERTEX
  5
73
330
17
100
AcDbEntity
  8
0
100
AcDbVertex
100
AcDb2dVertex
 10
16120.0
 20
-20208.0
 30
0.0
 70
0
  0
VERTEX
  5
74
330
17
100
AcDbEntity
  8
0
100
AcDbVertex
100
AcDb2dVertex
 10
16120.0
 20
-20208.0
 30
0.0
 70
0
  0
VERTEX
  5
75
330
17
100
AcDbEntity
  8
0
100
AcDbVertex
100
AcDb2dVertex
 10
16120.0
 20
-23808.0
 30
0.0
 70
0
  0
VERTEX
  5
76
330
17
100
AcDbEntity
  8
0
100
AcDbVertex
100
AcDb2dVertex
 10
16120.0
 20
-23808.0
 30
0.0
 70
0
  0
VERTEX
  5
77
330
17
100
AcDbEntity
  8
0
100
AcDbVertex
100
AcDb2dVertex
 10
15120.0
 20
-23808.0
 30
0.0
 70
0
  0
VERTEX
  5
78
330
17
100
AcDbEntity
  8
0
100
AcDbVertex
100
AcDb2dVertex
 10
15120.0
 20
-23808.0
 30
0.0
 70
0
  0
VERTEX
  5
79
330
17
100
AcDbEntity
  8
0
100
AcDbVertex
100
AcDb2dVertex
 10
15120.0
 20
-20208.0
 30
0.0
 70
0
  0
SEQEND
  5
6F
330
17
100
AcDbEntity
  8
0
  0
POLYLINE
  5
7A
330
17
100
AcDbEntity
  8
0
100
AcDb2dPolyline
 66
1
 10
0.0
 20
0.0
 30
0.0
 70
1
  0
VERTEX
  5
7C
330
17
100
AcDbEntity
  8
0
100
AcDbVertex
100
AcDb2dVertex
 10
16420.0
 20
-20208.0
 30
0.0
 70
0
  0
VERTEX
  5
7D
330
17
100
AcDbEntity
  8
0
100
AcDbVertex
100
AcDb2dVertex
 10
16420.0
 20
-20208.0
 30
0.0
 70
0
  0
VERTEX
  5
7E
330
17
100
AcDbEntity
  8
0
100
AcDbVertex
100
AcDb2dVertex
 10
16420.0
 20
-20208.0
 30
0.0
 70
0
  0
VERTEX
  5
7F
330
17
100
AcDbEntity
  8
0
100
AcDbVertex
100
AcDb2dVertex
 10
17420.0
 20
-20208.0
 30
0.0
 70
0
  0
VERTEX
  5
80
330
17
100
AcDbEntity
  8
0
100
AcDbVertex
100
AcDb2dVertex
 10
17420.0
 20
-20208.0
 30
0.0
 70
0
  0
VERTEX
  5
81
330
17
100
AcDbEntity
  8
0
100
AcDbVertex
100
AcDb2dVertex
 10
17420.0
 20
-23808.0
 30
0.0
 70
0
  0
VERTEX
  5
82
330
17
100
AcDbEntity
  8
0
100
AcDbVertex
100
AcDb2dVertex
 10
17420.0
 20
-23808.0
 30
0.0
 70
0
  0
VERTEX
  5
83
330
17
100
AcDbEntity
  8
0
100
AcDbVertex
100
AcDb2dVertex
 10
16420.0
 20
-23808.0
 30
0.0
 70
0
  0
VERTEX
  5
84
330
17
100
AcDbEntity
  8
0
100
AcDbVertex
100
AcDb2dVertex
 10
16420.0
 20
-23808.0
 30
0.0
 70
0
  0
VERTEX
  5
85
330
17
100
AcDbEntity
  8
0
100
AcDbVertex
100
AcDb2dVertex
 10
16420.0
 20
-20208.0
 30
0.0
 70
0
  0
SEQEND
  5
7B
330
17
100
AcDbEntity
  8
0
  0
POLYLINE
  5
86
330
17
100
AcDbEntity
  8
0
100
AcDb2dPolyline
 66
1
 10
0.0
 20
0.0
 30
0.0
 70
1
  0
VERTEX
  5
88
330
17
100
AcDbEntity
  8
0
100
AcDbVertex
100
AcDb2dVertex
 10
17720.0
 20
-20208.0
 30
0.0
 70
0
  0
VERTEX
  5
89
330
17
100
AcDbEntity
  8
0
100
AcDbVertex
100
AcDb2dVertex
 10
17720.0
 20
-20208.0
 30
0.0
 70
0
  0
VERTEX
  5
8A
330
17
100
AcDbEntity
  8
0
100
AcDbVertex
100
AcDb2dVertex
 10
17720.0
 20
-20208.0
 30
0.0
 70
0
  0
VERTEX
  5
8B
330
17
100
AcDbEntity
  8
0
100
AcDbVertex
100
AcDb2dVertex
 10
18720.0
 20
-20208.0
 30
0.0
 70
0
  0
VERTEX
  5
8C
330
17
100
AcDbEntity
  8
0
100
AcDbVertex
100
AcDb2dVertex
 10
18720.0
 20
-20208.0
 30
0.0
 70
0
  0
VERTEX
  5
8D
330
17
100
AcDbEntity
  8
0
100
AcDbVertex
100
AcDb2dVertex
 10
18720.0
 20
-23808.0
 30
0.0
 70
0
  0
VERTEX
  5
8E
330
17
100
AcDbEntity
  8
0
100
AcDbVertex
100
AcDb2dVertex
 10
18720.0
 20
-23808.0
 30
0.0
 70
0
  0
VERTEX
  5
8F
330
17
100
AcDbEntity
  8
0
100
AcDbVertex
100
AcDb2dVertex
 10
17720.0
 20
-23808.0
 30
0.0
 70
0
  0
VERTEX
  5
90
330
17
100
AcDbEntity
  8
0
100
AcDbVertex
100
AcDb2dVertex
 10
17720.0
 20
-23808.0
 30
0.0
 70
0
  0
VERTEX
  5
91
330
17
100
AcDbEntity
  8
0
100
AcDbVertex
100
AcDb2dVertex
 10
17720.0
 20
-20208.0
 30
0.0
 70
0
  0
SEQEND
  5
87
330
17
100
AcDbEntity
  8
0
  0
POLYLINE
  5
92
330
17
100
AcDbEntity
  8
0
100
AcDb2dPolyline
 66
1
 10
0.0
 20
0.0
 30
0.0
 70
1
  0
VERTEX
  5
94
330
17
100
AcDbEntity
  8
0
100
AcDbVertex
100
AcDb2dVertex
 10
19020.0
 20
-20208.0
 30
0.0
 70
0
  0
VERTEX
  5
95
330
17
100
AcDbEntity
  8
0
100
AcDbVertex
100
AcDb2dVertex
 10
19020.0
 20
-20208.0
 30
0.0
 70
0
  0
VERTEX
  5
96
330
17
100
AcDbEntity
  8
0
100
AcDbVertex
100
AcDb2dVertex
 10
19020.0
 20
-20208.0
 30
0.0
 70
0
  0
VERTEX
  5
97
330
17
100
AcDbEntity
  8
0
100
AcDbVertex
100
AcDb2dVertex
 10
20020.0
 20
-20208.0
 30
0.0
 70
0
  0
VERTEX
  5
98
330
17
100
AcDbEntity
  8
0
100
AcDbVertex
100
AcDb2dVertex
 10
20020.0
 20
-20208.0
 30
0.0
 70
0
  0
VERTEX
  5
99
330
17
100
AcDbEntity
  8
0
100
AcDbVertex
100
AcDb2dVertex
 10
20020.0
 20
-23808.0
 30
0.0
 70
0
  0
VERTEX
  5
9A
330
17
100
AcDbEntity
  8
0
100
AcDbVertex
100
AcDb2dVertex
 10
20020.0
 20
-23808.0
 30
0.0
 70
0
  0
VERTEX
  5
9B
330
17
100
AcDbEntity
  8
0
100
AcDbVertex
100
AcDb2dVertex
 10
19020.0
 20
-23808.0
 30
0.0
 70
0
  0
VERTEX
  5
9C
330
17
100
AcDbEntity
  8
0
100
AcDbVertex
100
AcDb2dVertex
 10
19020.0
 20
-23808.0
 30
0.0
 70
0
  0
VERTEX
  5
9D
330
17
100
AcDbEntity
  8
0
100
AcDbVertex
100
AcDb2dVertex
 10
19020.0
 20
-20208.0
 30
0.0
 70
0
  0
SEQEND
  5
93
330
17
100
AcDbEntity
  8
0
  0
POLYLINE
  5
9E
330
17
100
AcDbEntity
  8
0
100
AcDb2dPolyline
 66
1
 10
0.0
 20
0.0
 30
0.0
 70
1
  0
VERTEX
  5
A0
330
17
100
AcDbEntity
  8
0
100
AcDbVertex
100
AcDb2dVertex
 10
20320.0
 20
-20208.0
 30
0.0
 70
0
  0
VERTEX
  5
A1
330
17
100
AcDbEntity
  8
0
100
AcDbVertex
100
AcDb2dVertex
 10
20320.0
 20
-20208.0
 30
0.0
 70
0
  0
VERTEX
  5
A2
330
17
100
AcDbEntity
  8
0
100
AcDbVertex
100
AcDb2dVertex
 10
20320.0
 20
-20208.0
 30
0.0
 70
0
  0
VERTEX
  5
A3
330
17
100
AcDbEntity
  8
0
100
AcDbVertex
100
AcDb2dVertex
 10
21320.0
 20
-20208.0
 30
0.0
 70
0
  0
VERTEX
  5
A4
330
17
100
AcDbEntity
  8
0
100
AcDbVertex
100
AcDb2dVertex
 10
21320.0
 20
-20208.0
 30
0.0
 70
0
  0
VERTEX
  5
A5
330
17
100
AcDbEntity
  8
0
100
AcDbVertex
100
AcDb2dVertex
 10
21320.0
 20
-23808.0
 30
0.0
 70
0
  0
VERTEX
  5
A6
330
17
100
AcDbEntity
  8
0
100
AcDbVertex
100
AcDb2dVertex
 10
21320.0
 20
-23808.0
 30
0.0
 70
0
  0
VERTEX
  5
A7
330
17
100
AcDbEntity
  8
0
100
AcDbVertex
100
AcDb2dVertex
 10
20320.0
 20
-23808.0
 30
0.0
 70
0
  0
VERTEX
  5
A8
330
17
100
AcDbEntity
  8
0
100
AcDbVertex
100
AcDb2dVertex
 10
20320.0
 20
-23808.0
 30
0.0
 70
0
  0
VERTEX
  5
A9
330
17
100
AcDbEntity
  8
0
100
AcDbVertex
100
AcDb2dVertex
 10
20320.0
 20
-20208.0
 30
0.0
 70
0
  0
SEQEND
  5
9F
330
17
100
AcDbEntity
  8
0
  0
POLYLINE
  5
AA
330
17
100
AcDbEntity
  8
0
100
AcDb2dPolyline
 66
1
 10
0.0
 20
0.0
 30
0.0
 70
1
  0
VERTEX
  5
AC
330
17
100
AcDbEntity
  8
0
100
AcDbVertex
100
AcDb2dVertex
 10
21620.0
 20
-20208.0
 30
0.0
 70
0
  0
VERTEX
  5
AD
330
17
100
AcDbEntity
  8
0
100
AcDbVertex
100
AcDb2dVertex
 10
21620.0
 20
-20208.0
 30
0.0
 70
0
  0
VERTEX
  5
AE
330
17
100
AcDbEntity
  8
0
100
AcDbVertex
100
AcDb2dVertex
 10
21620.0
 20
-20208.0
 30
0.0
 70
0
  0
VERTEX
  5
AF
330
17
100
AcDbEntity
  8
0
100
AcDbVertex
100
AcDb2dVertex
 10
22620.0
 20
-20208.0
 30
0.0
 70
0
  0
VERTEX
  5
B0
330
17
100
AcDbEntity
  8
0
100
AcDbVertex
100
AcDb2dVertex
 10
22620.0
 20
-20208.0
 30
0.0
 70
0
  0
VERTEX
  5
B1
330
17
100
AcDbEntity
  8
0
100
AcDbVertex
100
AcDb2dVertex
 10
22620.0
 20
-23808.0
 30
0.0
 70
0
  0
VERTEX
  5
B2
330
17
100
AcDbEntity
  8
0
100
AcDbVertex
100
AcDb2dVertex
 10
22620.0
 20
-23808.0
 30
0.0
 70
0
  0
VERTEX
  5
B3
330
17
100
AcDbEntity
  8
0
100
AcDbVertex
100
AcDb2dVertex
 10
21620.0
 20
-23808.0
 30
0.0
 70
0
  0
VERTEX
  5
B4
330
17
100
AcDbEntity
  8
0
100
AcDbVertex
100
AcDb2dVertex
 10
21620.0
 20
-23808.0
 30
0.0
 70
0
  0
VERTEX
  5
B5
330
17
100
AcDbEntity
  8
0
100
AcDbVertex
100
AcDb2dVertex
 10
21620.0
 20
-20208.0
 30
0.0
 70
0
  0
SEQEND
  5
AB
330
17
100
AcDbEntity
  8
0
  0
POLYLINE
  5
B6
330
17
100
AcDbEntity
  8
0
100
AcDb2dPolyline
 66
1
 10
0.0
 20
0.0
 30
0.0
 70
1
  0
VERTEX
  5
B8
330
17
100
AcDbEntity
  8
0
100
AcDbVertex
100
AcDb2dVertex
 10
22920.0
 20
-20208.0
 30
0.0
 70
0
  0
VERTEX
  5
B9
330
17
100
AcDbEntity
  8
0
100
AcDbVertex
100
AcDb2dVertex
 10
22920.0
 20
-20208.0
 30
0.0
 70
0
  0
VERTEX
  5
BA
330
17
100
AcDbEntity
  8
0
100
AcDbVertex
100
AcDb2dVertex
 10
22920.0
 20
-20208.0
 30
0.0
 70
0
  0
VERTEX
  5
BB
330
17
100
AcDbEntity
  8
0
100
AcDbVertex
100
AcDb2dVertex
 10
23920.0
 20
-20208.0
 30
0.0
 70
0
  0
VERTEX
  5
BC
330
17
100
AcDbEntity
  8
0
100
AcDbVertex
100
AcDb2dVertex
 10
23920.0
 20
-20208.0
 30
0.0
 70
0
  0
VERTEX
  5
BD
330
17
100
AcDbEntity
  8
0
100
AcDbVertex
100
AcDb2dVertex
 10
23920.0
 20
-23808.0
 30
0.0
 70
0
  0
VERTEX
  5
BE
330
17
100
AcDbEntity
  8
0
100
AcDbVertex
100
AcDb2dVertex
 10
23920.0
 20
-23808.0
 30
0.0
 70
0
  0
VERTEX
  5
BF
330
17
100
AcDbEntity
  8
0
100
AcDbVertex
100
AcDb2dVertex
 10
22920.0
 20
-23808.0
 30
0.0
 70
0
  0
VERTEX
  5
C0
330
17
100
AcDbEntity
  8
0
100
AcDbVertex
100
AcDb2dVertex
 10
22920.0
 20
-23808.0
 30
0.0
 70
0
  0
VERTEX
  5
C1
330
17
100
AcDbEntity
  8
0
100
AcDbVertex
100
AcDb2dVertex
 10
22920.0
 20
-20208.0
 30
0.0
 70
0
  0
SEQEND
  5
B7
330
17
100
AcDbEntity
  8
0
  0
POLYLINE
  5
C2
330
17
100
AcDbEntity
  8
0
100
AcDb2dPolyline
 66
1
 10
0.0
 20
0.0
 30
0.0
 70
1
  0
VERTEX
  5
C4
330
17
100
AcDbEntity
  8
0
100
AcDbVertex
100
AcDb2dVertex
 10
24220.0
 20
-20208.0
 30
0.0
 70
0
  0
VERTEX
  5
C5
330
17
100
AcDbEntity
  8
0
100
AcDbVertex
100
AcDb2dVertex
 10
24220.0
 20
-20208.0
 30
0.0
 70
0
  0
VERTEX
  5
C6
330
17
100
AcDbEntity
  8
0
100
AcDbVertex
100
AcDb2dVertex
 10
24220.0
 20
-20208.0
 30
0.0
 70
0
  0
VERTEX
  5
C7
330
17
100
AcDbEntity
  8
0
100
AcDbVertex
100
AcDb2dVertex
 10
25220.0
 20
-20208.0
 30
0.0
 70
0
  0
VERTEX
  5
C8
330
17
100
AcDbEntity
  8
0
100
AcDbVertex
100
AcDb2dVertex
 10
25220.0
 20
-20208.0
 30
0.0
 70
0
  0
VERTEX
  5
C9
330
17
100
AcDbEntity
  8
0
100
AcDbVertex
100
AcDb2dVertex
 10
25220.0
 20
-23808.0
 30
0.0
 70
0
  0
VERTEX
  5
CA
330
17
100
AcDbEntity
  8
0
100
AcDbVertex
100
AcDb2dVertex
 10
25220.0
 20
-23808.0
 30
0.0
 70
0
  0
VERTEX
  5
CB
330
17
100
AcDbEntity
  8
0
100
AcDbVertex
100
AcDb2dVertex
 10
24220.0
 20
-23808.0
 30
0.0
 70
0
  0
VERTEX
  5
CC
330
17
100
AcDbEntity
  8
0
100
AcDbVertex
100
AcDb2dVertex
 10
24220.0
 20
-23808.0
 30
0.0
 70
0
  0
VERTEX
  5
CD
330
17
100
AcDbEntity
  8
0
100
AcDbVertex
100
AcDb2dVertex
 10
24220.0
 20
-20208.0
 30
0.0
 70
0
  0
SEQEND
  5
C3
330
17
100
AcDbEntity
  8
0
  0
POLYLINE
  5
CE
330
17
100
AcDbEntity
  8
0
100
AcDb2dPolyline
 66
1
 10
0.0
 20
0.0
 30
0.0
 70
1
  0
VERTEX
  5
D0
330
17
100
AcDbEntity
  8
0
100
AcDbVertex
100
AcDb2dVertex
 10
25520.0
 20
-20208.0
 30
0.0
 70
0
  0
VERTEX
  5
D1
330
17
100
AcDbEntity
  8
0
100
AcDbVertex
100
AcDb2dVertex
 10
25520.0
 20
-20208.0
 30
0.0
 70
0
  0
VERTEX
  5
D2
330
17
100
AcDbEntity
  8
0
100
AcDbVertex
100
AcDb2dVertex
 10
25520.0
 20
-20208.0
 30
0.0
 70
0
  0
VERTEX
  5
D3
330
17
100
AcDbEntity
  8
0
100
AcDbVertex
100
AcDb2dVertex
 10
26520.0
 20
-20208.0
 30
0.0
 70
0
  0
VERTEX
  5
D4
330
17
100
AcDbEntity
  8
0
100
AcDbVertex
100
AcDb2dVertex
 10
26520.0
 20
-20208.0
 30
0.0
 70
0
  0
VERTEX
  5
D5
330
17
100
AcDbEntity
  8
0
100
AcDbVertex
100
AcDb2dVertex
 10
26520.0
 20
-23808.0
 30
0.0
 70
0
  0
VERTEX
  5
D6
330
17
100
AcDbEntity
  8
0
100
AcDbVertex
100
AcDb2dVertex
 10
26520.0
 20
-23808.0
 30
0.0
 70
0
  0
VERTEX
  5
D7
330
17
100
AcDbEntity
  8
0
100
AcDbVertex
100
AcDb2dVertex
 10
25520.0
 20
-23808.0
 30
0.0
 70
0
  0
VERTEX
  5
D8
330
17
100
AcDbEntity
  8
0
100
AcDbVertex
100
AcDb2dVertex
 10
25520.0
 20
-23808.0
 30
0.0
 70
0
  0
VERTEX
  5
D9
330
17
100
AcDbEntity
  8
0
100
AcDbVertex
100
AcDb2dVertex
 10
25520.0
 20
-20208.0
 30
0.0
 70
0
  0
SEQEND
  5
CF
330
17
100
AcDbEntity
  8
0
  0
POLYLINE
  5
DA
330
17
100
AcDbEntity
  8
0
100
AcDb2dPolyline
 66
1
 10
0.0
 20
0.0
 30
0.0
 70
1
  0
VERTEX
  5
DC
330
17
100
AcDbEntity
  8
0
100
AcDbVertex
100
AcDb2dVertex
 10
26820.0
 20
-20208.0
 30
0.0
 70
0
  0
VERTEX
  5
DD
330
17
100
AcDbEntity
  8
0
100
AcDbVertex
100
AcDb2dVertex
 10
26820.0
 20
-20208.0
 30
0.0
 70
0
  0
VERTEX
  5
DE
330
17
100
AcDbEntity
  8
0
100
AcDbVertex
100
AcDb2dVertex
 10
26820.0
 20
-20208.0
 30
0.0
 70
0
  0
VERTEX
  5
DF
330
17
100
AcDbEntity
  8
0
100
AcDbVertex
100
AcDb2dVertex
 10
27820.0
 20
-20208.0
 30
0.0
 70
0
  0
VERTEX
  5
E0
330
17
100
AcDbEntity
  8
0
100
AcDbVertex
100
AcDb2dVertex
 10
27820.0
 20
-20208.0
 30
0.0
 70
0
  0
VERTEX
  5
E1
330
17
100
AcDbEntity
  8
0
100
AcDbVertex
100
AcDb2dVertex
 10
27820.0
 20
-23808.0
 30
0.0
 70
0
  0
VERTEX
  5
E2
330
17
100
AcDbEntity
  8
0
100
AcDbVertex
100
AcDb2dVertex
 10
27820.0
 20
-23808.0
 30
0.0
 70
0
  0
VERTEX
  5
E3
330
17
100
AcDbEntity
  8
0
100
AcDbVertex
100
AcDb2dVertex
 10
26820.0
 20
-23808.0
 30
0.0
 70
0
  0
VERTEX
  5
E4
330
17
100
AcDbEntity
  8
0
100
AcDbVertex
100
AcDb2dVertex
 10
26820.0
 20
-23808.0
 30
0.0
 70
0
  0
VERTEX
  5
E5
330
17
100
AcDbEntity
  8
0
100
AcDbVertex
100
AcDb2dVertex
 10
26820.0
 20
-20208.0
 30
0.0
 70
0
  0
SEQEND
  5
DB
330
17
100
AcDbEntity
  8
0
  0
POLYLINE
  5
E6
330
17
100
AcDbEntity
  8
0
100
AcDb2dPolyline
 66
1
 10
0.0
 20
0.0
 30
0.0
 70
1
  0
VERTEX
  5
E8
330
17
100
AcDbEntity
  8
0
100
AcDbVertex
100
AcDb2dVertex
 10
28120.0
 20
-20208.0
 30
0.0
 70
0
  0
VERTEX
  5
E9
330
17
100
AcDbEntity
  8
0
100
AcDbVertex
100
AcDb2dVertex
 10
28120.0
 20
-20208.0
 30
0.0
 70
0
  0
VERTEX
  5
EA
330
17
100
AcDbEntity
  8
0
100
AcDbVertex
100
AcDb2dVertex
 10
28120.0
 20
-20208.0
 30
0.0
 70
0
  0
VERTEX
  5
EB
330
17
100
AcDbEntity
  8
0
100
AcDbVertex
100
AcDb2dVertex
 10
29120.0
 20
-20208.0
 30
0.0
 70
0
  0
VERTEX
  5
EC
330
17
100
AcDbEntity
  8
0
100
AcDbVertex
100
AcDb2dVertex
 10
29120.0
 20
-20208.0
 30
0.0
 70
0
  0
VERTEX
  5
ED
330
17
100
AcDbEntity
  8
0
100
AcDbVertex
100
AcDb2dVertex
 10
29120.0
 20
-23808.0
 30
0.0
 70
0
  0
VERTEX
  5
EE
330
17
100
AcDbEntity
  8
0
100
AcDbVertex
100
AcDb2dVertex
 10
29120.0
 20
-23808.0
 30
0.0
 70
0
  0
VERTEX
  5
EF
330
17
100
AcDbEntity
  8
0
100
AcDbVertex
100
AcDb2dVertex
 10
28120.0
 20
-23808.0
 30
0.0
 70
0
  0
VERTEX
  5
F0
330
17
100
AcDbEntity
  8
0
100
AcDbVertex
100
AcDb2dVertex
 10
28120.0
 20
-23808.0
 30
0.0
 70
0
  0
VERTEX
  5
F1
330
17
100
AcDbEntity
  8
0
100
AcDbVertex
100
AcDb2dVertex
 10
28120.0
 20
-20208.0
 30
0.0
 70
0
  0
SEQEND
  5
E7
330
17
100
AcDbEntity
  8
0
  0
POLYLINE
  5
F2
330
17
100
AcDbEntity
  8
0
100
AcDb2dPolyline
 66
1
 10
0.0
 20
0.0
 30
0.0
 70
1
  0
VERTEX
  5
F4
330
17
100
AcDbEntity
  8
0
100
AcDbVertex
100
AcDb2dVertex
 10
29420.0
 20
-20208.0
 30
0.0
 70
0
  0
VERTEX
  5
F5
330
17
100
AcDbEntity
  8
0
100
AcDbVertex
100
AcDb2dVertex
 10
29420.0
 20
-20208.0
 30
0.0
 70
0
  0
VERTEX
  5
F6
330
17
100
AcDbEntity
  8
0
100
AcDbVertex
100
AcDb2dVertex
 10
29420.0
 20
-20208.0
 30
0.0
 70
0
  0
VERTEX
  5
F7
330
17
100
AcDbEntity
  8
0
100
AcDbVertex
100
AcDb2dVertex
 10
30420.0
 20
-20208.0
 30
0.0
 70
0
  0
VERTEX
  5
F8
330
17
100
AcDbEntity
  8
0
100
AcDbVertex
100
AcDb2dVertex
 10
30420.0
 20
-20208.0
 30
0.0
 70
0
  0
VERTEX
  5
F9
330
17
100
AcDbEntity
  8
0
100
AcDbVertex
100
AcDb2dVertex
 10
30420.0
 20
-23808.0
 30
0.0
 70
0
  0
VERTEX
  5
FA
330
17
100
AcDbEntity
  8
0
100
AcDbVertex
100
AcDb2dVertex
 10
30420.0
 20
-23808.0
 30
0.0
 70
0
  0
VERTEX
  5
FB
330
17
100
AcDbEntity
  8
0
100
AcDbVertex
100
AcDb2dVertex
 10
29420.0
 20
-23808.0
 30
0.0
 70
0
  0
VERTEX
  5
FC
330
17
100
AcDbEntity
  8
0
100
AcDbVertex
100
AcDb2dVertex
 10
29420.0
 20
-23808.0
 30
0.0
 70
0
  0
VERTEX
  5
FD
330
17
100
AcDbEntity
  8
0
100
AcDbVertex
100
AcDb2dVertex
 10
29420.0
 20
-20208.0
 30
0.0
 70
0
  0
SEQEND
  5
F3
330
17
100
AcDbEntity
  8
0
  0
POLYLINE
  5
FE
330
17
100
AcDbEntity
  8
0
100
AcDb2dPolyline
 66
1
 10
0.0
 20
0.0
 30
0.0
 70
1
  0
VERTEX
  5
100
330
17
100
AcDbEntity
  8
0
100
AcDbVertex
100
AcDb2dVertex
 10
30720.0
 20
-20208.0
 30
0.0
 70
0
  0
VERTEX
  5
101
330
17
100
AcDbEntity
  8
0
100
AcDbVertex
100
AcDb2dVertex
 10
30720.0
 20
-20208.0
 30
0.0
 70
0
  0
VERTEX
  5
102
330
17
100
AcDbEntity
  8
0
100
AcDbVertex
100
AcDb2dVertex
 10
30720.0
 20
-20208.0
 30
0.0
 70
0
  0
VERTEX
  5
103
330
17
100
AcDbEntity
  8
0
100
AcDbVertex
100
AcDb2dVertex
 10
31720.0
 20
-20208.0
 30
0.0
 70
0
  0
VERTEX
  5
104
330
17
100
AcDbEntity
  8
0
100
AcDbVertex
100
AcDb2dVertex
 10
31720.0
 20
-20208.0
 30
0.0
 70
0
  0
VERTEX
  5
105
330
17
100
AcDbEntity
  8
0
100
AcDbVertex
100
AcDb2dVertex
 10
31720.0
 20
-23808.0
 30
0.0
 70
0
  0
VERTEX
  5
106
330
17
100
AcDbEntity
  8
0
100
AcDbVertex
100
AcDb2dVertex
 10
31720.0
 20
-23808.0
 30
0.0
 70
0
  0
VERTEX
  5
107
330
17
100
AcDbEntity
  8
0
100
AcDbVertex
100
AcDb2dVertex
 10
30720.0
 20
-23808.0
 30
0.0
 70
0
  0
VERTEX
  5
108
330
17
100
AcDbEntity
  8
0
100
AcDbVertex
100
AcDb2dVertex
 10
30720.0
 20
-23808.0
 30
0.0
 70
0
  0
VERTEX
  5
109
330
17
100
AcDbEntity
  8
0
100
AcDbVertex
100
AcDb2dVertex
 10
30720.0
 20
-20208.0
 30
0.0
 70
0
  0
SEQEND
  5
FF
330
17
100
AcDbEntity
  8
0
  0
POLYLINE
  5
10A
330
17
100
AcDbEntity
  8
0
100
AcDb2dPolyline
 66
1
 10
0.0
 20
0.0
 30
0.0
 70
1
  0
VERTEX
  5
10C
330
17
100
AcDbEntity
  8
0
100
AcDbVertex
100
AcDb2dVertex
 10
21620.0
 20
-24108.0
 30
0.0
 70
0
  0
VERTEX
  5
10D
330
17
100
AcDbEntity
  8
0
100
AcDbVertex
100
AcDb2dVertex
 10
21620.0
 20
-24108.0
 30
0.0
 70
0
  0
VERTEX
  5
10E
330
17
100
AcDbEntity
  8
0
100
AcDbVertex
100
AcDb2dVertex
 10
21620.0
 20
-24108.0
 30
0.0
 70
0
  0
VERTEX
  5
10F
330
17
100
AcDbEntity
  8
0
100
AcDbVertex
100
AcDb2dVertex
 10
25220.0
 20
-24108.0
 30
0.0
 70
0
  0
VERTEX
  5
110
330
17
100
AcDbEntity
  8
0
100
AcDbVertex
100
AcDb2dVertex
 10
25220.0
 20
-24108.0
 30
0.0
 70
0
  0
VERTEX
  5
111
330
17
100
AcDbEntity
  8
0
100
AcDbVertex
100
AcDb2dVertex
 10
25220.0
 20
-25108.0
 30
0.0
 70
0
  0
VERTEX
  5
112
330
17
100
AcDbEntity
  8
0
100
AcDbVertex
100
AcDb2dVertex
 10
25220.0
 20
-25108.0
 30
0.0
 70
0
  0
VERTEX
  5
113
330
17
100
AcDbEntity
  8
0
100
AcDbVertex
100
AcDb2dVertex
 10
21620.0
 20
-25108.0
 30
0.0
 70
0
  0
VERTEX
  5
114
330
17
100
AcDbEntity
  8
0
100
AcDbVertex
100
AcDb2dVertex
 10
21620.0
 20
-25108.0
 30
0.0
 70
0
  0
VERTEX
  5
115
330
17
100
AcDbEntity
  8
0
100
AcDbVertex
100
AcDb2dVertex
 10
21620.0
 20
-24108.0
 30
0.0
 70
0
  0
SEQEND
  5
10B
330
17
100
AcDbEntity
  8
0
  0
POLYLINE
  5
116
330
17
100
AcDbEntity
  8
0
100
AcDb2dPolyline
 66
1
 10
0.0
 20
0.0
 30
0.0
 70
1
  0
VERTEX
  5
118
330
17
100
AcDbEntity
  8
0
100
AcDbVertex
100
AcDb2dVertex
 10
21620.0
 20
-25408.0
 30
0.0
 70
0
  0
VERTEX
  5
119
330
17
100
AcDbEntity
  8
0
100
AcDbVertex
100
AcDb2dVertex
 10
21620.0
 20
-25408.0
 30
0.0
 70
0
  0
VERTEX
  5
11A
330
17
100
AcDbEntity
  8
0
100
AcDbVertex
100
AcDb2dVertex
 10
21620.0
 20
-25408.0
 30
0.0
 70
0
  0
VERTEX
  5
11B
330
17
100
AcDbEntity
  8
0
100
AcDbVertex
100
AcDb2dVertex
 10
25220.0
 20
-25408.0
 30
0.0
 70
0
  0
VERTEX
  5
11C
330
17
100
AcDbEntity
  8
0
100
AcDbVertex
100
AcDb2dVertex
 10
25220.0
 20
-25408.0
 30
0.0
 70
0
  0
VERTEX
  5
11D
330
17
100
AcDbEntity
  8
0
100
AcDbVertex
100
AcDb2dVertex
 10
25220.0
 20
-26408.0
 30
0.0
 70
0
  0
VERTEX
  5
11E
330
17
100
AcDbEntity
  8
0
100
AcDbVertex
100
AcDb2dVertex
 10
25220.0
 20
-26408.0
 30
0.0
 70
0
  0
VERTEX
  5
11F
330
17
100
AcDbEntity
  8
0
100
AcDbVertex
100
AcDb2dVertex
 10
21620.0
 20
-26408.0
 30
0.0
 70
0
  0
VERTEX
  5
120
330
17
100
AcDbEntity
  8
0
100
AcDbVertex
100
AcDb2dVertex
 10
21620.0
 20
-26408.0
 30
0.0
 70
0
  0
VERTEX
  5
121
330
17
100
AcDbEntity
  8
0
100
AcDbVertex
100
AcDb2dVertex
 10
21620.0
 20
-25408.0
 30
0.0
 70
0
  0
SEQEND
  5
117
330
17
100
AcDbEntity
  8
0
  0
POLYLINE
  5
122
330
17
100
AcDbEntity
  8
0
100
AcDb2dPolyline
 66
1
 10
0.0
 20
0.0
 30
0.0
 70
1
  0
VERTEX
  5
124
330
17
100
AcDbEntity
  8
0
100
AcDbVertex
100
AcDb2dVertex
 10
21620.0
 20
-26708.0
 30
0.0
 70
0
  0
VERTEX
  5
125
330
17
100
AcDbEntity
  8
0
100
AcDbVertex
100
AcDb2dVertex
 10
21620.0
 20
-26708.0
 30
0.0
 70
0
  0
VERTEX
  5
126
330
17
100
AcDbEntity
  8
0
100
AcDbVertex
100
AcDb2dVertex
 10
21620.0
 20
-26708.0
 30
0.0
 70
0
  0
VERTEX
  5
127
330
17
100
AcDbEntity
  8
0
100
AcDbVertex
100
AcDb2dVertex
 10
25220.0
 20
-26708.0
 30
0.0
 70
0
  0
VERTEX
  5
128
330
17
100
AcDbEntity
  8
0
100
AcDbVertex
100
AcDb2dVertex
 10
25220.0
 20
-26708.0
 30
0.0
 70
0
  0
VERTEX
  5
129
330
17
100
AcDbEntity
  8
0
100
AcDbVertex
100
AcDb2dVertex
 10
25220.0
 20
-27708.0
 30
0.0
 70
0
  0
VERTEX
  5
12A
330
17
100
AcDbEntity
  8
0
100
AcDbVertex
100
AcDb2dVertex
 10
25220.0
 20
-27708.0
 30
0.0
 70
0
  0
VERTEX
  5
12B
330
17
100
AcDbEntity
  8
0
100
AcDbVertex
100
AcDb2dVertex
 10
21620.0
 20
-27708.0
 30
0.0
 70
0
  0
VERTEX
  5
12C
330
17
100
AcDbEntity
  8
0
100
AcDbVertex
100
AcDb2dVertex
 10
21620.0
 20
-27708.0
 30
0.0
 70
0
  0
VERTEX
  5
12D
330
17
100
AcDbEntity
  8
0
100
AcDbVertex
100
AcDb2dVertex
 10
21620.0
 20
-26708.0
 30
0.0
 70
0
  0
SEQEND
  5
123
330
17
100
AcDbEntity
  8
0
  0
POLYLINE
  5
12E
330
17
100
AcDbEntity
  8
0
100
AcDb2dPolyline
 66
1
 10
0.0
 20
0.0
 30
0.0
 70
1
  0
VERTEX
  5
130
330
17
100
AcDbEntity
  8
0
100
AcDbVertex
100
AcDb2dVertex
 10
21620.0
 20
-28008.0
 30
0.0
 70
0
  0
VERTEX
  5
131
330
17
100
AcDbEntity
  8
0
100
AcDbVertex
100
AcDb2dVertex
 10
21620.0
 20
-28008.0
 30
0.0
 70
0
  0
VERTEX
  5
132
330
17
100
AcDbEntity
  8
0
100
AcDbVertex
100
AcDb2dVertex
 10
21620.0
 20
-28008.0
 30
0.0
 70
0
  0
VERTEX
  5
133
330
17
100
AcDbEntity
  8
0
100
AcDbVertex
100
AcDb2dVertex
 10
25220.0
 20
-28008.0
 30
0.0
 70
0
  0
VERTEX
  5
134
330
17
100
AcDbEntity
  8
0
100
AcDbVertex
100
AcDb2dVertex
 10
25220.0
 20
-28008.0
 30
0.0
 70
0
  0
VERTEX
  5
135
330
17
100
AcDbEntity
  8
0
100
AcDbVertex
100
AcDb2dVertex
 10
25220.0
 20
-29008.0
 30
0.0
 70
0
  0
VERTEX
  5
136
330
17
100
AcDbEntity
  8
0
100
AcDbVertex
100
AcDb2dVertex
 10
25220.0
 20
-29008.0
 30
0.0
 70
0
  0
VERTEX
  5
137
330
17
100
AcDbEntity
  8
0
100
AcDbVertex
100
AcDb2dVertex
 10
21620.0
 20
-29008.0
 30
0.0
 70
0
  0
VERTEX
  5
138
330
17
100
AcDbEntity
  8
0
100
AcDbVertex
100
AcDb2dVertex
 10
21620.0
 20
-29008.0
 30
0.0
 70
0
  0
VERTEX
  5
139
330
17
100
AcDbEntity
  8
0
100
AcDbVertex
100
AcDb2dVertex
 10
21620.0
 20
-28008.0
 30
0.0
 70
0
  0
SEQEND
  5
12F
330
17
100
AcDbEntity
  8
0
  0
POLYLINE
  5
13A
330
17
100
AcDbEntity
  8
0
100
AcDb2dPolyline
 66
1
 10
0.0
 20
0.0
 30
0.0
 70
1
  0
VERTEX
  5
13C
330
17
100
AcDbEntity
  8
0
100
AcDbVertex
100
AcDb2dVertex
 10
21620.0
 20
-29308.0
 30
0.0
 70
0
  0
VERTEX
  5
13D
330
17
100
AcDbEntity
  8
0
100
AcDbVertex
100
AcDb2dVertex
 10
21620.0
 20
-29308.0
 30
0.0
 70
0
  0
VERTEX
  5
13E
330
17
100
AcDbEntity
  8
0
100
AcDbVertex
100
AcDb2dVertex
 10
21620.0
 20
-29308.0
 30
0.0
 70
0
  0
VERTEX
  5
13F
330
17
100
AcDbEntity
  8
0
100
AcDbVertex
100
AcDb2dVertex
 10
25220.0
 20
-29308.0
 30
0.0
 70
0
  0
VERTEX
  5
140
330
17
100
AcDbEntity
  8
0
100
AcDbVertex
100
AcDb2dVertex
 10
25220.0
 20
-29308.0
 30
0.0
 70
0
  0
VERTEX
  5
141
330
17
100
AcDbEntity
  8
0
100
AcDbVertex
100
AcDb2dVertex
 10
25220.0
 20
-30308.0
 30
0.0
 70
0
  0
VERTEX
  5
142
330
17
100
AcDbEntity
  8
0
100
AcDbVertex
100
AcDb2dVertex
 10
25220.0
 20
-30308.0
 30
0.0
 70
0
  0
VERTEX
  5
143
330
17
100
AcDbEntity
  8
0
100
AcDbVertex
100
AcDb2dVertex
 10
21620.0
 20
-30308.0
 30
0.0
 70
0
  0
VERTEX
  5
144
330
17
100
AcDbEntity
  8
0
100
AcDbVertex
100
AcDb2dVertex
 10
21620.0
 20
-30308.0
 30
0.0
 70
0
  0
VERTEX
  5
145
330
17
100
AcDbEntity
  8
0
100
AcDbVertex
100
AcDb2dVertex
 10
21620.0
 20
-29308.0
 30
0.0
 70
0
  0
SEQEND
  5
13B
330
17
100
AcDbEntity
  8
0
  0
POLYLINE
  5
146
330
17
100
AcDbEntity
  8
0
100
AcDb2dPolyline
 66
1
 10
0.0
 20
0.0
 30
0.0
 70
1
  0
VERTEX
  5
148
330
17
100
AcDbEntity
  8
0
100
AcDbVertex
100
AcDb2dVertex
 10
21620.0
 20
-30608.0
 30
0.0
 70
0
  0
VERTEX
  5
149
330
17
100
AcDbEntity
  8
0
100
AcDbVertex
100
AcDb2dVertex
 10
21620.0
 20
-30608.0
 30
0.0
 70
0
  0
VERTEX
  5
14A
330
17
100
AcDbEntity
  8
0
100
AcDbVertex
100
AcDb2dVertex
 10
21620.0
 20
-30608.0
 30
0.0
 70
0
  0
VERTEX
  5
14B
330
17
100
AcDbEntity
  8
0
100
AcDbVertex
100
AcDb2dVertex
 10
25220.0
 20
-30608.0
 30
0.0
 70
0
  0
VERTEX
  5
14C
330
17
100
AcDbEntity
  8
0
100
AcDbVertex
100
AcDb2dVertex
 10
25220.0
 20
-30608.0
 30
0.0
 70
0
  0
VERTEX
  5
14D
330
17
100
AcDbEntity
  8
0
100
AcDbVertex
100
AcDb2dVertex
 10
25220.0
 20
-31608.0
 30
0.0
 70
0
  0
VERTEX
  5
14E
330
17
100
AcDbEntity
  8
0
100
AcDbVertex
100
AcDb2dVertex
 10
25220.0
 20
-31608.0
 30
0.0
 70
0
  0
VERTEX
  5
14F
330
17
100
AcDbEntity
  8
0
100
AcDbVertex
100
AcDb2dVertex
 10
21620.0
 20
-31608.0
 30
0.0
 70
0
  0
VERTEX
  5
150
330
17
100
AcDbEntity
  8
0
100
AcDbVertex
100
AcDb2dVertex
 10
21620.0
 20
-31608.0
 30
0.0
 70
0
  0
VERTEX
  5
151
330
17
100
AcDbEntity
  8
0
100
AcDbVertex
100
AcDb2dVertex
 10
21620.0
 20
-30608.0
 30
0.0
 70
0
  0
SEQEND
  5
147
330
17
100
AcDbEntity
  8
0
  0
POLYLINE
  5
152
330
17
100
AcDbEntity
  8
0
100
AcDb2dPolyline
 66
1
 10
0.0
 20
0.0
 30
0.0
 70
1
  0
VERTEX
  5
154
330
17
100
AcDbEntity
  8
0
100
AcDbVertex
100
AcDb2dVertex
 10
21620.0
 20
-31908.0
 30
0.0
 70
0
  0
VERTEX
  5
155
330
17
100
AcDbEntity
  8
0
100
AcDbVertex
100
AcDb2dVertex
 10
21620.0
 20
-31908.0
 30
0.0
 70
0
  0
VERTEX
  5
156
330
17
100
AcDbEntity
  8
0
100
AcDbVertex
100
AcDb2dVertex
 10
21620.0
 20
-31908.0
 30
0.0
 70
0
  0
VERTEX
  5
157
330
17
100
AcDbEntity
  8
0
100
AcDbVertex
100
AcDb2dVertex
 10
25220.0
 20
-31908.0
 30
0.0
 70
0
  0
VERTEX
  5
158
330
17
100
AcDbEntity
  8
0
100
AcDbVertex
100
AcDb2dVertex
 10
25220.0
 20
-31908.0
 30
0.0
 70
0
  0
VERTEX
  5
159
330
17
100
AcDbEntity
  8
0
100
AcDbVertex
100
AcDb2dVertex
 10
25220.0
 20
-32908.0
 30
0.0
 70
0
  0
VERTEX
  5
15A
330
17
100
AcDbEntity
  8
0
100
AcDbVertex
100
AcDb2dVertex
 10
25220.0
 20
-32908.0
 30
0.0
 70
0
  0
VERTEX
  5
15B
330
17
100
AcDbEntity
  8
0
100
AcDbVertex
100
AcDb2dVertex
 10
21620.0
 20
-32908.0
 30
0.0
 70
0
  0
VERTEX
  5
15C
330
17
100
AcDbEntity
  8
0
100
AcDbVertex
100
AcDb2dVertex
 10
21620.0
 20
-32908.0
 30
0.0
 70
0
  0
VERTEX
  5
15D
330
17
100
AcDbEntity
  8
0
100
AcDbVertex
100
AcDb2dVertex
 10
21620.0
 20
-31908.0
 30
0.0
 70
0
  0
SEQEND
  5
153
330
17
100
AcDbEntity
  8
0
  0
POLYLINE
  5
15E
330
17
100
AcDbEntity
  8
0
100
AcDb2dPolyline
 66
1
 10
0.0
 20
0.0
 30
0.0
 70
1
  0
VERTEX
  5
160
330
17
100
AcDbEntity
  8
0
100
AcDbVertex
100
AcDb2dVertex
 10
21620.0
 20
-33208.0
 30
0.0
 70
0
  0
VERTEX
  5
161
330
17
100
AcDbEntity
  8
0
100
AcDbVertex
100
AcDb2dVertex
 10
21620.0
 20
-33208.0
 30
0.0
 70
0
  0
VERTEX
  5
162
330
17
100
AcDbEntity
  8
0
100
AcDbVertex
100
AcDb2dVertex
 10
21620.0
 20
-33208.0
 30
0.0
 70
0
  0
VERTEX
  5
163
330
17
100
AcDbEntity
  8
0
100
AcDbVertex
100
AcDb2dVertex
 10
25220.0
 20
-33208.0
 30
0.0
 70
0
  0
VERTEX
  5
164
330
17
100
AcDbEntity
  8
0
100
AcDbVertex
100
AcDb2dVertex
 10
25220.0
 20
-33208.0
 30
0.0
 70
0
  0
VERTEX
  5
165
330
17
100
AcDbEntity
  8
0
100
AcDbVertex
100
AcDb2dVertex
 10
25220.0
 20
-34208.0
 30
0.0
 70
0
  0
VERTEX
  5
166
330
17
100
AcDbEntity
  8
0
100
AcDbVertex
100
AcDb2dVertex
 10
25220.0
 20
-34208.0
 30
0.0
 70
0
  0
VERTEX
  5
167
330
17
100
AcDbEntity
  8
0
100
AcDbVertex
100
AcDb2dVertex
 10
21620.0
 20
-34208.0
 30
0.0
 70
0
  0
VERTEX
  5
168
330
17
100
AcDbEntity
  8
0
100
AcDbVertex
100
AcDb2dVertex
 10
21620.0
 20
-34208.0
 30
0.0
 70
0
  0
VERTEX
  5
169
330
17
100
AcDbEntity
  8
0
100
AcDbVertex
100
AcDb2dVertex
 10
21620.0
 20
-33208.0
 30
0.0
 70
0
  0
SEQEND
  5
15F
330
17
100
AcDbEntity
  8
0
  0
POLYLINE
  5
16A
330
17
100
AcDbEntity
  8
0
100
AcDb2dPolyline
 66
1
 10
0.0
 20
0.0
 30
0.0
 70
1
  0
VERTEX
  5
16C
330
17
100
AcDbEntity
  8
0
100
AcDbVertex
100
AcDb2dVertex
 10
21620.0
 20
-34508.0
 30
0.0
 70
0
  0
VERTEX
  5
16D
330
17
100
AcDbEntity
  8
0
100
AcDbVertex
100
AcDb2dVertex
 10
21620.0
 20
-34508.0
 30
0.0
 70
0
  0
VERTEX
  5
16E
330
17
100
AcDbEntity
  8
0
100
AcDbVertex
100
AcDb2dVertex
 10
21620.0
 20
-34508.0
 30
0.0
 70
0
  0
VERTEX
  5
16F
330
17
100
AcDbEntity
  8
0
100
AcDbVertex
100
AcDb2dVertex
 10
25220.0
 20
-34508.0
 30
0.0
 70
0
  0
VERTEX
  5
170
330
17
100
AcDbEntity
  8
0
100
AcDbVertex
100
AcDb2dVertex
 10
25220.0
 20
-34508.0
 30
0.0
 70
0
  0
VERTEX
  5
171
330
17
100
AcDbEntity
  8
0
100
AcDbVertex
100
AcDb2dVertex
 10
25220.0
 20
-35508.0
 30
0.0
 70
0
  0
VERTEX
  5
172
330
17
100
AcDbEntity
  8
0
100
AcDbVertex
100
AcDb2dVertex
 10
25220.0
 20
-35508.0
 30
0.0
 70
0
  0
VERTEX
  5
173
330
17
100
AcDbEntity
  8
0
100
AcDbVertex
100
AcDb2dVertex
 10
21620.0
 20
-35508.0
 30
0.0
 70
0
  0
VERTEX
  5
174
330
17
100
AcDbEntity
  8
0
100
AcDbVertex
100
AcDb2dVertex
 10
21620.0
 20
-35508.0
 30
0.0
 70
0
  0
VERTEX
  5
175
330
17
100
AcDbEntity
  8
0
100
AcDbVertex
100
AcDb2dVertex
 10
21620.0
 20
-34508.0
 30
0.0
 70
0
  0
SEQEND
  5
16B
330
17
100
AcDbEntity
  8
0
  0
POLYLINE
  5
176
330
17
100
AcDbEntity
  8
0
100
AcDb2dPolyline
 66
1
 10
0.0
 20
0.0
 30
0.0
 70
1
  0
VERTEX
  5
178
330
17
100
AcDbEntity
  8
0
100
AcDbVertex
100
AcDb2dVertex
 10
21620.0
 20
-35808.0
 30
0.0
 70
0
  0
VERTEX
  5
179
330
17
100
AcDbEntity
  8
0
100
AcDbVertex
100
AcDb2dVertex
 10
21620.0
 20
-35808.0
 30
0.0
 70
0
  0
VERTEX
  5
17A
330
17
100
AcDbEntity
  8
0
100
AcDbVertex
100
AcDb2dVertex
 10
21620.0
 20
-35808.0
 30
0.0
 70
0
  0
VERTEX
  5
17B
330
17
100
AcDbEntity
  8
0
100
AcDbVertex
100
AcDb2dVertex
 10
25220.0
 20
-35808.0
 30
0.0
 70
0
  0
VERTEX
  5
17C
330
17
100
AcDbEntity
  8
0
100
AcDbVertex
100
AcDb2dVertex
 10
25220.0
 20
-35808.0
 30
0.0
 70
0
  0
VERTEX
  5
17D
330
17
100
AcDbEntity
  8
0
100
AcDbVertex
100
AcDb2dVertex
 10
25220.0
 20
-36808.0
 30
0.0
 70
0
  0
VERTEX
  5
17E
330
17
100
AcDbEntity
  8
0
100
AcDbVertex
100
AcDb2dVertex
 10
25220.0
 20
-36808.0
 30
0.0
 70
0
  0
VERTEX
  5
17F
330
17
100
AcDbEntity
  8
0
100
AcDbVertex
100
AcDb2dVertex
 10
21620.0
 20
-36808.0
 30
0.0
 70
0
  0
VERTEX
  5
180
330
17
100
AcDbEntity
  8
0
100
AcDbVertex
100
AcDb2dVertex
 10
21620.0
 20
-36808.0
 30
0.0
 70
0
  0
VERTEX
  5
181
330
17
100
AcDbEntity
  8
0
100
AcDbVertex
100
AcDb2dVertex
 10
21620.0
 20
-35808.0
 30
0.0
 70
0
  0
SEQEND
  5
177
330
17
100
AcDbEntity
  8
0
  0
POLYLINE
  5
182
330
17
100
AcDbEntity
  8
0
100
AcDb2dPolyline
 66
1
 10
0.0
 20
0.0
 30
0.0
 70
1
  0
VERTEX
  5
184
330
17
100
AcDbEntity
  8
0
100
AcDbVertex
100
AcDb2dVertex
 10
21620.0
 20
-37108.0
 30
0.0
 70
0
  0
VERTEX
  5
185
330
17
100
AcDbEntity
  8
0
100
AcDbVertex
100
AcDb2dVertex
 10
21620.0
 20
-37108.0
 30
0.0
 70
0
  0
VERTEX
  5
186
330
17
100
AcDbEntity
  8
0
100
AcDbVertex
100
AcDb2dVertex
 10
21620.0
 20
-37108.0
 30
0.0
 70
0
  0
VERTEX
  5
187
330
17
100
AcDbEntity
  8
0
100
AcDbVertex
100
AcDb2dVertex
 10
25220.0
 20
-37108.0
 30
0.0
 70
0
  0
VERTEX
  5
188
330
17
100
AcDbEntity
  8
0
100
AcDbVertex
100
AcDb2dVertex
 10
25220.0
 20
-37108.0
 30
0.0
 70
0
  0
VERTEX
  5
189
330
17
100
AcDbEntity
  8
0
100
AcDbVertex
100
AcDb2dVertex
 10
25220.0
 20
-38108.0
 30
0.0
 70
0
  0
VERTEX
  5
18A
330
17
100
AcDbEntity
  8
0
100
AcDbVertex
100
AcDb2dVertex
 10
25220.0
 20
-38108.0
 30
0.0
 70
0
  0
VERTEX
  5
18B
330
17
100
AcDbEntity
  8
0
100
AcDbVertex
100
AcDb2dVertex
 10
21620.0
 20
-38108.0
 30
0.0
 70
0
  0
VERTEX
  5
18C
330
17
100
AcDbEntity
  8
0
100
AcDbVertex
100
AcDb2dVertex
 10
21620.0
 20
-38108.0
 30
0.0
 70
0
  0
VERTEX
  5
18D
330
17
100
AcDbEntity
  8
0
100
AcDbVertex
100
AcDb2dVertex
 10
21620.0
 20
-37108.0
 30
0.0
 70
0
  0
SEQEND
  5
183
330
17
100
AcDbEntity
  8
0
  0
POLYLINE
  5
18E
330
17
100
AcDbEntity
  8
0
100
AcDb2dPolyline
 66
1
 10
0.0
 20
0.0
 30
0.0
 70
1
  0
VERTEX
  5
190
330
17
100
AcDbEntity
  8
0
100
AcDbVertex
100
AcDb2dVertex
 10
21620.0
 20
-38408.0
 30
0.0
 70
0
  0
VERTEX
  5
191
330
17
100
AcDbEntity
  8
0
100
AcDbVertex
100
AcDb2dVertex
 10
21620.0
 20
-38408.0
 30
0.0
 70
0
  0
VERTEX
  5
192
330
17
100
AcDbEntity
  8
0
100
AcDbVertex
100
AcDb2dVertex
 10
21620.0
 20
-38408.0
 30
0.0
 70
0
  0
VERTEX
  5
193
330
17
100
AcDbEntity
  8
0
100
AcDbVertex
100
AcDb2dVertex
 10
25220.0
 20
-38408.0
 30
0.0
 70
0
  0
VERTEX
  5
194
330
17
100
AcDbEntity
  8
0
100
AcDbVertex
100
AcDb2dVertex
 10
25220.0
 20
-38408.0
 30
0.0
 70
0
  0
VERTEX
  5
195
330
17
100
AcDbEntity
  8
0
100
AcDbVertex
100
AcDb2dVertex
 10
25220.0
 20
-39408.0
 30
0.0
 70
0
  0
VERTEX
  5
196
330
17
100
AcDbEntity
  8
0
100
AcDbVertex
100
AcDb2dVertex
 10
25220.0
 20
-39408.0
 30
0.0
 70
0
  0
VERTEX
  5
197
330
17
100
AcDbEntity
  8
0
100
AcDbVertex
100
AcDb2dVertex
 10
21620.0
 20
-39408.0
 30
0.0
 70
0
  0
VERTEX
  5
198
330
17
100
AcDbEntity
  8
0
100
AcDbVertex
100
AcDb2dVertex
 10
21620.0
 20
-39408.0
 30
0.0
 70
0
  0
VERTEX
  5
199
330
17
100
AcDbEntity
  8
0
100
AcDbVertex
100
AcDb2dVertex
 10
21620.0
 20
-38408.0
 30
0.0
 70
0
  0
SEQEND
  5
18F
330
17
100
AcDbEntity
  8
0
  0
POLYLINE
  5
19A
330
17
100
AcDbEntity
  8
0
100
AcDb2dPolyline
 66
1
 10
0.0
 20
0.0
 30
0.0
 70
1
  0
VERTEX
  5
19C
330
17
100
AcDbEntity
  8
0
100
AcDbVertex
100
AcDb2dVertex
 10
25520.0
 20
-29308.0
 30
0.0
 70
0
  0
VERTEX
  5
19D
330
17
100
AcDbEntity
  8
0
100
AcDbVertex
100
AcDb2dVertex
 10
25520.0
 20
-29308.0
 30
0.0
 70
0
  0
VERTEX
  5
19E
330
17
100
AcDbEntity
  8
0
100
AcDbVertex
100
AcDb2dVertex
 10
25520.0
 20
-29308.0
 30
0.0
 70
0
  0
VERTEX
  5
19F
330
17
100
AcDbEntity
  8
0
100
AcDbVertex
100
AcDb2dVertex
 10
26520.0
 20
-29308.0
 30
0.0
 70
0
  0
VERTEX
  5
1A0
330
17
100
AcDbEntity
  8
0
100
AcDbVertex
100
AcDb2dVertex
 10
26520.0
 20
-29308.0
 30
0.0
 70
0
  0
VERTEX
  5
1A1
330
17
100
AcDbEntity
  8
0
100
AcDbVertex
100
AcDb2dVertex
 10
26520.0
 20
-32908.0
 30
0.0
 70
0
  0
VERTEX
  5
1A2
330
17
100
AcDbEntity
  8
0
100
AcDbVertex
100
AcDb2dVertex
 10
26520.0
 20
-32908.0
 30
0.0
 70
0
  0
VERTEX
  5
1A3
330
17
100
AcDbEntity
  8
0
100
AcDbVertex
100
AcDb2dVertex
 10
25520.0
 20
-32908.0
 30
0.0
 70
0
  0
VERTEX
  5
1A4
330
17
100
AcDbEntity
  8
0
100
AcDbVertex
100
AcDb2dVertex
 10
25520.0
 20
-32908.0
 30
0.0
 70
0
  0
VERTEX
  5
1A5
330
17
100
AcDbEntity
  8
0
100
AcDbVertex
100
AcDb2dVertex
 10
25520.0
 20
-29308.0
 30
0.0
 70
0
  0
SEQEND
  5
19B
330
17
100
AcDbEntity
  8
0
  0
POLYLINE
  5
1A6
330
17
100
AcDbEntity
  8
0
100
AcDb2dPolyline
 66
1
 10
0.0
 20
0.0
 30
0.0
 70
1
  0
VERTEX
  5
1A8
330
17
100
AcDbEntity
  8
0
100
AcDbVertex
100
AcDb2dVertex
 10
26820.0
 20
-29308.0
 30
0.0
 70
0
  0
VERTEX
  5
1A9
330
17
100
AcDbEntity
  8
0
100
AcDbVertex
100
AcDb2dVertex
 10
26820.0
 20
-29308.0
 30
0.0
 70
0
  0
VERTEX
  5
1AA
330
17
100
AcDbEntity
  8
0
100
AcDbVertex
100
AcDb2dVertex
 10
26820.0
 20
-29308.0
 30
0.0
 70
0
  0
VERTEX
  5
1AB
330
17
100
AcDbEntity
  8
0
100
AcDbVertex
100
AcDb2dVertex
 10
27820.0
 20
-29308.0
 30
0.0
 70
0
  0
VERTEX
  5
1AC
330
17
100
AcDbEntity
  8
0
100
AcDbVertex
100
AcDb2dVertex
 10
27820.0
 20
-29308.0
 30
0.0
 70
0
  0
VERTEX
  5
1AD
330
17
100
AcDbEntity
  8
0
100
AcDbVertex
100
AcDb2dVertex
 10
27820.0
 20
-32908.0
 30
0.0
 70
0
  0
VERTEX
  5
1AE
330
17
100
AcDbEntity
  8
0
100
AcDbVertex
100
AcDb2dVertex
 10
27820.0
 20
-32908.0
 30
0.0
 70
0
  0
VERTEX
  5
1AF
330
17
100
AcDbEntity
  8
0
100
AcDbVertex
100
AcDb2dVertex
 10
26820.0
 20
-32908.0
 30
0.0
 70
0
  0
VERTEX
  5
1B0
330
17
100
AcDbEntity
  8
0
100
AcDbVertex
100
AcDb2dVertex
 10
26820.0
 20
-32908.0
 30
0.0
 70
0
  0
VERTEX
  5
1B1
330
17
100
AcDbEntity
  8
0
100
AcDbVertex
100
AcDb2dVertex
 10
26820.0
 20
-29308.0
 30
0.0
 70
0
  0
SEQEND
  5
1A7
330
17
100
AcDbEntity
  8
0
  0
POLYLINE
  5
1B2
330
17
100
AcDbEntity
  8
0
100
AcDb2dPolyline
 66
1
 10
0.0
 20
0.0
 30
0.0
 70
1
  0
VERTEX
  5
1B4
330
17
100
AcDbEntity
  8
0
100
AcDbVertex
100
AcDb2dVertex
 10
28120.0
 20
-29308.0
 30
0.0
 70
0
  0
VERTEX
  5
1B5
330
17
100
AcDbEntity
  8
0
100
AcDbVertex
100
AcDb2dVertex
 10
28120.0
 20
-29308.0
 30
0.0
 70
0
  0
VERTEX
  5
1B6
330
17
100
AcDbEntity
  8
0
100
AcDbVertex
100
AcDb2dVertex
 10
28120.0
 20
-29308.0
 30
0.0
 70
0
  0
VERTEX
  5
1B7
330
17
100
AcDbEntity
  8
0
100
AcDbVertex
100
AcDb2dVertex
 10
29120.0
 20
-29308.0
 30
0.0
 70
0
  0
VERTEX
  5
1B8
330
17
100
AcDbEntity
  8
0
100
AcDbVertex
100
AcDb2dVertex
 10
29120.0
 20
-29308.0
 30
0.0
 70
0
  0
VERTEX
  5
1B9
330
17
100
AcDbEntity
  8
0
100
AcDbVertex
100
AcDb2dVertex
 10
29120.0
 20
-32908.0
 30
0.0
 70
0
  0
VERTEX
  5
1BA
330
17
100
AcDbEntity
  8
0
100
AcDbVertex
100
AcDb2dVertex
 10
29120.0
 20
-32908.0
 30
0.0
 70
0
  0
VERTEX
  5
1BB
330
17
100
AcDbEntity
  8
0
100
AcDbVertex
100
AcDb2dVertex
 10
28120.0
 20
-32908.0
 30
0.0
 70
0
  0
VERTEX
  5
1BC
330
17
100
AcDbEntity
  8
0
100
AcDbVertex
100
AcDb2dVertex
 10
28120.0
 20
-32908.0
 30
0.0
 70
0
  0
VERTEX
  5
1BD
330
17
100
AcDbEntity
  8
0
100
AcDbVertex
100
AcDb2dVertex
 10
28120.0
 20
-29308.0
 30
0.0
 70
0
  0
SEQEND
  5
1B3
330
17
100
AcDbEntity
  8
0
  0
POLYLINE
  5
1BE
330
17
100
AcDbEntity
  8
0
100
AcDb2dPolyline
 66
1
 10
0.0
 20
0.0
 30
0.0
 70
1
  0
VERTEX
  5
1C0
330
17
100
AcDbEntity
  8
0
100
AcDbVertex
100
AcDb2dVertex
 10
29420.0
 20
-29308.0
 30
0.0
 70
0
  0
VERTEX
  5
1C1
330
17
100
AcDbEntity
  8
0
100
AcDbVertex
100
AcDb2dVertex
 10
29420.0
 20
-29308.0
 30
0.0
 70
0
  0
VERTEX
  5
1C2
330
17
100
AcDbEntity
  8
0
100
AcDbVertex
100
AcDb2dVertex
 10
29420.0
 20
-29308.0
 30
0.0
 70
0
  0
VERTEX
  5
1C3
330
17
100
AcDbEntity
  8
0
100
AcDbVertex
100
AcDb2dVertex
 10
30420.0
 20
-29308.0
 30
0.0
 70
0
  0
VERTEX
  5
1C4
330
17
100
AcDbEntity
  8
0
100
AcDbVertex
100
AcDb2dVertex
 10
30420.0
 20
-29308.0
 30
0.0
 70
0
  0
VERTEX
  5
1C5
330
17
100
AcDbEntity
  8
0
100
AcDbVertex
100
AcDb2dVertex
 10
30420.0
 20
-32908.0
 30
0.0
 70
0
  0
VERTEX
  5
1C6
330
17
100
AcDbEntity
  8
0
100
AcDbVertex
100
AcDb2dVertex
 10
30420.0
 20
-32908.0
 30
0.0
 70
0
  0
VERTEX
  5
1C7
330
17
100
AcDbEntity
  8
0
100
AcDbVertex
100
AcDb2dVertex
 10
29420.0
 20
-32908.0
 30
0.0
 70
0
  0
VERTEX
  5
1C8
330
17
100
AcDbEntity
  8
0
100
AcDbVertex
100
AcDb2dVertex
 10
29420.0
 20
-32908.0
 30
0.0
 70
0
  0
VERTEX
  5
1C9
330
17
100
AcDbEntity
  8
0
100
AcDbVertex
100
AcDb2dVertex
 10
29420.0
 20
-29308.0
 30
0.0
 70
0
  0
SEQEND
  5
1BF
330
17
100
AcDbEntity
  8
0
  0
POLYLINE
  5
1CA
330
17
100
AcDbEntity
  8
0
100
AcDb2dPolyline
 66
1
 10
0.0
 20
0.0
 30
0.0
 70
1
  0
VERTEX
  5
1CC
330
17
100
AcDbEntity
  8
0
100
AcDbVertex
100
AcDb2dVertex
 10
30720.0
 20
-29308.0
 30
0.0
 70
0
  0
VERTEX
  5
1CD
330
17
100
AcDbEntity
  8
0
100
AcDbVertex
100
AcDb2dVertex
 10
30720.0
 20
-29308.0
 30
0.0
 70
0
  0
VERTEX
  5
1CE
330
17
100
AcDbEntity
  8
0
100
AcDbVertex
100
AcDb2dVertex
 10
30720.0
 20
-29308.0
 30
0.0
 70
0
  0
VERTEX
  5
1CF
330
17
100
AcDbEntity
  8
0
100
AcDbVertex
100
AcDb2dVertex
 10
31720.0
 20
-29308.0
 30
0.0
 70
0
  0
VERTEX
  5
1D0
330
17
100
AcDbEntity
  8
0
100
AcDbVertex
100
AcDb2dVertex
 10
31720.0
 20
-29308.0
 30
0.0
 70
0
  0
VERTEX
  5
1D1
330
17
100
AcDbEntity
  8
0
100
AcDbVertex
100
AcDb2dVertex
 10
31720.0
 20
-32908.0
 30
0.0
 70
0
  0
VERTEX
  5
1D2
330
17
100
AcDbEntity
  8
0
100
AcDbVertex
100
AcDb2dVertex
 10
31720.0
 20
-32908.0
 30
0.0
 70
0
  0
VERTEX
  5
1D3
330
17
100
AcDbEntity
  8
0
100
AcDbVertex
100
AcDb2dVertex
 10
30720.0
 20
-32908.0
 30
0.0
 70
0
  0
VERTEX
  5
1D4
330
17
100
AcDbEntity
  8
0
100
AcDbVertex
100
AcDb2dVertex
 10
30720.0
 20
-32908.0
 30
0.0
 70
0
  0
VERTEX
  5
1D5
330
17
100
AcDbEntity
  8
0
100
AcDbVertex
100
AcDb2dVertex
 10
30720.0
 20
-29308.0
 30
0.0
 70
0
  0
SEQEND
  5
1CB
330
17
100
AcDbEntity
  8
0
  0
POLYLINE
  5
1D6
330
17
100
AcDbEntity
  8
0
100
AcDb2dPolyline
 66
1
 10
0.0
 20
0.0
 30
0.0
 70
1
  0
VERTEX
  5
1D8
330
17
100
AcDbEntity
  8
0
100
AcDbVertex
100
AcDb2dVertex
 10
32020.0
 20
-29308.0
 30
0.0
 70
0
  0
VERTEX
  5
1D9
330
17
100
AcDbEntity
  8
0
100
AcDbVertex
100
AcDb2dVertex
 10
32020.0
 20
-29308.0
 30
0.0
 70
0
  0
VERTEX
  5
1DA
330
17
100
AcDbEntity
  8
0
100
AcDbVertex
100
AcDb2dVertex
 10
32020.0
 20
-29308.0
 30
0.0
 70
0
  0
VERTEX
  5
1DB
330
17
100
AcDbEntity
  8
0
100
AcDbVertex
100
AcDb2dVertex
 10
33020.0
 20
-29308.0
 30
0.0
 70
0
  0
VERTEX
  5
1DC
330
17
100
AcDbEntity
  8
0
100
AcDbVertex
100
AcDb2dVertex
 10
33020.0
 20
-29308.0
 30
0.0
 70
0
  0
VERTEX
  5
1DD
330
17
100
AcDbEntity
  8
0
100
AcDbVertex
100
AcDb2dVertex
 10
33020.0
 20
-32908.0
 30
0.0
 70
0
  0
VERTEX
  5
1DE
330
17
100
AcDbEntity
  8
0
100
AcDbVertex
100
AcDb2dVertex
 10
33020.0
 20
-32908.0
 30
0.0
 70
0
  0
VERTEX
  5
1DF
330
17
100
AcDbEntity
  8
0
100
AcDbVertex
100
AcDb2dVertex
 10
32020.0
 20
-32908.0
 30
0.0
 70
0
  0
VERTEX
  5
1E0
330
17
100
AcDbEntity
  8
0
100
AcDbVertex
100
AcDb2dVertex
 10
32020.0
 20
-32908.0
 30
0.0
 70
0
  0
VERTEX
  5
1E1
330
17
100
AcDbEntity
  8
0
100
AcDbVertex
100
AcDb2dVertex
 10
32020.0
 20
-29308.0
 30
0.0
 70
0
  0
SEQEND
  5
1D7
330
17
100
AcDbEntity
  8
0
  0
POLYLINE
  5
1E2
330
17
100
AcDbEntity
  8
0
100
AcDb2dPolyline
 66
1
 10
0.0
 20
0.0
 30
0.0
 70
1
  0
VERTEX
  5
1E4
330
17
100
AcDbEntity
  8
0
100
AcDbVertex
100
AcDb2dVertex
 10
33320.0
 20
-29308.0
 30
0.0
 70
0
  0
VERTEX
  5
1E5
330
17
100
AcDbEntity
  8
0
100
AcDbVertex
100
AcDb2dVertex
 10
33320.0
 20
-29308.0
 30
0.0
 70
0
  0
VERTEX
  5
1E6
330
17
100
AcDbEntity
  8
0
100
AcDbVertex
100
AcDb2dVertex
 10
33320.0
 20
-29308.0
 30
0.0
 70
0
  0
VERTEX
  5
1E7
330
17
100
AcDbEntity
  8
0
100
AcDbVertex
100
AcDb2dVertex
 10
34320.0
 20
-29308.0
 30
0.0
 70
0
  0
VERTEX
  5
1E8
330
17
100
AcDbEntity
  8
0
100
AcDbVertex
100
AcDb2dVertex
 10
34320.0
 20
-29308.0
 30
0.0
 70
0
  0
VERTEX
  5
1E9
330
17
100
AcDbEntity
  8
0
100
AcDbVertex
100
AcDb2dVertex
 10
34320.0
 20
-32908.0
 30
0.0
 70
0
  0
VERTEX
  5
1EA
330
17
100
AcDbEntity
  8
0
100
AcDbVertex
100
AcDb2dVertex
 10
34320.0
 20
-32908.0
 30
0.0
 70
0
  0
VERTEX
  5
1EB
330
17
100
AcDbEntity
  8
0
100
AcDbVertex
100
AcDb2dVertex
 10
33320.0
 20
-32908.0
 30
0.0
 70
0
  0
VERTEX
  5
1EC
330
17
100
AcDbEntity
  8
0
100
AcDbVertex
100
AcDb2dVertex
 10
33320.0
 20
-32908.0
 30
0.0
 70
0
  0
VERTEX
  5
1ED
330
17
100
AcDbEntity
  8
0
100
AcDbVertex
100
AcDb2dVertex
 10
33320.0
 20
-29308.0
 30
0.0
 70
0
  0
SEQEND
  5
1E3
330
17
100
AcDbEntity
  8
0
  0
POLYLINE
  5
1EE
330
17
100
AcDbEntity
  8
0
100
AcDb2dPolyline
 66
1
 10
0.0
 20
0.0
 30
0.0
 70
1
  0
VERTEX
  5
1F0
330
17
100
AcDbEntity
  8
0
100
AcDbVertex
100
AcDb2dVertex
 10
34620.0
 20
-29308.0
 30
0.0
 70
0
  0
VERTEX
  5
1F1
330
17
100
AcDbEntity
  8
0
100
AcDbVertex
100
AcDb2dVertex
 10
34620.0
 20
-29308.0
 30
0.0
 70
0
  0
VERTEX
  5
1F2
330
17
100
AcDbEntity
  8
0
100
AcDbVertex
100
AcDb2dVertex
 10
34620.0
 20
-29308.0
 30
0.0
 70
0
  0
VERTEX
  5
1F3
330
17
100
AcDbEntity
  8
0
100
AcDbVertex
100
AcDb2dVertex
 10
35620.0
 20
-29308.0
 30
0.0
 70
0
  0
VERTEX
  5
1F4
330
17
100
AcDbEntity
  8
0
100
AcDbVertex
100
AcDb2dVertex
 10
35620.0
 20
-29308.0
 30
0.0
 70
0
  0
VERTEX
  5
1F5
330
17
100
AcDbEntity
  8
0
100
AcDbVertex
100
AcDb2dVertex
 10
35620.0
 20
-32908.0
 30
0.0
 70
0
  0
VERTEX
  5
1F6
330
17
100
AcDbEntity
  8
0
100
AcDbVertex
100
AcDb2dVertex
 10
35620.0
 20
-32908.0
 30
0.0
 70
0
  0
VERTEX
  5
1F7
330
17
100
AcDbEntity
  8
0
100
AcDbVertex
100
AcDb2dVertex
 10
34620.0
 20
-32908.0
 30
0.0
 70
0
  0
VERTEX
  5
1F8
330
17
100
AcDbEntity
  8
0
100
AcDbVertex
100
AcDb2dVertex
 10
34620.0
 20
-32908.0
 30
0.0
 70
0
  0
VERTEX
  5
1F9
330
17
100
AcDbEntity
  8
0
100
AcDbVertex
100
AcDb2dVertex
 10
34620.0
 20
-29308.0
 30
0.0
 70
0
  0
SEQEND
  5
1EF
330
17
100
AcDbEntity
  8
0
  0
POLYLINE
  5
1FA
330
17
100
AcDbEntity
  8
0
100
AcDb2dPolyline
 66
1
 10
0.0
 20
0.0
 30
0.0
 70
1
  0
VERTEX
  5
1FC
330
17
100
AcDbEntity
  8
0
100
AcDbVertex
100
AcDb2dVertex
 10
35920.0
 20
-29308.0
 30
0.0
 70
0
  0
VERTEX
  5
1FD
330
17
100
AcDbEntity
  8
0
100
AcDbVertex
100
AcDb2dVertex
 10
35920.0
 20
-29308.0
 30
0.0
 70
0
  0
VERTEX
  5
1FE
330
17
100
AcDbEntity
  8
0
100
AcDbVertex
100
AcDb2dVertex
 10
35920.0
 20
-29308.0
 30
0.0
 70
0
  0
VERTEX
  5
1FF
330
17
100
AcDbEntity
  8
0
100
AcDbVertex
100
AcDb2dVertex
 10
36920.0
 20
-29308.0
 30
0.0
 70
0
  0
VERTEX
  5
200
330
17
100
AcDbEntity
  8
0
100
AcDbVertex
100
AcDb2dVertex
 10
36920.0
 20
-29308.0
 30
0.0
 70
0
  0
VERTEX
  5
201
330
17
100
AcDbEntity
  8
0
100
AcDbVertex
100
AcDb2dVertex
 10
36920.0
 20
-32908.0
 30
0.0
 70
0
  0
VERTEX
  5
202
330
17
100
AcDbEntity
  8
0
100
AcDbVertex
100
AcDb2dVertex
 10
36920.0
 20
-32908.0
 30
0.0
 70
0
  0
VERTEX
  5
203
330
17
100
AcDbEntity
  8
0
100
AcDbVertex
100
AcDb2dVertex
 10
35920.0
 20
-32908.0
 30
0.0
 70
0
  0
VERTEX
  5
204
330
17
100
AcDbEntity
  8
0
100
AcDbVertex
100
AcDb2dVertex
 10
35920.0
 20
-32908.0
 30
0.0
 70
0
  0
VERTEX
  5
205
330
17
100
AcDbEntity
  8
0
100
AcDbVertex
100
AcDb2dVertex
 10
35920.0
 20
-29308.0
 30
0.0
 70
0
  0
SEQEND
  5
1FB
330
17
100
AcDbEntity
  8
0
  0
POLYLINE
  5
206
330
17
100
AcDbEntity
  8
0
100
AcDb2dPolyline
 66
1
 10
0.0
 20
0.0
 30
0.0
 70
1
  0
VERTEX
  5
208
330
17
100
AcDbEntity
  8
0
100
AcDbVertex
100
AcDb2dVertex
 10
37220.0
 20
-29308.0
 30
0.0
 70
0
  0
VERTEX
  5
209
330
17
100
AcDbEntity
  8
0
100
AcDbVertex
100
AcDb2dVertex
 10
37220.0
 20
-29308.0
 30
0.0
 70
0
  0
VERTEX
  5
20A
330
17
100
AcDbEntity
  8
0
100
AcDbVertex
100
AcDb2dVertex
 10
37220.0
 20
-29308.0
 30
0.0
 70
0
  0
VERTEX
  5
20B
330
17
100
AcDbEntity
  8
0
100
AcDbVertex
100
AcDb2dVertex
 10
38220.0
 20
-29308.0
 30
0.0
 70
0
  0
VERTEX
  5
20C
330
17
100
AcDbEntity
  8
0
100
AcDbVertex
100
AcDb2dVertex
 10
38220.0
 20
-29308.0
 30
0.0
 70
0
  0
VERTEX
  5
20D
330
17
100
AcDbEntity
  8
0
100
AcDbVertex
100
AcDb2dVertex
 10
38220.0
 20
-32908.0
 30
0.0
 70
0
  0
VERTEX
  5
20E
330
17
100
AcDbEntity
  8
0
100
AcDbVertex
100
AcDb2dVertex
 10
38220.0
 20
-32908.0
 30
0.0
 70
0
  0
VERTEX
  5
20F
330
17
100
AcDbEntity
  8
0
100
AcDbVertex
100
AcDb2dVertex
 10
37220.0
 20
-32908.0
 30
0.0
 70
0
  0
VERTEX
  5
210
330
17
100
AcDbEntity
  8
0
100
AcDbVertex
100
AcDb2dVertex
 10
37220.0
 20
-32908.0
 30
0.0
 70
0
  0
VERTEX
  5
211
330
17
100
AcDbEntity
  8
0
100
AcDbVertex
100
AcDb2dVertex
 10
37220.0
 20
-29308.0
 30
0.0
 70
0
  0
SEQEND
  5
207
330
17
100
AcDbEntity
  8
0
  0
POLYLINE
  5
212
330
17
100
AcDbEntity
  8
0
100
AcDb2dPolyline
 66
1
 10
0.0
 20
0.0
 30
0.0
 70
1
  0
VERTEX
  5
214
330
17
100
AcDbEntity
  8
0
100
AcDbVertex
100
AcDb2dVertex
 10
38520.0
 20
-29308.0
 30
0.0
 70
0
  0
VERTEX
  5
215
330
17
100
AcDbEntity
  8
0
100
AcDbVertex
100
AcDb2dVertex
 10
38520.0
 20
-29308.0
 30
0.0
 70
0
  0
VERTEX
  5
216
330
17
100
AcDbEntity
  8
0
100
AcDbVertex
100
AcDb2dVertex
 10
38520.0
 20
-29308.0
 30
0.0
 70
0
  0
VERTEX
  5
217
330
17
100
AcDbEntity
  8
0
100
AcDbVertex
100
AcDb2dVertex
 10
39520.0
 20
-29308.0
 30
0.0
 70
0
  0
VERTEX
  5
218
330
17
100
AcDbEntity
  8
0
100
AcDbVertex
100
AcDb2dVertex
 10
39520.0
 20
-29308.0
 30
0.0
 70
0
  0
VERTEX
  5
219
330
17
100
AcDbEntity
  8
0
100
AcDbVertex
100
AcDb2dVertex
 10
39520.0
 20
-32908.0
 30
0.0
 70
0
  0
VERTEX
  5
21A
330
17
100
AcDbEntity
  8
0
100
AcDbVertex
100
AcDb2dVertex
 10
39520.0
 20
-32908.0
 30
0.0
 70
0
  0
VERTEX
  5
21B
330
17
100
AcDbEntity
  8
0
100
AcDbVertex
100
AcDb2dVertex
 10
38520.0
 20
-32908.0
 30
0.0
 70
0
  0
VERTEX
  5
21C
330
17
100
AcDbEntity
  8
0
100
AcDbVertex
100
AcDb2dVertex
 10
38520.0
 20
-32908.0
 30
0.0
 70
0
  0
VERTEX
  5
21D
330
17
100
AcDbEntity
  8
0
100
AcDbVertex
100
AcDb2dVertex
 10
38520.0
 20
-29308.0
 30
0.0
 70
0
  0
SEQEND
  5
213
330
17
100
AcDbEntity
  8
0
  0
POLYLINE
  5
21E
330
17
100
AcDbEntity
  8
0
100
AcDb2dPolyline
 66
1
 10
0.0
 20
0.0
 30
0.0
 70
1
  0
VERTEX
  5
220
330
17
100
AcDbEntity
  8
0
100
AcDbVertex
100
AcDb2dVertex
 10
39820.0
 20
-29308.0
 30
0.0
 70
0
  0
VERTEX
  5
221
330
17
100
AcDbEntity
  8
0
100
AcDbVertex
100
AcDb2dVertex
 10
39820.0
 20
-29308.0
 30
0.0
 70
0
  0
VERTEX
  5
222
330
17
100
AcDbEntity
  8
0
100
AcDbVertex
100
AcDb2dVertex
 10
39820.0
 20
-29308.0
 30
0.0
 70
0
  0
VERTEX
  5
223
330
17
100
AcDbEntity
  8
0
100
AcDbVertex
100
AcDb2dVertex
 10
40820.0
 20
-29308.0
 30
0.0
 70
0
  0
VERTEX
  5
224
330
17
100
AcDbEntity
  8
0
100
AcDbVertex
100
AcDb2dVertex
 10
40820.0
 20
-29308.0
 30
0.0
 70
0
  0
VERTEX
  5
225
330
17
100
AcDbEntity
  8
0
100
AcDbVertex
100
AcDb2dVertex
 10
40820.0
 20
-32908.0
 30
0.0
 70
0
  0
VERTEX
  5
226
330
17
100
AcDbEntity
  8
0
100
AcDbVertex
100
AcDb2dVertex
 10
40820.0
 20
-32908.0
 30
0.0
 70
0
  0
VERTEX
  5
227
330
17
100
AcDbEntity
  8
0
100
AcDbVertex
100
AcDb2dVertex
 10
39820.0
 20
-32908.0
 30
0.0
 70
0
  0
VERTEX
  5
228
330
17
100
AcDbEntity
  8
0
100
AcDbVertex
100
AcDb2dVertex
 10
39820.0
 20
-32908.0
 30
0.0
 70
0
  0
VERTEX
  5
229
330
17
100
AcDbEntity
  8
0
100
AcDbVertex
100
AcDb2dVertex
 10
39820.0
 20
-29308.0
 30
0.0
 70
0
  0
SEQEND
  5
21F
330
17
100
AcDbEntity
  8
0
  0
POLYLINE
  5
22A
330
17
100
AcDbEntity
  8
0
100
AcDb2dPolyline
 66
1
 10
0.0
 20
0.0
 30
0.0
 70
1
  0
VERTEX
  5
22C
330
17
100
AcDbEntity
  8
0
100
AcDbVertex
100
AcDb2dVertex
 10
41120.0
 20
-29308.0
 30
0.0
 70
0
  0
VERTEX
  5
22D
330
17
100
AcDbEntity
  8
0
100
AcDbVertex
100
AcDb2dVertex
 10
41120.0
 20
-29308.0
 30
0.0
 70
0
  0
VERTEX
  5
22E
330
17
100
AcDbEntity
  8
0
100
AcDbVertex
100
AcDb2dVertex
 10
41120.0
 20
-29308.0
 30
0.0
 70
0
  0
VERTEX
  5
22F
330
17
100
AcDbEntity
  8
0
100
AcDbVertex
100
AcDb2dVertex
 10
42120.0
 20
-29308.0
 30
0.0
 70
0
  0
VERTEX
  5
230
330
17
100
AcDbEntity
  8
0
100
AcDbVertex
100
AcDb2dVertex
 10
42120.0
 20
-29308.0
 30
0.0
 70
0
  0
VERTEX
  5
231
330
17
100
AcDbEntity
  8
0
100
AcDbVertex
100
AcDb2dVertex
 10
42120.0
 20
-32908.0
 30
0.0
 70
0
  0
VERTEX
  5
232
330
17
100
AcDbEntity
  8
0
100
AcDbVertex
100
AcDb2dVertex
 10
42120.0
 20
-32908.0
 30
0.0
 70
0
  0
VERTEX
  5
233
330
17
100
AcDbEntity
  8
0
100
AcDbVertex
100
AcDb2dVertex
 10
41120.0
 20
-32908.0
 30
0.0
 70
0
  0
VERTEX
  5
234
330
17
100
AcDbEntity
  8
0
100
AcDbVertex
100
AcDb2dVertex
 10
41120.0
 20
-32908.0
 30
0.0
 70
0
  0
VERTEX
  5
235
330
17
100
AcDbEntity
  8
0
100
AcDbVertex
100
AcDb2dVertex
 10
41120.0
 20
-29308.0
 30
0.0
 70
0
  0
SEQEND
  5
22B
330
17
100
AcDbEntity
  8
0
  0
POLYLINE
  5
236
330
17
100
AcDbEntity
  8
0
100
AcDb2dPolyline
 66
1
 10
0.0
 20
0.0
 30
0.0
 70
1
  0
VERTEX
  5
238
330
17
100
AcDbEntity
  8
0
100
AcDbVertex
100
AcDb2dVertex
 10
32020.0
 20
-13708.0
 30
0.0
 70
0
  0
VERTEX
  5
239
330
17
100
AcDbEntity
  8
0
100
AcDbVertex
100
AcDb2dVertex
 10
32020.0
 20
-13708.0
 30
0.0
 70
0
  0
VERTEX
  5
23A
330
17
100
AcDbEntity
  8
0
100
AcDbVertex
100
AcDb2dVertex
 10
32020.0
 20
-13708.0
 30
0.0
 70
0
  0
VERTEX
  5
23B
330
17
100
AcDbEntity
  8
0
100
AcDbVertex
100
AcDb2dVertex
 10
35620.0
 20
-13708.0
 30
0.0
 70
0
  0
VERTEX
  5
23C
330
17
100
AcDbEntity
  8
0
100
AcDbVertex
100
AcDb2dVertex
 10
35620.0
 20
-13708.0
 30
0.0
 70
0
  0
VERTEX
  5
23D
330
17
100
AcDbEntity
  8
0
100
AcDbVertex
100
AcDb2dVertex
 10
35620.0
 20
-14708.0
 30
0.0
 70
0
  0
VERTEX
  5
23E
330
17
100
AcDbEntity
  8
0
100
AcDbVertex
100
AcDb2dVertex
 10
35620.0
 20
-14708.0
 30
0.0
 70
0
  0
VERTEX
  5
23F
330
17
100
AcDbEntity
  8
0
100
AcDbVertex
100
AcDb2dVertex
 10
32020.0
 20
-14708.0
 30
0.0
 70
0
  0
VERTEX
  5
240
330
17
100
AcDbEntity
  8
0
100
AcDbVertex
100
AcDb2dVertex
 10
32020.0
 20
-14708.0
 30
0.0
 70
0
  0
VERTEX
  5
241
330
17
100
AcDbEntity
  8
0
100
AcDbVertex
100
AcDb2dVertex
 10
32020.0
 20
-13708.0
 30
0.0
 70
0
  0
SEQEND
  5
237
330
17
100
AcDbEntity
  8
0
  0
POLYLINE
  5
242
330
17
100
AcDbEntity
  8
0
100
AcDb2dPolyline
 66
1
 10
0.0
 20
0.0
 30
0.0
 70
1
  0
VERTEX
  5
244
330
17
100
AcDbEntity
  8
0
100
AcDbVertex
100
AcDb2dVertex
 10
32020.0
 20
-15008.0
 30
0.0
 70
0
  0
VERTEX
  5
245
330
17
100
AcDbEntity
  8
0
100
AcDbVertex
100
AcDb2dVertex
 10
32020.0
 20
-15008.0
 30
0.0
 70
0
  0
VERTEX
  5
246
330
17
100
AcDbEntity
  8
0
100
AcDbVertex
100
AcDb2dVertex
 10
32020.0
 20
-15008.0
 30
0.0
 70
0
  0
VERTEX
  5
247
330
17
100
AcDbEntity
  8
0
100
AcDbVertex
100
AcDb2dVertex
 10
35620.0
 20
-15008.0
 30
0.0
 70
0
  0
VERTEX
  5
248
330
17
100
AcDbEntity
  8
0
100
AcDbVertex
100
AcDb2dVertex
 10
35620.0
 20
-15008.0
 30
0.0
 70
0
  0
VERTEX
  5
249
330
17
100
AcDbEntity
  8
0
100
AcDbVertex
100
AcDb2dVertex
 10
35620.0
 20
-16008.0
 30
0.0
 70
0
  0
VERTEX
  5
24A
330
17
100
AcDbEntity
  8
0
100
AcDbVertex
100
AcDb2dVertex
 10
35620.0
 20
-16008.0
 30
0.0
 70
0
  0
VERTEX
  5
24B
330
17
100
AcDbEntity
  8
0
100
AcDbVertex
100
AcDb2dVertex
 10
32020.0
 20
-16008.0
 30
0.0
 70
0
  0
VERTEX
  5
24C
330
17
100
AcDbEntity
  8
0
100
AcDbVertex
100
AcDb2dVertex
 10
32020.0
 20
-16008.0
 30
0.0
 70
0
  0
VERTEX
  5
24D
330
17
100
AcDbEntity
  8
0
100
AcDbVertex
100
AcDb2dVertex
 10
32020.0
 20
-15008.0
 30
0.0
 70
0
  0
SEQEND
  5
243
330
17
100
AcDbEntity
  8
0
  0
POLYLINE
  5
24E
330
17
100
AcDbEntity
  8
0
100
AcDb2dPolyline
 66
1
 10
0.0
 20
0.0
 30
0.0
 70
1
  0
VERTEX
  5
250
330
17
100
AcDbEntity
  8
0
100
AcDbVertex
100
AcDb2dVertex
 10
32020.0
 20
-16308.0
 30
0.0
 70
0
  0
VERTEX
  5
251
330
17
100
AcDbEntity
  8
0
100
AcDbVertex
100
AcDb2dVertex
 10
32020.0
 20
-16308.0
 30
0.0
 70
0
  0
VERTEX
  5
252
330
17
100
AcDbEntity
  8
0
100
AcDbVertex
100
AcDb2dVertex
 10
32020.0
 20
-16308.0
 30
0.0
 70
0
  0
VERTEX
  5
253
330
17
100
AcDbEntity
  8
0
100
AcDbVertex
100
AcDb2dVertex
 10
35620.0
 20
-16308.0
 30
0.0
 70
0
  0
VERTEX
  5
254
330
17
100
AcDbEntity
  8
0
100
AcDbVertex
100
AcDb2dVertex
 10
35620.0
 20
-16308.0
 30
0.0
 70
0
  0
VERTEX
  5
255
330
17
100
AcDbEntity
  8
0
100
AcDbVertex
100
AcDb2dVertex
 10
35620.0
 20
-17308.0
 30
0.0
 70
0
  0
VERTEX
  5
256
330
17
100
AcDbEntity
  8
0
100
AcDbVertex
100
AcDb2dVertex
 10
35620.0
 20
-17308.0
 30
0.0
 70
0
  0
VERTEX
  5
257
330
17
100
AcDbEntity
  8
0
100
AcDbVertex
100
AcDb2dVertex
 10
32020.0
 20
-17308.0
 30
0.0
 70
0
  0
VERTEX
  5
258
330
17
100
AcDbEntity
  8
0
100
AcDbVertex
100
AcDb2dVertex
 10
32020.0
 20
-17308.0
 30
0.0
 70
0
  0
VERTEX
  5
259
330
17
100
AcDbEntity
  8
0
100
AcDbVertex
100
AcDb2dVertex
 10
32020.0
 20
-16308.0
 30
0.0
 70
0
  0
SEQEND
  5
24F
330
17
100
AcDbEntity
  8
0
  0
POLYLINE
  5
25A
330
17
100
AcDbEntity
  8
0
100
AcDb2dPolyline
 66
1
 10
0.0
 20
0.0
 30
0.0
 70
1
  0
VERTEX
  5
25C
330
17
100
AcDbEntity
  8
0
100
AcDbVertex
100
AcDb2dVertex
 10
32020.0
 20
-17608.0
 30
0.0
 70
0
  0
VERTEX
  5
25D
330
17
100
AcDbEntity
  8
0
100
AcDbVertex
100
AcDb2dVertex
 10
32020.0
 20
-17608.0
 30
0.0
 70
0
  0
VERTEX
  5
25E
330
17
100
AcDbEntity
  8
0
100
AcDbVertex
100
AcDb2dVertex
 10
32020.0
 20
-17608.0
 30
0.0
 70
0
  0
VERTEX
  5
25F
330
17
100
AcDbEntity
  8
0
100
AcDbVertex
100
AcDb2dVertex
 10
35620.0
 20
-17608.0
 30
0.0
 70
0
  0
VERTEX
  5
260
330
17
100
AcDbEntity
  8
0
100
AcDbVertex
100
AcDb2dVertex
 10
35620.0
 20
-17608.0
 30
0.0
 70
0
  0
VERTEX
  5
261
330
17
100
AcDbEntity
  8
0
100
AcDbVertex
100
AcDb2dVertex
 10
35620.0
 20
-18608.0
 30
0.0
 70
0
  0
VERTEX
  5
262
330
17
100
AcDbEntity
  8
0
100
AcDbVertex
100
AcDb2dVertex
 10
35620.0
 20
-18608.0
 30
0.0
 70
0
  0
VERTEX
  5
263
330
17
100
AcDbEntity
  8
0
100
AcDbVertex
100
AcDb2dVertex
 10
32020.0
 20
-18608.0
 30
0.0
 70
0
  0
VERTEX
  5
264
330
17
100
AcDbEntity
  8
0
100
AcDbVertex
100
AcDb2dVertex
 10
32020.0
 20
-18608.0
 30
0.0
 70
0
  0
VERTEX
  5
265
330
17
100
AcDbEntity
  8
0
100
AcDbVertex
100
AcDb2dVertex
 10
32020.0
 20
-17608.0
 30
0.0
 70
0
  0
SEQEND
  5
25B
330
17
100
AcDbEntity
  8
0
  0
POLYLINE
  5
266
330
17
100
AcDbEntity
  8
0
100
AcDb2dPolyline
 66
1
 10
0.0
 20
0.0
 30
0.0
 70
1
  0
VERTEX
  5
268
330
17
100
AcDbEntity
  8
0
100
AcDbVertex
100
AcDb2dVertex
 10
32020.0
 20
-18908.0
 30
0.0
 70
0
  0
VERTEX
  5
269
330
17
100
AcDbEntity
  8
0
100
AcDbVertex
100
AcDb2dVertex
 10
32020.0
 20
-18908.0
 30
0.0
 70
0
  0
VERTEX
  5
26A
330
17
100
AcDbEntity
  8
0
100
AcDbVertex
100
AcDb2dVertex
 10
32020.0
 20
-18908.0
 30
0.0
 70
0
  0
VERTEX
  5
26B
330
17
100
AcDbEntity
  8
0
100
AcDbVertex
100
AcDb2dVertex
 10
35620.0
 20
-18908.0
 30
0.0
 70
0
  0
VERTEX
  5
26C
330
17
100
AcDbEntity
  8
0
100
AcDbVertex
100
AcDb2dVertex
 10
35620.0
 20
-18908.0
 30
0.0
 70
0
  0
VERTEX
  5
26D
330
17
100
AcDbEntity
  8
0
100
AcDbVertex
100
AcDb2dVertex
 10
35620.0
 20
-19908.0
 30
0.0
 70
0
  0
VERTEX
  5
26E
330
17
100
AcDbEntity
  8
0
100
AcDbVertex
100
AcDb2dVertex
 10
35620.0
 20
-19908.0
 30
0.0
 70
0
  0
VERTEX
  5
26F
330
17
100
AcDbEntity
  8
0
100
AcDbVertex
100
AcDb2dVertex
 10
32020.0
 20
-19908.0
 30
0.0
 70
0
  0
VERTEX
  5
270
330
17
100
AcDbEntity
  8
0
100
AcDbVertex
100
AcDb2dVertex
 10
32020.0
 20
-19908.0
 30
0.0
 70
0
  0
VERTEX
  5
271
330
17
100
AcDbEntity
  8
0
100
AcDbVertex
100
AcDb2dVertex
 10
32020.0
 20
-18908.0
 30
0.0
 70
0
  0
SEQEND
  5
267
330
17
100
AcDbEntity
  8
0
  0
POLYLINE
  5
272
330
17
100
AcDbEntity
  8
0
100
AcDb2dPolyline
 66
1
 10
0.0
 20
0.0
 30
0.0
 70
1
  0
VERTEX
  5
274
330
17
100
AcDbEntity
  8
0
100
AcDbVertex
100
AcDb2dVertex
 10
32020.0
 20
-20208.0
 30
0.0
 70
0
  0
VERTEX
  5
275
330
17
100
AcDbEntity
  8
0
100
AcDbVertex
100
AcDb2dVertex
 10
32020.0
 20
-20208.0
 30
0.0
 70
0
  0
VERTEX
  5
276
330
17
100
AcDbEntity
  8
0
100
AcDbVertex
100
AcDb2dVertex
 10
32020.0
 20
-20208.0
 30
0.0
 70
0
  0
VERTEX
  5
277
330
17
100
AcDbEntity
  8
0
100
AcDbVertex
100
AcDb2dVertex
 10
35620.0
 20
-20208.0
 30
0.0
 70
0
  0
VERTEX
  5
278
330
17
100
AcDbEntity
  8
0
100
AcDbVertex
100
AcDb2dVertex
 10
35620.0
 20
-20208.0
 30
0.0
 70
0
  0
VERTEX
  5
279
330
17
100
AcDbEntity
  8
0
100
AcDbVertex
100
AcDb2dVertex
 10
35620.0
 20
-21208.0
 30
0.0
 70
0
  0
VERTEX
  5
27A
330
17
100
AcDbEntity
  8
0
100
AcDbVertex
100
AcDb2dVertex
 10
35620.0
 20
-21208.0
 30
0.0
 70
0
  0
VERTEX
  5
27B
330
17
100
AcDbEntity
  8
0
100
AcDbVertex
100
AcDb2dVertex
 10
32020.0
 20
-21208.0
 30
0.0
 70
0
  0
VERTEX
  5
27C
330
17
100
AcDbEntity
  8
0
100
AcDbVertex
100
AcDb2dVertex
 10
32020.0
 20
-21208.0
 30
0.0
 70
0
  0
VERTEX
  5
27D
330
17
100
AcDbEntity
  8
0
100
AcDbVertex
100
AcDb2dVertex
 10
32020.0
 20
-20208.0
 30
0.0
 70
0
  0
SEQEND
  5
273
330
17
100
AcDbEntity
  8
0
  0
POLYLINE
  5
27E
330
17
100
AcDbEntity
  8
0
100
AcDb2dPolyline
 66
1
 10
0.0
 20
0.0
 30
0.0
 70
1
  0
VERTEX
  5
280
330
17
100
AcDbEntity
  8
0
100
AcDbVertex
100
AcDb2dVertex
 10
32020.0
 20
-21508.0
 30
0.0
 70
0
  0
VERTEX
  5
281
330
17
100
AcDbEntity
  8
0
100
AcDbVertex
100
AcDb2dVertex
 10
32020.0
 20
-21508.0
 30
0.0
 70
0
  0
VERTEX
  5
282
330
17
100
AcDbEntity
  8
0
100
AcDbVertex
100
AcDb2dVertex
 10
32020.0
 20
-21508.0
 30
0.0
 70
0
  0
VERTEX
  5
283
330
17
100
AcDbEntity
  8
0
100
AcDbVertex
100
AcDb2dVertex
 10
35620.0
 20
-21508.0
 30
0.0
 70
0
  0
VERTEX
  5
284
330
17
100
AcDbEntity
  8
0
100
AcDbVertex
100
AcDb2dVertex
 10
35620.0
 20
-21508.0
 30
0.0
 70
0
  0
VERTEX
  5
285
330
17
100
AcDbEntity
  8
0
100
AcDbVertex
100
AcDb2dVertex
 10
35620.0
 20
-22508.0
 30
0.0
 70
0
  0
VERTEX
  5
286
330
17
100
AcDbEntity
  8
0
100
AcDbVertex
100
AcDb2dVertex
 10
35620.0
 20
-22508.0
 30
0.0
 70
0
  0
VERTEX
  5
287
330
17
100
AcDbEntity
  8
0
100
AcDbVertex
100
AcDb2dVertex
 10
32020.0
 20
-22508.0
 30
0.0
 70
0
  0
VERTEX
  5
288
330
17
100
AcDbEntity
  8
0
100
AcDbVertex
100
AcDb2dVertex
 10
32020.0
 20
-22508.0
 30
0.0
 70
0
  0
VERTEX
  5
289
330
17
100
AcDbEntity
  8
0
100
AcDbVertex
100
AcDb2dVertex
 10
32020.0
 20
-21508.0
 30
0.0
 70
0
  0
SEQEND
  5
27F
330
17
100
AcDbEntity
  8
0
  0
POLYLINE
  5
28A
330
17
100
AcDbEntity
  8
0
100
AcDb2dPolyline
 66
1
 10
0.0
 20
0.0
 30
0.0
 70
1
  0
VERTEX
  5
28C
330
17
100
AcDbEntity
  8
0
100
AcDbVertex
100
AcDb2dVertex
 10
32020.0
 20
-22808.0
 30
0.0
 70
0
  0
VERTEX
  5
28D
330
17
100
AcDbEntity
  8
0
100
AcDbVertex
100
AcDb2dVertex
 10
32020.0
 20
-22808.0
 30
0.0
 70
0
  0
VERTEX
  5
28E
330
17
100
AcDbEntity
  8
0
100
AcDbVertex
100
AcDb2dVertex
 10
32020.0
 20
-22808.0
 30
0.0
 70
0
  0
VERTEX
  5
28F
330
17
100
AcDbEntity
  8
0
100
AcDbVertex
100
AcDb2dVertex
 10
35620.0
 20
-22808.0
 30
0.0
 70
0
  0
VERTEX
  5
290
330
17
100
AcDbEntity
  8
0
100
AcDbVertex
100
AcDb2dVertex
 10
35620.0
 20
-22808.0
 30
0.0
 70
0
  0
VERTEX
  5
291
330
17
100
AcDbEntity
  8
0
100
AcDbVertex
100
AcDb2dVertex
 10
35620.0
 20
-23808.0
 30
0.0
 70
0
  0
VERTEX
  5
292
330
17
100
AcDbEntity
  8
0
100
AcDbVertex
100
AcDb2dVertex
 10
35620.0
 20
-23808.0
 30
0.0
 70
0
  0
VERTEX
  5
293
330
17
100
AcDbEntity
  8
0
100
AcDbVertex
100
AcDb2dVertex
 10
32020.0
 20
-23808.0
 30
0.0
 70
0
  0
VERTEX
  5
294
330
17
100
AcDbEntity
  8
0
100
AcDbVertex
100
AcDb2dVertex
 10
32020.0
 20
-23808.0
 30
0.0
 70
0
  0
VERTEX
  5
295
330
17
100
AcDbEntity
  8
0
100
AcDbVertex
100
AcDb2dVertex
 10
32020.0
 20
-22808.0
 30
0.0
 70
0
  0
SEQEND
  5
28B
330
17
100
AcDbEntity
  8
0
  0
POLYLINE
  5
296
330
17
100
AcDbEntity
  8
0
100
AcDb2dPolyline
 66
1
 10
0.0
 20
0.0
 30
0.0
 70
1
  0
VERTEX
  5
298
330
17
100
AcDbEntity
  8
0
100
AcDbVertex
100
AcDb2dVertex
 10
32020.0
 20
-24108.0
 30
0.0
 70
0
  0
VERTEX
  5
299
330
17
100
AcDbEntity
  8
0
100
AcDbVertex
100
AcDb2dVertex
 10
32020.0
 20
-24108.0
 30
0.0
 70
0
  0
VERTEX
  5
29A
330
17
100
AcDbEntity
  8
0
100
AcDbVertex
100
AcDb2dVertex
 10
32020.0
 20
-24108.0
 30
0.0
 70
0
  0
VERTEX
  5
29B
330
17
100
AcDbEntity
  8
0
100
AcDbVertex
100
AcDb2dVertex
 10
35620.0
 20
-24108.0
 30
0.0
 70
0
  0
VERTEX
  5
29C
330
17
100
AcDbEntity
  8
0
100
AcDbVertex
100
AcDb2dVertex
 10
35620.0
 20
-24108.0
 30
0.0
 70
0
  0
VERTEX
  5
29D
330
17
100
AcDbEntity
  8
0
100
AcDbVertex
100
AcDb2dVertex
 10
35620.0
 20
-25108.0
 30
0.0
 70
0
  0
VERTEX
  5
29E
330
17
100
AcDbEntity
  8
0
100
AcDbVertex
100
AcDb2dVertex
 10
35620.0
 20
-25108.0
 30
0.0
 70
0
  0
VERTEX
  5
29F
330
17
100
AcDbEntity
  8
0
100
AcDbVertex
100
AcDb2dVertex
 10
32020.0
 20
-25108.0
 30
0.0
 70
0
  0
VERTEX
  5
2A0
330
17
100
AcDbEntity
  8
0
100
AcDbVertex
100
AcDb2dVertex
 10
32020.0
 20
-25108.0
 30
0.0
 70
0
  0
VERTEX
  5
2A1
330
17
100
AcDbEntity
  8
0
100
AcDbVertex
100
AcDb2dVertex
 10
32020.0
 20
-24108.0
 30
0.0
 70
0
  0
SEQEND
  5
297
330
17
100
AcDbEntity
  8
0
  0
POLYLINE
  5
2A2
330
17
100
AcDbEntity
  8
0
100
AcDb2dPolyline
 66
1
 10
0.0
 20
0.0
 30
0.0
 70
1
  0
VERTEX
  5
2A4
330
17
100
AcDbEntity
  8
0
100
AcDbVertex
100
AcDb2dVertex
 10
32020.0
 20
-25408.0
 30
0.0
 70
0
  0
VERTEX
  5
2A5
330
17
100
AcDbEntity
  8
0
100
AcDbVertex
100
AcDb2dVertex
 10
32020.0
 20
-25408.0
 30
0.0
 70
0
  0
VERTEX
  5
2A6
330
17
100
AcDbEntity
  8
0
100
AcDbVertex
100
AcDb2dVertex
 10
32020.0
 20
-25408.0
 30
0.0
 70
0
  0
VERTEX
  5
2A7
330
17
100
AcDbEntity
  8
0
100
AcDbVertex
100
AcDb2dVertex
 10
35620.0
 20
-25408.0
 30
0.0
 70
0
  0
VERTEX
  5
2A8
330
17
100
AcDbEntity
  8
0
100
AcDbVertex
100
AcDb2dVertex
 10
35620.0
 20
-25408.0
 30
0.0
 70
0
  0
VERTEX
  5
2A9
330
17
100
AcDbEntity
  8
0
100
AcDbVertex
100
AcDb2dVertex
 10
35620.0
 20
-26408.0
 30
0.0
 70
0
  0
VERTEX
  5
2AA
330
17
100
AcDbEntity
  8
0
100
AcDbVertex
100
AcDb2dVertex
 10
35620.0
 20
-26408.0
 30
0.0
 70
0
  0
VERTEX
  5
2AB
330
17
100
AcDbEntity
  8
0
100
AcDbVertex
100
AcDb2dVertex
 10
32020.0
 20
-26408.0
 30
0.0
 70
0
  0
VERTEX
  5
2AC
330
17
100
AcDbEntity
  8
0
100
AcDbVertex
100
AcDb2dVertex
 10
32020.0
 20
-26408.0
 30
0.0
 70
0
  0
VERTEX
  5
2AD
330
17
100
AcDbEntity
  8
0
100
AcDbVertex
100
AcDb2dVertex
 10
32020.0
 20
-25408.0
 30
0.0
 70
0
  0
SEQEND
  5
2A3
330
17
100
AcDbEntity
  8
0
  0
POLYLINE
  5
2AE
330
17
100
AcDbEntity
  8
0
100
AcDb2dPolyline
 66
1
 10
0.0
 20
0.0
 30
0.0
 70
1
  0
VERTEX
  5
2B0
330
17
100
AcDbEntity
  8
0
100
AcDbVertex
100
AcDb2dVertex
 10
32020.0
 20
-26708.0
 30
0.0
 70
0
  0
VERTEX
  5
2B1
330
17
100
AcDbEntity
  8
0
100
AcDbVertex
100
AcDb2dVertex
 10
32020.0
 20
-26708.0
 30
0.0
 70
0
  0
VERTEX
  5
2B2
330
17
100
AcDbEntity
  8
0
100
AcDbVertex
100
AcDb2dVertex
 10
32020.0
 20
-26708.0
 30
0.0
 70
0
  0
VERTEX
  5
2B3
330
17
100
AcDbEntity
  8
0
100
AcDbVertex
100
AcDb2dVertex
 10
35620.0
 20
-26708.0
 30
0.0
 70
0
  0
VERTEX
  5
2B4
330
17
100
AcDbEntity
  8
0
100
AcDbVertex
100
AcDb2dVertex
 10
35620.0
 20
-26708.0
 30
0.0
 70
0
  0
VERTEX
  5
2B5
330
17
100
AcDbEntity
  8
0
100
AcDbVertex
100
AcDb2dVertex
 10
35620.0
 20
-27708.0
 30
0.0
 70
0
  0
VERTEX
  5
2B6
330
17
100
AcDbEntity
  8
0
100
AcDbVertex
100
AcDb2dVertex
 10
35620.0
 20
-27708.0
 30
0.0
 70
0
  0
VERTEX
  5
2B7
330
17
100
AcDbEntity
  8
0
100
AcDbVertex
100
AcDb2dVertex
 10
32020.0
 20
-27708.0
 30
0.0
 70
0
  0
VERTEX
  5
2B8
330
17
100
AcDbEntity
  8
0
100
AcDbVertex
100
AcDb2dVertex
 10
32020.0
 20
-27708.0
 30
0.0
 70
0
  0
VERTEX
  5
2B9
330
17
100
AcDbEntity
  8
0
100
AcDbVertex
100
AcDb2dVertex
 10
32020.0
 20
-26708.0
 30
0.0
 70
0
  0
SEQEND
  5
2AF
330
17
100
AcDbEntity
  8
0
  0
POLYLINE
  5
2BA
330
17
100
AcDbEntity
  8
0
100
AcDb2dPolyline
 66
1
 10
0.0
 20
0.0
 30
0.0
 70
1
  0
VERTEX
  5
2BC
330
17
100
AcDbEntity
  8
0
100
AcDbVertex
100
AcDb2dVertex
 10
32020.0
 20
-28008.0
 30
0.0
 70
0
  0
VERTEX
  5
2BD
330
17
100
AcDbEntity
  8
0
100
AcDbVertex
100
AcDb2dVertex
 10
32020.0
 20
-28008.0
 30
0.0
 70
0
  0
VERTEX
  5
2BE
330
17
100
AcDbEntity
  8
0
100
AcDbVertex
100
AcDb2dVertex
 10
32020.0
 20
-28008.0
 30
0.0
 70
0
  0
VERTEX
  5
2BF
330
17
100
AcDbEntity
  8
0
100
AcDbVertex
100
AcDb2dVertex
 10
35620.0
 20
-28008.0
 30
0.0
 70
0
  0
VERTEX
  5
2C0
330
17
100
AcDbEntity
  8
0
100
AcDbVertex
100
AcDb2dVertex
 10
35620.0
 20
-28008.0
 30
0.0
 70
0
  0
VERTEX
  5
2C1
330
17
100
AcDbEntity
  8
0
100
AcDbVertex
100
AcDb2dVertex
 10
35620.0
 20
-29008.0
 30
0.0
 70
0
  0
VERTEX
  5
2C2
330
17
100
AcDbEntity
  8
0
100
AcDbVertex
100
AcDb2dVertex
 10
35620.0
 20
-29008.0
 30
0.0
 70
0
  0
VERTEX
  5
2C3
330
17
100
AcDbEntity
  8
0
100
AcDbVertex
100
AcDb2dVertex
 10
32020.0
 20
-29008.0
 30
0.0
 70
0
  0
VERTEX
  5
2C4
330
17
100
AcDbEntity
  8
0
100
AcDbVertex
100
AcDb2dVertex
 10
32020.0
 20
-29008.0
 30
0.0
 70
0
  0
VERTEX
  5
2C5
330
17
100
AcDbEntity
  8
0
100
AcDbVertex
100
AcDb2dVertex
 10
32020.0
 20
-28008.0
 30
0.0
 70
0
  0
SEQEND
  5
2BB
330
17
100
AcDbEntity
  8
0
  0
SOLID
  5
2C6
330
17
100
AcDbEntity
  8
0
100
AcDbTrace
 10
15470.0
 20
-20708.0
 30
0.0
 11
15470.0
 21
-19408.0
 31
0.0
 12
15770.0
 22
-20708.0
 32
0.0
 13
15770.0
 23
-19408.0
 33
0.0
  0
SOLID
  5
2C7
330
17
100
AcDbEntity
  8
0
100
AcDbTrace
 10
15470.0
 20
-19408.0
 30
0.0
 11
15470.0
 21
-18108.0
 31
0.0
 12
15770.0
 22
-19408.0
 32
0.0
 13
15770.0
 23
-18108.0
 33
0.0
  0
SOLID
  5
2C8
330
17
100
AcDbEntity
  8
0
100
AcDbTrace
 10
15470.0
 20
-18108.0
 30
0.0
 11
15470.0
 21
-16808.0
 31
0.0
 12
15770.0
 22
-18108.0
 32
0.0
 13
15770.0
 23
-16808.0
 33
0.0
  0
SOLID
  5
2C9
330
17
100
AcDbEntity
  8
0
100
AcDbTrace
 10
15470.0
 20
-16808.0
 30
0.0
 11
15470.0
 21
-12970.1320343555
 31
0.0
 12
15770.0
 22
-16808.0
 32
0.0
 13
15770.0
 23
-12845.8679656445
 33
0.0
  0
SOLID
  5
2CA
330
17
100
AcDbEntity
  8
0
100
AcDbTrace
 10
14170.0
 20
-11670.1320343555
 30
0.0
 11
14470.0
 21
-11545.8679656445
 31
0.0
 12
15470.0
 22
-12970.1320343555
 32
0.0
 13
15770.0
 23
-12845.8679656445
 33
0.0
  0
SOLID
  5
2CB
330
17
100
AcDbEntity
  8
0
100
AcDbTrace
 10
14170.0
 20
-11670.1320343555
 30
0.0
 11
14170.0
 21
-9751.1320343555
 31
0.0
 12
14470.0
 22
-11545.8679656445
 32
0.0
 13
14470.0
 23
-9626.8679656445
 33
0.0
  0
SOLID
  5
2CC
330
17
100
AcDbEntity
  8
0
100
AcDbTrace
 10
13820.0
 20
-9401.1320343555
 30
0.0
 11
14120.0
 21
-9276.8679656445
 31
0.0
 12
14170.0
 22
-9751.1320343555
 32
0.0
 13
14470.0
 23
-9626.8679656445
 33
0.0
  0
SOLID
  5
2CD
330
17
100
AcDbEntity
  8
0
100
AcDbTrace
 10
13820.0
 20
-9401.1320343555
 30
0.0
 11
13820.0
 21
-6287.8679656445
 31
0.0
 12
14120.0
 22
-9276.8679656445
 32
0.0
 13
14120.0
 23
-6412.1320343555
 33
0.0
  0
SOLID
  5
2CE
330
17
100
AcDbEntity
  8
0
100
AcDbTrace
 10
14120.0
 20
-6412.1320343555
 30
0.0
 11
13820.0
 21
-6287.8679656445
 31
0.0
 12
15346.0665
 22
-5186.0665
 32
0.0
 13
15133.9335
 23
-4973.9335
 33
0.0
  0
SOLID
  5
2CF
330
17
100
AcDbEntity
  8
0
100
AcDbTrace
 10
16770.0
 20
-20708.0
 30
0.0
 11
16770.0
 21
-19408.0
 31
0.0
 12
17070.0
 22
-20708.0
 32
0.0
 13
17070.0
 23
-19408.0
 33
0.0
  0
SOLID
  5
2D0
330
17
100
AcDbEntity
  8
0
100
AcDbTrace
 10
16770.0
 20
-19408.0
 30
0.0
 11
16770.0
 21
-18108.0
 31
0.0
 12
17070.0
 22
-19408.0
 32
0.0
 13
17070.0
 23
-18108.0
 33
0.0
  0
SOLID
  5
2D1
330
17
100
AcDbEntity
  8
0
100
AcDbTrace
 10
16770.0
 20
-18108.0
 30
0.0
 11
16770.0
 21
-16808.0
 31
0.0
 12
17070.0
 22
-18108.0
 32
0.0
 13
17070.0
 23
-16808.0
 33
0.0
  0
SOLID
  5
2D2
330
17
100
AcDbEntity
  8
0
100
AcDbTrace
 10
16770.0
 20
-16808.0
 30
0.0
 11
16770.0
 21
-11670.1320343555
 31
0.0
 12
17070.0
 22
-16808.0
 32
0.0
 13
17070.0
 23
-11545.8679656445
 33
0.0
  0
SOLID
  5
2D3
330
17
100
AcDbEntity
  8
0
100
AcDbTrace
 10
15470.0
 20
-10370.1320343555
 30
0.0
 11
15770.0
 21
-10245.8679656445
 31
0.0
 12
16770.0
 22
-11670.1320343555
 32
0.0
 13
17070.0
 23
-11545.8679656445
 33
0.0
  0
SOLID
  5
2D4
330
17
100
AcDbEntity
  8
0
100
AcDbTrace
 10
15470.0
 20
-10370.1320343555
 30
0.0
 11
15470.0
 21
-9781.1320343555
 31
0.0
 12
15770.0
 22
-10245.8679656445
 32
0.0
 13
15770.0
 23
-9656.8679656445
 33
0.0
  0
SOLID
  5
2D5
330
17
100
AcDbEntity
  8
0
100
AcDbTrace
 10
15090.0
 20
-9401.1320343555
 30
0.0
 11
15390.0
 21
-9276.8679656445
 31
0.0
 12
15470.0
 22
-9781.1320343555
 32
0.0
 13
15770.0
 23
-9656.8679656445
 33
0.0
  0
SOLID
  5
2D6
330
17
100
AcDbEntity
  8
0
100
AcDbTrace
 10
15090.0
 20
-9401.1320343555
 30
0.0
 11
15090.0
 21
-7620.0
 31
0.0
 12
15390.0
 22
-9276.8679656445
 32
0.0
 13
15390.0
 23
-7620.0
 33
0.0
  0
SOLID
  5
2D7
330
17
100
AcDbEntity
  8
0
100
AcDbTrace
 10
18070.0
 20
-20708.0
 30
0.0
 11
18070.0
 21
-19408.0
 31
0.0
 12
18370.0
 22
-20708.0
 32
0.0
 13
18370.0
 23
-19408.0
 33
0.0
  0
SOLID
  5
2D8
330
17
100
AcDbEntity
  8
0
100
AcDbTrace
 10
18070.0
 20
-19408.0
 30
0.0
 11
18070.0
 21
-18108.0
 31
0.0
 12
18370.0
 22
-19408.0
 32
0.0
 13
18370.0
 23
-18108.0
 33
0.0
  0
SOLID
  5
2D9
330
17
100
AcDbEntity
  8
0
100
AcDbTrace
 10
18070.0
 20
-18108.0
 30
0.0
 11
18070.0
 21
-16808.0
 31
0.0
 12
18370.0
 22
-18108.0
 32
0.0
 13
18370.0
 23
-16808.0
 33
0.0
  0
SOLID
  5
2DA
330
17
100
AcDbEntity
  8
0
100
AcDbTrace
 10
18070.0
 20
-16808.0
 30
0.0
 11
18070.0
 21
-11670.1320343555
 31
0.0
 12
18370.0
 22
-16808.0
 32
0.0
 13
18370.0
 23
-11545.8679656445
 33
0.0
  0
SOLID
  5
2DB
330
17
100
AcDbEntity
  8
0
100
AcDbTrace
 10
16770.0
 20
-10370.1320343555
 30
0.0
 11
17070.0
 21
-10245.8679656445
 31
0.0
 12
18070.0
 22
-11670.1320343555
 32
0.0
 13
18370.0
 23
-11545.8679656445
 33
0.0
  0
SOLID
  5
2DC
330
17
100
AcDbEntity
  8
0
100
AcDbTrace
 10
16770.0
 20
-10370.1320343555
 30
0.0
 11
16770.0
 21
-9811.1320343555
 31
0.0
 12
17070.0
 22
-10245.8679656445
 32
0.0
 13
17070.0
 23
-9686.8679656445
 33
0.0
  0
SOLID
  5
2DD
330
17
100
AcDbEntity
  8
0
100
AcDbTrace
 10
16360.0
 20
-9401.1320343555
 30
0.0
 11
16660.0
 21
-9276.8679656445
 31
0.0
 12
16770.0
 22
-9811.1320343555
 32
0.0
 13
17070.0
 23
-9686.8679656445
 33
0.0
  0
SOLID
  5
2DE
330
17
100
AcDbEntity
  8
0
100
AcDbTrace
 10
16360.0
 20
-9401.1320343555
 30
0.0
 11
16360.0
 21
-6287.8679656445
 31
0.0
 12
16660.0
 22
-9276.8679656445
 32
0.0
 13
16660.0
 23
-6412.1320343555
 33
0.0
  0
SOLID
  5
2DF
330
17
100
AcDbEntity
  8
0
100
AcDbTrace
 10
16660.0
 20
-6412.1320343555
 30
0.0
 11
16360.0
 21
-6287.8679656445
 31
0.0
 12
17886.0665
 22
-5186.0665
 32
0.0
 13
17673.9335
 23
-4973.9335
 33
0.0
  0
SOLID
  5
2E0
330
17
100
AcDbEntity
  8
0
100
AcDbTrace
 10
19370.0
 20
-20708.0
 30
0.0
 11
19370.0
 21
-19408.0
 31
0.0
 12
19670.0
 22
-20708.0
 32
0.0
 13
19670.0
 23
-19408.0
 33
0.0
  0
SOLID
  5
2E1
330
17
100
AcDbEntity
  8
0
100
AcDbTrace
 10
19370.0
 20
-19408.0
 30
0.0
 11
19370.0
 21
-18108.0
 31
0.0
 12
19670.0
 22
-19408.0
 32
0.0
 13
19670.0
 23
-18108.0
 33
0.0
  0
SOLID
  5
2E2
330
17
100
AcDbEntity
  8
0
100
AcDbTrace
 10
19370.0
 20
-18108.0
 30
0.0
 11
19370.0
 21
-16808.0
 31
0.0
 12
19670.0
 22
-18108.0
 32
0.0
 13
19670.0
 23
-16808.0
 33
0.0
  0
SOLID
  5
2E3
330
17
100
AcDbEntity
  8
0
100
AcDbTrace
 10
19370.0
 20
-16808.0
 30
0.0
 11
19370.0
 21
-11670.1320343555
 31
0.0
 12
19670.0
 22
-16808.0
 32
0.0
 13
19670.0
 23
-11545.8679656445
 33
0.0
  0
SOLID
  5
2E4
330
17
100
AcDbEntity
  8
0
100
AcDbTrace
 10
18070.0
 20
-10370.1320343555
 30
0.0
 11
18370.0
 21
-10245.8679656445
 31
0.0
 12
19370.0
 22
-11670.1320343555
 32
0.0
 13
19670.0
 23
-11545.8679656445
 33
0.0
  0
SOLID
  5
2E5
330
17
100
AcDbEntity
  8
0
100
AcDbTrace
 10
18070.0
 20
-10370.1320343555
 30
0.0
 11
18070.0
 21
-9841.1320343555
 31
0.0
 12
18370.0
 22
-10245.8679656445
 32
0.0
 13
18370.0
 23
-9716.8679656445
 33
0.0
  0
SOLID
  5
2E6
330
17
100
AcDbEntity
  8
0
100
AcDbTrace
 10
17630.0
 20
-9401.1320343555
 30
0.0
 11
17930.0
 21
-9276.8679656445
 31
0.0
 12
18070.0
 22
-9841.1320343555
 32
0.0
 13
18370.0
 23
-9716.8679656445
 33
0.0
  0
SOLID
  5
2E7
330
17
100
AcDbEntity
  8
0
100
AcDbTrace
 10
17630.0
 20
-9401.1320343555
 30
0.0
 11
17630.0
 21
-7620.0
 31
0.0
 12
17930.0
 22
-9276.8679656445
 32
0.0
 13
17930.0
 23
-7620.0
 33
0.0
  0
SOLID
  5
2E8
330
17
100
AcDbEntity
  8
0
100
AcDbTrace
 10
20670.0
 20
-20708.0
 30
0.0
 11
20670.0
 21
-19408.0
 31
0.0
 12
20970.0
 22
-20708.0
 32
0.0
 13
20970.0
 23
-19408.0
 33
0.0
  0
SOLID
  5
2E9
330
17
100
AcDbEntity
  8
0
100
AcDbTrace
 10
20670.0
 20
-19408.0
 30
0.0
 11
20670.0
 21
-18108.0
 31
0.0
 12
20970.0
 22
-19408.0
 32
0.0
 13
20970.0
 23
-18108.0
 33
0.0
  0
SOLID
  5
2EA
330
17
100
AcDbEntity
  8
0
100
AcDbTrace
 10
20670.0
 20
-18108.0
 30
0.0
 11
20670.0
 21
-16808.0
 31
0.0
 12
20970.0
 22
-18108.0
 32
0.0
 13
20970.0
 23
-16808.0
 33
0.0
  0
SOLID
  5
2EB
330
17
100
AcDbEntity
  8
0
100
AcDbTrace
 10
20670.0
 20
-16808.0
 30
0.0
 11
20670.0
 21
-11670.1320343555
 31
0.0
 12
20970.0
 22
-16808.0
 32
0.0
 13
20970.0
 23
-11545.8679656445
 33
0.0
  0
SOLID
  5
2EC
330
17
100
AcDbEntity
  8
0
100
AcDbTrace
 10
19370.0
 20
-10370.1320343555
 30
0.0
 11
19670.0
 21
-10245.8679656445
 31
0.0
 12
20670.0
 22
-11670.1320343555
 32
0.0
 13
20970.0
 23
-11545.8679656445
 33
0.0
  0
SOLID
  5
2ED
330
17
100
AcDbEntity
  8
0
100
AcDbTrace
 10
19370.0
 20
-10370.1320343555
 30
0.0
 11
19370.0
 21
-9871.1320343555
 31
0.0
 12
19670.0
 22
-10245.8679656445
 32
0.0
 13
19670.0
 23
-9746.8679656445
 33
0.0
  0
SOLID
  5
2EE
330
17
100
AcDbEntity
  8
0
100
AcDbTrace
 10
18900.0
 20
-9401.1320343555
 30
0.0
 11
19200.0
 21
-9276.8679656445
 31
0.0
 12
19370.0
 22
-9871.1320343555
 32
0.0
 13
19670.0
 23
-9746.8679656445
 33
0.0
  0
SOLID
  5
2EF
330
17
100
AcDbEntity
  8
0
100
AcDbTrace
 10
18900.0
 20
-9401.1320343555
 30
0.0
 11
18900.0
 21
-6287.8679656445
 31
0.0
 12
19200.0
 22
-9276.8679656445
 32
0.0
 13
19200.0
 23
-6412.1320343555
 33
0.0
  0
SOLID
  5
2F0
330
17
100
AcDbEntity
  8
0
100
AcDbTrace
 10
19200.0
 20
-6412.1320343555
 30
0.0
 11
18900.0
 21
-6287.8679656445
 31
0.0
 12
20426.0665
 22
-5186.0665
 32
0.0
 13
20213.9335
 23
-4973.9335
 33
0.0
  0
SOLID
  5
2F1
330
17
100
AcDbEntity
  8
0
100
AcDbTrace
 10
21970.0
 20
-20708.0
 30
0.0
 11
21970.0
 21
-19408.0
 31
0.0
 12
22270.0
 22
-20708.0
 32
0.0
 13
22270.0
 23
-19408.0
 33
0.0
  0
SOLID
  5
2F2
330
17
100
AcDbEntity
  8
0
100
AcDbTrace
 10
21970.0
 20
-19408.0
 30
0.0
 11
21970.0
 21
-18108.0
 31
0.0
 12
22270.0
 22
-19408.0
 32
0.0
 13
22270.0
 23
-18108.0
 33
0.0
  0
SOLID
  5
2F3
330
17
100
AcDbEntity
  8
0
100
AcDbTrace
 10
21970.0
 20
-18108.0
 30
0.0
 11
21970.0
 21
-16808.0
 31
0.0
 12
22270.0
 22
-18108.0
 32
0.0
 13
22270.0
 23
-16808.0
 33
0.0
  0
SOLID
  5
2F4
330
17
100
AcDbEntity
  8
0
100
AcDbTrace
 10
21970.0
 20
-16808.0
 30
0.0
 11
21970.0
 21
-9931.1320343555
 31
0.0
 12
22270.0
 22
-16808.0
 32
0.0
 13
22270.0
 23
-9806.8679656445
 33
0.0
  0
SOLID
  5
2F5
330
17
100
AcDbEntity
  8
0
100
AcDbTrace
 10
21440.0
 20
-9401.1320343555
 30
0.0
 11
21740.0
 21
-9276.8679656445
 31
0.0
 12
21970.0
 22
-9931.1320343555
 32
0.0
 13
22270.0
 23
-9806.8679656445
 33
0.0
  0
SOLID
  5
2F6
330
17
100
AcDbEntity
  8
0
100
AcDbTrace
 10
21440.0
 20
-9401.1320343555
 30
0.0
 11
21440.0
 21
-6287.8679656445
 31
0.0
 12
21740.0
 22
-9276.8679656445
 32
0.0
 13
21740.0
 23
-6412.1320343555
 33
0.0
  0
SOLID
  5
2F7
330
17
100
AcDbEntity
  8
0
100
AcDbTrace
 10
21740.0
 20
-6412.1320343555
 30
0.0
 11
21440.0
 21
-6287.8679656445
 31
0.0
 12
22966.0665
 22
-5186.0665
 32
0.0
 13
22753.9335
 23
-4973.9335
 33
0.0
  0
SOLID
  5
2F8
330
17
100
AcDbEntity
  8
0
100
AcDbTrace
 10
23270.0
 20
-20708.0
 30
0.0
 11
23270.0
 21
-19408.0
 31
0.0
 12
23570.0
 22
-20708.0
 32
0.0
 13
23570.0
 23
-19408.0
 33
0.0
  0
SOLID
  5
2F9
330
17
100
AcDbEntity
  8
0
100
AcDbTrace
 10
23270.0
 20
-19408.0
 30
0.0
 11
23270.0
 21
-18108.0
 31
0.0
 12
23570.0
 22
-19408.0
 32
0.0
 13
23570.0
 23
-18108.0
 33
0.0
  0
SOLID
  5
2FA
330
17
100
AcDbEntity
  8
0
100
AcDbTrace
 10
23270.0
 20
-18108.0
 30
0.0
 11
23270.0
 21
-16808.0
 31
0.0
 12
23570.0
 22
-18108.0
 32
0.0
 13
23570.0
 23
-16808.0
 33
0.0
  0
SOLID
  5
2FB
330
17
100
AcDbEntity
  8
0
100
AcDbTrace
 10
23270.0
 20
-16808.0
 30
0.0
 11
23270.0
 21
-9961.1320343555
 31
0.0
 12
23570.0
 22
-16808.0
 32
0.0
 13
23570.0
 23
-9836.8679656445
 33
0.0
  0
SOLID
  5
2FC
330
17
100
AcDbEntity
  8
0
100
AcDbTrace
 10
22710.0
 20
-9401.1320343555
 30
0.0
 11
23010.0
 21
-9276.8679656445
 31
0.0
 12
23270.0
 22
-9961.1320343555
 32
0.0
 13
23570.0
 23
-9836.8679656445
 33
0.0
  0
SOLID
  5
2FD
330
17
100
AcDbEntity
  8
0
100
AcDbTrace
 10
22710.0
 20
-9401.1320343555
 30
0.0
 11
22710.0
 21
-7620.0
 31
0.0
 12
23010.0
 22
-9276.8679656445
 32
0.0
 13
23010.0
 23
-7620.0
 33
0.0
  0
SOLID
  5
2FE
330
17
100
AcDbEntity
  8
0
100
AcDbTrace
 10
24570.0
 20
-20708.0
 30
0.0
 11
24570.0
 21
-19408.0
 31
0.0
 12
24870.0
 22
-20708.0
 32
0.0
 13
24870.0
 23
-19408.0
 33
0.0
  0
SOLID
  5
2FF
330
17
100
AcDbEntity
  8
0
100
AcDbTrace
 10
24570.0
 20
-19408.0
 30
0.0
 11
24570.0
 21
-18108.0
 31
0.0
 12
24870.0
 22
-19408.0
 32
0.0
 13
24870.0
 23
-18108.0
 33
0.0
  0
SOLID
  5
300
330
17
100
AcDbEntity
  8
0
100
AcDbTrace
 10
24570.0
 20
-18108.0
 30
0.0
 11
24570.0
 21
-16808.0
 31
0.0
 12
24870.0
 22
-18108.0
 32
0.0
 13
24870.0
 23
-16808.0
 33
0.0
  0
SOLID
  5
301
330
17
100
AcDbEntity
  8
0
100
AcDbTrace
 10
24570.0
 20
-16808.0
 30
0.0
 11
24570.0
 21
-9991.1320343555
 31
0.0
 12
24870.0
 22
-16808.0
 32
0.0
 13
24870.0
 23
-9866.8679656445
 33
0.0
  0
SOLID
  5
302
330
17
100
AcDbEntity
  8
0
100
AcDbTrace
 10
23980.0
 20
-9401.1320343555
 30
0.0
 11
24280.0
 21
-9276.8679656445
 31
0.0
 12
24570.0
 22
-9991.1320343555
 32
0.0
 13
24870.0
 23
-9866.8679656445
 33
0.0
  0
SOLID
  5
303
330
17
100
AcDbEntity
  8
0
100
AcDbTrace
 10
23980.0
 20
-9401.1320343555
 30
0.0
 11
23980.0
 21
-6287.8679656445
 31
0.0
 12
24280.0
 22
-9276.8679656445
 32
0.0
 13
24280.0
 23
-6412.1320343555
 33
0.0
  0
SOLID
  5
304
330
17
100
AcDbEntity
  8
0
100
AcDbTrace
 10
24280.0
 20
-6412.1320343555
 30
0.0
 11
23980.0
 21
-6287.8679656445
 31
0.0
 12
25506.0665
 22
-5186.0665
 32
0.0
 13
25293.9335
 23
-4973.9335
 33
0.0
  0
SOLID
  5
305
330
17
100
AcDbEntity
  8
0
100
AcDbTrace
 10
25870.0
 20
-20708.0
 30
0.0
 11
25870.0
 21
-19408.0
 31
0.0
 12
26170.0
 22
-20708.0
 32
0.0
 13
26170.0
 23
-19408.0
 33
0.0
  0
SOLID
  5
306
330
17
100
AcDbEntity
  8
0
100
AcDbTrace
 10
25870.0
 20
-19408.0
 30
0.0
 11
25870.0
 21
-18108.0
 31
0.0
 12
26170.0
 22
-19408.0
 32
0.0
 13
26170.0
 23
-18108.0
 33
0.0
  0
SOLID
  5
307
330
17
100
AcDbEntity
  8
0
100
AcDbTrace
 10
25870.0
 20
-18108.0
 30
0.0
 11
25870.0
 21
-16808.0
 31
0.0
 12
26170.0
 22
-18108.0
 32
0.0
 13
26170.0
 23
-16808.0
 33
0.0
  0
SOLID
  5
308
330
17
100
AcDbEntity
  8
0
100
AcDbTrace
 10
25870.0
 20
-16808.0
 30
0.0
 11
25870.0
 21
-10021.1320343555
 31
0.0
 12
26170.0
 22
-16808.0
 32
0.0
 13
26170.0
 23
-9896.8679656445
 33
0.0
  0
SOLID
  5
309
330
17
100
AcDbEntity
  8
0
100
AcDbTrace
 10
25250.0
 20
-9401.1320343555
 30
0.0
 11
25550.0
 21
-9276.8679656445
 31
0.0
 12
25870.0
 22
-10021.1320343555
 32
0.0
 13
26170.0
 23
-9896.8679656445
 33
0.0
  0
SOLID
  5
30A
330
17
100
AcDbEntity
  8
0
100
AcDbTrace
 10
25250.0
 20
-9401.1320343555
 30
0.0
 11
25250.0
 21
-7620.0
 31
0.0
 12
25550.0
 22
-9276.8679656445
 32
0.0
 13
25550.0
 23
-7620.0
 33
0.0
  0
SOLID
  5
30B
330
17
100
AcDbEntity
  8
0
100
AcDbTrace
 10
27170.0
 20
-20708.0
 30
0.0
 11
27170.0
 21
-19408.0
 31
0.0
 12
27470.0
 22
-20708.0
 32
0.0
 13
27470.0
 23
-19408.0
 33
0.0
  0
SOLID
  5
30C
330
17
100
AcDbEntity
  8
0
100
AcDbTrace
 10
27170.0
 20
-19408.0
 30
0.0
 11
27170.0
 21
-18108.0
 31
0.0
 12
27470.0
 22
-19408.0
 32
0.0
 13
27470.0
 23
-18108.0
 33
0.0
  0
SOLID
  5
30D
330
17
100
AcDbEntity
  8
0
100
AcDbTrace
 10
27170.0
 20
-18108.0
 30
0.0
 11
27170.0
 21
-16808.0
 31
0.0
 12
27470.0
 22
-18108.0
 32
0.0
 13
27470.0
 23
-16808.0
 33
0.0
  0
SOLID
  5
30E
330
17
100
AcDbEntity
  8
0
100
AcDbTrace
 10
27170.0
 20
-16808.0
 30
0.0
 11
27170.0
 21
-9896.8679656445
 31
0.0
 12
27470.0
 22
-16808.0
 32
0.0
 13
27470.0
 23
-10021.1320343555
 33
0.0
  0
SOLID
  5
30F
330
17
100
AcDbEntity
  8
0
100
AcDbTrace
 10
27470.0
 20
-10021.1320343555
 30
0.0
 11
27170.0
 21
-9896.8679656445
 31
0.0
 12
28090.0
 22
-9401.1320343555
 32
0.0
 13
27790.0
 23
-9276.8679656445
 33
0.0
  0
SOLID
  5
310
330
17
100
AcDbEntity
  8
0
100
AcDbTrace
 10
27790.0
 20
-9276.8679656445
 30
0.0
 11
27790.0
 21
-7620.0
 31
0.0
 12
28090.0
 22
-9401.1320343555
 32
0.0
 13
28090.0
 23
-7620.0
 33
0.0
  0
SOLID
  5
311
330
17
100
AcDbEntity
  8
0
100
AcDbTrace
 10
28470.0
 20
-20708.0
 30
0.0
 11
28470.0
 21
-19408.0
 31
0.0
 12
28770.0
 22
-20708.0
 32
0.0
 13
28770.0
 23
-19408.0
 33
0.0
  0
SOLID
  5
312
330
17
100
AcDbEntity
  8
0
100
AcDbTrace
 10
28470.0
 20
-19408.0
 30
0.0
 11
28470.0
 21
-18108.0
 31
0.0
 12
28770.0
 22
-19408.0
 32
0.0
 13
28770.0
 23
-18108.0
 33
0.0
  0
SOLID
  5
313
330
17
100
AcDbEntity
  8
0
100
AcDbTrace
 10
28470.0
 20
-18108.0
 30
0.0
 11
28470.0
 21
-16808.0
 31
0.0
 12
28770.0
 22
-18108.0
 32
0.0
 13
28770.0
 23
-16808.0
 33
0.0
  0
SOLID
  5
314
330
17
100
AcDbEntity
  8
0
100
AcDbTrace
 10
28470.0
 20
-16808.0
 30
0.0
 11
28470.0
 21
-9866.8679656445
 31
0.0
 12
28770.0
 22
-16808.0
 32
0.0
 13
28770.0
 23
-9991.1320343555
 33
0.0
  0
SOLID
  5
315
330
17
100
AcDbEntity
  8
0
100
AcDbTrace
 10
28770.0
 20
-9991.1320343555
 30
0.0
 11
28470.0
 21
-9866.8679656445
 31
0.0
 12
29360.0
 22
-9401.1320343555
 32
0.0
 13
29060.0
 23
-9276.8679656445
 33
0.0
  0
SOLID
  5
316
330
17
100
AcDbEntity
  8
0
100
AcDbTrace
 10
29060.0
 20
-9276.8679656445
 30
0.0
 11
29060.0
 21
-6412.1320343555
 31
0.0
 12
29360.0
 22
-9401.1320343555
 32
0.0
 13
29360.0
 23
-6287.8679656445
 33
0.0
  0
SOLID
  5
317
330
17
100
AcDbEntity
  8
0
100
AcDbTrace
 10
27833.9335
 20
-5186.0665
 30
0.0
 11
28046.0665
 21
-4973.9335
 31
0.0
 12
29060.0
 22
-6412.1320343555
 32
0.0
 13
29360.0
 23
-6287.8679656445
 33
0.0
  0
SOLID
  5
318
330
17
100
AcDbEntity
  8
0
100
AcDbTrace
 10
29770.0
 20
-20708.0
 30
0.0
 11
29770.0
 21
-19408.0
 31
0.0
 12
30070.0
 22
-20708.0
 32
0.0
 13
30070.0
 23
-19408.0
 33
0.0
  0
SOLID
  5
319
330
17
100
AcDbEntity
  8
0
100
AcDbTrace
 10
29770.0
 20
-19408.0
 30
0.0
 11
29770.0
 21
-18108.0
 31
0.0
 12
30070.0
 22
-19408.0
 32
0.0
 13
30070.0
 23
-18108.0
 33
0.0
  0
SOLID
  5
31A
330
17
100
AcDbEntity
  8
0
100
AcDbTrace
 10
29770.0
 20
-18108.0
 30
0.0
 11
29770.0
 21
-16808.0
 31
0.0
 12
30070.0
 22
-18108.0
 32
0.0
 13
30070.0
 23
-16808.0
 33
0.0
  0
SOLID
  5
31B
330
17
100
AcDbEntity
  8
0
100
AcDbTrace
 10
29770.0
 20
-16808.0
 30
0.0
 11
29770.0
 21
-9836.8679656445
 31
0.0
 12
30070.0
 22
-16808.0
 32
0.0
 13
30070.0
 23
-9961.1320343555
 33
0.0
  0
SOLID
  5
31C
330
17
100
AcDbEntity
  8
0
100
AcDbTrace
 10
30070.0
 20
-9961.1320343555
 30
0.0
 11
29770.0
 21
-9836.8679656445
 31
0.0
 12
30630.0
 22
-9401.1320343555
 32
0.0
 13
30330.0
 23
-9276.8679656445
 33
0.0
  0
SOLID
  5
31D
330
17
100
AcDbEntity
  8
0
100
AcDbTrace
 10
30330.0
 20
-9276.8679656445
 30
0.0
 11
30330.0
 21
-7620.0
 31
0.0
 12
30630.0
 22
-9401.1320343555
 32
0.0
 13
30630.0
 23
-7620.0
 33
0.0
  0
SOLID
  5
31E
330
17
100
AcDbEntity
  8
0
100
AcDbTrace
 10
31070.0
 20
-20708.0
 30
0.0
 11
31070.0
 21
-19408.0
 31
0.0
 12
31370.0
 22
-20708.0
 32
0.0
 13
31370.0
 23
-19408.0
 33
0.0
  0
SOLID
  5
31F
330
17
100
AcDbEntity
  8
0
100
AcDbTrace
 10
31070.0
 20
-19408.0
 30
0.0
 11
31070.0
 21
-18108.0
 31
0.0
 12
31370.0
 22
-19408.0
 32
0.0
 13
31370.0
 23
-18108.0
 33
0.0
  0
SOLID
  5
320
330
17
100
AcDbEntity
  8
0
100
AcDbTrace
 10
31070.0
 20
-18108.0
 30
0.0
 11
31070.0
 21
-16808.0
 31
0.0
 12
31370.0
 22
-18108.0
 32
0.0
 13
31370.0
 23
-16808.0
 33
0.0
  0
SOLID
  5
321
330
17
100
AcDbEntity
  8
0
100
AcDbTrace
 10
31070.0
 20
-16808.0
 30
0.0
 11
31070.0
 21
-9806.8679656445
 31
0.0
 12
31370.0
 22
-16808.0
 32
0.0
 13
31370.0
 23
-9931.1320343555
 33
0.0
  0
SOLID
  5
322
330
17
100
AcDbEntity
  8
0
100
AcDbTrace
 10
31370.0
 20
-9931.1320343555
 30
0.0
 11
31070.0
 21
-9806.8679656445
 31
0.0
 12
31900.0
 22
-9401.1320343555
 32
0.0
 13
31600.0
 23
-9276.8679656445
 33
0.0
  0
SOLID
  5
323
330
17
100
AcDbEntity
  8
0
100
AcDbTrace
 10
31600.0
 20
-9276.8679656445
 30
0.0
 11
31600.0
 21
-6412.1320343555
 31
0.0
 12
31900.0
 22
-9401.1320343555
 32
0.0
 13
31900.0
 23
-6287.8679656445
 33
0.0
  0
SOLID
  5
324
330
17
100
AcDbEntity
  8
0
100
AcDbTrace
 10
30373.9335
 20
-5186.0665
 30
0.0
 11
30586.0665
 21
-4973.9335
 31
0.0
 12
31600.0
 22
-6412.1320343555
 32
0.0
 13
31900.0
 23
-6287.8679656445
 33
0.0
  0
SOLID
  5
325
330
17
100
AcDbEntity
  8
0
100
AcDbTrace
 10
20820.0
 20
-24758.0
 30
0.0
 11
20820.0
 21
-24458.0
 31
0.0
 12
22120.0
 22
-24758.0
 32
0.0
 13
22120.0
 23
-24458.0
 33
0.0
  0
SOLID
  5
326
330
17
100
AcDbEntity
  8
0
100
AcDbTrace
 10
19520.0
 20
-24758.0
 30
0.0
 11
19520.0
 21
-24458.0
 31
0.0
 12
20820.0
 22
-24758.0
 32
0.0
 13
20820.0
 23
-24458.0
 33
0.0
  0
SOLID
  5
327
330
17
100
AcDbEntity
  8
0
100
AcDbTrace
 10
18220.0
 20
-24758.0
 30
0.0
 11
18220.0
 21
-24458.0
 31
0.0
 12
19520.0
 22
-24758.0
 32
0.0
 13
19520.0
 23
-24458.0
 33
0.0
  0
SOLID
  5
328
330
17
100
AcDbEntity
  8
0
100
AcDbTrace
 10
15557.8679656445
 20
-24758.0
 30
0.0
 11
15682.1320343555
 21
-24458.0
 31
0.0
 12
18220.0
 22
-24758.0
 32
0.0
 13
18220.0
 23
-24458.0
 33
0.0
  0
SOLID
  5
329
330
17
100
AcDbEntity
  8
0
100
AcDbTrace
 10
12870.0
 20
-22070.1320343555
 30
0.0
 11
13170.0
 21
-21945.8679656445
 31
0.0
 12
15557.8679656445
 22
-24758.0
 32
0.0
 13
15682.1320343555
 23
-24458.0
 33
0.0
  0
SOLID
  5
32A
330
17
100
AcDbEntity
  8
0
100
AcDbTrace
 10
12870.0
 20
-22070.1320343555
 30
0.0
 11
12870.0
 21
-9721.1320343555
 31
0.0
 12
13170.0
 22
-21945.8679656445
 32
0.0
 13
13170.0
 23
-9596.8679656445
 33
0.0
  0
SOLID
  5
32B
330
17
100
AcDbEntity
  8
0
100
AcDbTrace
 10
12550.0
 20
-9401.1320343555
 30
0.0
 11
12850.0
 21
-9276.8679656445
 31
0.0
 12
12870.0
 22
-9721.1320343555
 32
0.0
 13
13170.0
 23
-9596.8679656445
 33
0.0
  0
SOLID
  5
32C
330
17
100
AcDbEntity
  8
0
100
AcDbTrace
 10
12550.0
 20
-9401.1320343555
 30
0.0
 11
12550.0
 21
-7620.0
 31
0.0
 12
12850.0
 22
-9276.8679656445
 32
0.0
 13
12850.0
 23
-7620.0
 33
0.0
  0
SOLID
  5
32D
330
17
100
AcDbEntity
  8
0
100
AcDbTrace
 10
20820.0
 20
-26058.0
 30
0.0
 11
20820.0
 21
-25758.0
 31
0.0
 12
22120.0
 22
-26058.0
 32
0.0
 13
22120.0
 23
-25758.0
 33
0.0
  0
SOLID
  5
32E
330
17
100
AcDbEntity
  8
0
100
AcDbTrace
 10
19520.0
 20
-26058.0
 30
0.0
 11
19520.0
 21
-25758.0
 31
0.0
 12
20820.0
 22
-26058.0
 32
0.0
 13
20820.0
 23
-25758.0
 33
0.0
  0
SOLID
  5
32F
330
17
100
AcDbEntity
  8
0
100
AcDbTrace
 10
18220.0
 20
-26058.0
 30
0.0
 11
18220.0
 21
-25758.0
 31
0.0
 12
19520.0
 22
-26058.0
 32
0.0
 13
19520.0
 23
-25758.0
 33
0.0
  0
SOLID
  5
330
330
17
100
AcDbEntity
  8
0
100
AcDbTrace
 10
15557.8679656445
 20
-26058.0
 30
0.0
 11
15682.1320343555
 21
-25758.0
 31
0.0
 12
18220.0
 22
-26058.0
 32
0.0
 13
18220.0
 23
-25758.0
 33
0.0
  0
SOLID
  5
331
330
17
100
AcDbEntity
  8
0
100
AcDbTrace
 10
11570.0
 20
-22070.1320343555
 30
0.0
 11
11870.0
 21
-21945.8679656445
 31
0.0
 12
15557.8679656445
 22
-26058.0
 32
0.0
 13
15682.1320343555
 23
-25758.0
 33
0.0
  0
SOLID
  5
332
330
17
100
AcDbEntity
  8
0
100
AcDbTrace
 10
11570.0
 20
-22070.1320343555
 30
0.0
 11
11570.0
 21
-9691.1320343555
 31
0.0
 12
11870.0
 22
-21945.8679656445
 32
0.0
 13
11870.0
 23
-9566.8679656445
 33
0.0
  0
SOLID
  5
333
330
17
100
AcDbEntity
  8
0
100
AcDbTrace
 10
11570.0
 20
-9691.1320343555
 30
0.0
 11
11280.0
 21
-9401.1320343555
 31
0.0
 12
11870.0
 22
-9566.8679656445
 32
0.0
 13
11580.0
 23
-9276.8679656445
 33
0.0
  0
SOLID
  5
334
330
17
100
AcDbEntity
  8
0
100
AcDbTrace
 10
11280.0
 20
-9401.1320343555
 30
0.0
 11
11280.0
 21
-6412.1320343555
 31
0.0
 12
11580.0
 22
-9276.8679656445
 32
0.0
 13
11580.0
 23
-6287.8679656445
 33
0.0
  0
SOLID
  5
335
330
17
100
AcDbEntity
  8
0
100
AcDbTrace
 10
10053.9335
 20
-5186.0665
 30
0.0
 11
10266.0665
 21
-4973.9335
 31
0.0
 12
11280.0
 22
-6412.1320343555
 32
0.0
 13
11580.0
 23
-6287.8679656445
 33
0.0
  0
SOLID
  5
336
330
17
100
AcDbEntity
  8
0
100
AcDbTrace
 10
20820.0
 20
-27358.0
 30
0.0
 11
20820.0
 21
-27058.0
 31
0.0
 12
22120.0
 22
-27358.0
 32
0.0
 13
22120.0
 23
-27058.0
 33
0.0
  0
SOLID
  5
337
330
17
100
AcDbEntity
  8
0
100
AcDbTrace
 10
19520.0
 20
-27358.0
 30
0.0
 11
19520.0
 21
-27058.0
 31
0.0
 12
20820.0
 22
-27358.0
 32
0.0
 13
20820.0
 23
-27058.0
 33
0.0
  0
SOLID
  5
338
330
17
100
AcDbEntity
  8
0
100
AcDbTrace
 10
18220.0
 20
-27358.0
 30
0.0
 11
18220.0
 21
-27058.0
 31
0.0
 12
19520.0
 22
-27358.0
 32
0.0
 13
19520.0
 23
-27058.0
 33
0.0
  0
SOLID
  5
339
330
17
100
AcDbEntity
  8
0
100
AcDbTrace
 10
15557.8679656445
 20
-27358.0
 30
0.0
 11
15682.1320343555
 21
-27058.0
 31
0.0
 12
18220.0
 22
-27358.0
 32
0.0
 13
18220.0
 23
-27058.0
 33
0.0
  0
SOLID
  5
33A
330
17
100
AcDbEntity
  8
0
100
AcDbTrace
 10
10270.0
 20
-22070.1320343555
 30
0.0
 11
10570.0
 21
-21945.8679656445
 31
0.0
 12
15557.8679656445
 22
-27358.0
 32
0.0
 13
15682.1320343555
 23
-27058.0
 33
0.0
  0
SOLID
  5
33B
330
17
100
AcDbEntity
  8
0
100
AcDbTrace
 10
10270.0
 20
-22070.1320343555
 30
0.0
 11
10270.0
 21
-9661.1320343555
 31
0.0
 12
10570.0
 22
-21945.8679656445
 32
0.0
 13
10570.0
 23
-9536.8679656445
 33
0.0
  0
SOLID
  5
33C
330
17
100
AcDbEntity
  8
0
100
AcDbTrace
 10
10270.0
 20
-9661.1320343555
 30
0.0
 11
10010.0
 21
-9401.1320343555
 31
0.0
 12
10570.0
 22
-9536.8679656445
 32
0.0
 13
10310.0
 23
-9276.8679656445
 33
0.0
  0
SOLID
  5
33D
330
17
100
AcDbEntity
  8
0
100
AcDbTrace
 10
10010.0
 20
-9401.1320343555
 30
0.0
 11
10010.0
 21
-7620.0
 31
0.0
 12
10310.0
 22
-9276.8679656445
 32
0.0
 13
10310.0
 23
-7620.0
 33
0.0
  0
SOLID
  5
33E
330
17
100
AcDbEntity
  8
0
100
AcDbTrace
 10
20820.0
 20
-28658.0
 30
0.0
 11
20820.0
 21
-28358.0
 31
0.0
 12
22120.0
 22
-28658.0
 32
0.0
 13
22120.0
 23
-28358.0
 33
0.0
  0
SOLID
  5
33F
330
17
100
AcDbEntity
  8
0
100
AcDbTrace
 10
19520.0
 20
-28658.0
 30
0.0
 11
19520.0
 21
-28358.0
 31
0.0
 12
20820.0
 22
-28658.0
 32
0.0
 13
20820.0
 23
-28358.0
 33
0.0
  0
SOLID
  5
340
330
17
100
AcDbEntity
  8
0
100
AcDbTrace
 10
18220.0
 20
-28658.0
 30
0.0
 11
18220.0
 21
-28358.0
 31
0.0
 12
19520.0
 22
-28658.0
 32
0.0
 13
19520.0
 23
-28358.0
 33
0.0
  0
SOLID
  5
341
330
17
100
AcDbEntity
  8
0
100
AcDbTrace
 10
15557.8679656445
 20
-28658.0
 30
0.0
 11
15682.1320343555
 21
-28358.0
 31
0.0
 12
18220.0
 22
-28658.0
 32
0.0
 13
18220.0
 23
-28358.0
 33
0.0
  0
SOLID
  5
342
330
17
100
AcDbEntity
  8
0
100
AcDbTrace
 10
7670.0
 20
-20770.1320343555
 30
0.0
 11
7970.0
 21
-20645.8679656445
 31
0.0
 12
15557.8679656445
 22
-28658.0
 32
0.0
 13
15682.1320343555
 23
-28358.0
 33
0.0
  0
SOLID
  5
343
330
17
100
AcDbEntity
  8
0
100
AcDbTrace
 10
7670.0
 20
-20770.1320343555
 30
0.0
 11
7670.0
 21
-9601.1320343555
 31
0.0
 12
7970.0
 22
-20645.8679656445
 32
0.0
 13
7970.0
 23
-9476.8679656445
 33
0.0
  0
SOLID
  5
344
330
17
100
AcDbEntity
  8
0
100
AcDbTrace
 10
7670.0
 20
-9601.1320343555
 30
0.0
 11
7470.0
 21
-9401.1320343555
 31
0.0
 12
7970.0
 22
-9476.8679656445
 32
0.0
 13
7770.0
 23
-9276.8679656445
 33
0.0
  0
SOLID
  5
345
330
17
100
AcDbEntity
  8
0
100
AcDbTrace
 10
7470.0
 20
-9401.1320343555
 30
0.0
 11
7470.0
 21
-7620.0
 31
0.0
 12
7770.0
 22
-9276.8679656445
 32
0.0
 13
7770.0
 23
-7620.0
 33
0.0
  0
SOLID
  5
346
330
17
100
AcDbEntity
  8
0
100
AcDbTrace
 10
20882.1320343555
 20
-29958.0
 30
0.0
 11
20757.8679656445
 21
-29658.0
 31
0.0
 12
22120.0
 22
-29958.0
 32
0.0
 13
22120.0
 23
-29658.0
 33
0.0
  0
SOLID
  5
347
330
17
100
AcDbEntity
  8
0
100
AcDbTrace
 10
19626.0665
 20
-31214.0665
 30
0.0
 11
19413.9335
 21
-31001.9335
 31
0.0
 12
20882.1320343555
 22
-29958.0
 32
0.0
 13
20757.8679656445
 23
-29658.0
 33
0.0
  0
SOLID
  5
348
330
17
100
AcDbEntity
  8
0
100
AcDbTrace
 10
18326.0665
 20
-32514.0665
 30
0.0
 11
18113.9335
 21
-32301.9335
 31
0.0
 12
19626.0665
 22
-31214.0665
 32
0.0
 13
19413.9335
 23
-31001.9335
 33
0.0
  0
SOLID
  5
349
330
17
100
AcDbEntity
  8
0
100
AcDbTrace
 10
17026.0665
 20
-33814.0665
 30
0.0
 11
16813.9335
 21
-33601.9335
 31
0.0
 12
18326.0665
 22
-32514.0665
 32
0.0
 13
18113.9335
 23
-32301.9335
 33
0.0
  0
SOLID
  5
34A
330
17
100
AcDbEntity
  8
0
100
AcDbTrace
 10
13170.0
 20
-37670.1320343555
 30
0.0
 11
12870.0
 21
-37545.8679656445
 31
0.0
 12
17026.0665
 22
-33814.0665
 32
0.0
 13
16813.9335
 23
-33601.9335
 33
0.0
  0
SOLID
  5
34B
330
17
100
AcDbEntity
  8
0
100
AcDbTrace
 10
12870.0
 20
-53844.8679656445
 30
0.0
 11
12870.0
 21
-37545.8679656445
 31
0.0
 12
13170.0
 22
-53969.1320343555
 32
0.0
 13
13170.0
 23
-37670.1320343555
 33
0.0
  0
SOLID
  5
34C
330
17
100
AcDbEntity
  8
0
100
AcDbTrace
 10
12850.0
 20
-54289.1320343555
 30
0.0
 11
12550.0
 21
-54164.8679656445
 31
0.0
 12
13170.0
 22
-53969.1320343555
 32
0.0
 13
12870.0
 23
-53844.8679656445
 33
0.0
  0
SOLID
  5
34D
330
17
100
AcDbEntity
  8
0
100
AcDbTrace
 10
12550.0
 20
-56896.0
 30
0.0
 11
12550.0
 21
-54164.8679656445
 31
0.0
 12
12850.0
 22
-56896.0
 32
0.0
 13
12850.0
 23
-54289.1320343555
 33
0.0
  0
SOLID
  5
34E
330
17
100
AcDbEntity
  8
0
100
AcDbTrace
 10
20882.1320343555
 20
-31258.0
 30
0.0
 11
20757.8679656445
 21
-30958.0
 31
0.0
 12
22120.0
 22
-31258.0
 32
0.0
 13
22120.0
 23
-30958.0
 33
0.0
  0
SOLID
  5
34F
330
17
100
AcDbEntity
  8
0
100
AcDbTrace
 10
19626.0665
 20
-32514.0665
 30
0.0
 11
19413.9335
 21
-32301.9335
 31
0.0
 12
20882.1320343555
 22
-31258.0
 32
0.0
 13
20757.8679656445
 23
-30958.0
 33
0.0
  0
SOLID
  5
350
330
17
100
AcDbEntity
  8
0
100
AcDbTrace
 10
18326.0665
 20
-33814.0665
 30
0.0
 11
18113.9335
 21
-33601.9335
 31
0.0
 12
19626.0665
 22
-32514.0665
 32
0.0
 13
19413.9335
 23
-32301.9335
 33
0.0
  0
SOLID
  5
351
330
17
100
AcDbEntity
  8
0
100
AcDbTrace
 10
17026.0665
 20
-35114.0665
 30
0.0
 11
16813.9335
 21
-34901.9335
 31
0.0
 12
18326.0665
 22
-33814.0665
 32
0.0
 13
18113.9335
 23
-33601.9335
 33
0.0
  0
SOLID
  5
352
330
17
100
AcDbEntity
  8
0
100
AcDbTrace
 10
14470.0
 20
-37670.1320343555
 30
0.0
 11
14170.0
 21
-37545.8679656445
 31
0.0
 12
17026.0665
 22
-35114.0665
 32
0.0
 13
16813.9335
 23
-34901.9335
 33
0.0
  0
SOLID
  5
353
330
17
100
AcDbEntity
  8
0
100
AcDbTrace
 10
14170.0
 20
-53814.8679656445
 30
0.0
 11
14170.0
 21
-37545.8679656445
 31
0.0
 12
14470.0
 22
-53939.1320343555
 32
0.0
 13
14470.0
 23
-37670.1320343555
 33
0.0
  0
SOLID
  5
354
330
17
100
AcDbEntity
  8
0
100
AcDbTrace
 10
14120.0
 20
-54289.1320343555
 30
0.0
 11
13820.0
 21
-54164.8679656445
 31
0.0
 12
14470.0
 22
-53939.1320343555
 32
0.0
 13
14170.0
 23
-53814.8679656445
 33
0.0
  0
SOLID
  5
355
330
17
100
AcDbEntity
  8
0
100
AcDbTrace
 10
13820.0
 20
-58103.8679656445
 30
0.0
 11
13820.0
 21
-54164.8679656445
 31
0.0
 12
14120.0
 22
-58228.1320343555
 32
0.0
 13
14120.0
 23
-54289.1320343555
 33
0.0
  0
SOLID
  5
356
330
17
100
AcDbEntity
  8
0
100
AcDbTrace
 10
12806.0665
 20
-59542.0665
 30
0.0
 11
12593.9335
 21
-59329.9335
 31
0.0
 12
14120.0
 22
-58228.1320343555
 32
0.0
 13
13820.0
 23
-58103.8679656445
 33
0.0
  0
SOLID
  5
357
330
17
100
AcDbEntity
  8
0
100
AcDbTrace
 10
20882.1320343555
 20
-32558.0
 30
0.0
 11
20757.8679656445
 21
-32258.0
 31
0.0
 12
22120.0
 22
-32558.0
 32
0.0
 13
22120.0
 23
-32258.0
 33
0.0
  0
SOLID
  5
358
330
17
100
AcDbEntity
  8
0
100
AcDbTrace
 10
19626.0665
 20
-33814.0665
 30
0.0
 11
19413.9335
 21
-33601.9335
 31
0.0
 12
20882.1320343555
 22
-32558.0
 32
0.0
 13
20757.8679656445
 23
-32258.0
 33
0.0
  0
SOLID
  5
359
330
17
100
AcDbEntity
  8
0
100
AcDbTrace
 10
18326.0665
 20
-35114.0665
 30
0.0
 11
18113.9335
 21
-34901.9335
 31
0.0
 12
19626.0665
 22
-33814.0665
 32
0.0
 13
19413.9335
 23
-33601.9335
 33
0.0
  0
SOLID
  5
35A
330
17
100
AcDbEntity
  8
0
100
AcDbTrace
 10
17026.0665
 20
-36414.0665
 30
0.0
 11
16813.9335
 21
-36201.9335
 31
0.0
 12
18326.0665
 22
-35114.0665
 32
0.0
 13
18113.9335
 23
-34901.9335
 33
0.0
  0
SOLID
  5
35B
330
17
100
AcDbEntity
  8
0
100
AcDbTrace
 10
15770.0
 20
-37670.1320343555
 30
0.0
 11
15470.0
 21
-37545.8679656445
 31
0.0
 12
17026.0665
 22
-36414.0665
 32
0.0
 13
16813.9335
 23
-36201.9335
 33
0.0
  0
SOLID
  5
35C
330
17
100
AcDbEntity
  8
0
100
AcDbTrace
 10
15470.0
 20
-53784.8679656445
 30
0.0
 11
15470.0
 21
-37545.8679656445
 31
0.0
 12
15770.0
 22
-53909.1320343555
 32
0.0
 13
15770.0
 23
-37670.1320343555
 33
0.0
  0
SOLID
  5
35D
330
17
100
AcDbEntity
  8
0
100
AcDbTrace
 10
15390.0
 20
-54289.1320343555
 30
0.0
 11
15090.0
 21
-54164.8679656445
 31
0.0
 12
15770.0
 22
-53909.1320343555
 32
0.0
 13
15470.0
 23
-53784.8679656445
 33
0.0
  0
SOLID
  5
35E
330
17
100
AcDbEntity
  8
0
100
AcDbTrace
 10
15090.0
 20
-56896.0
 30
0.0
 11
15090.0
 21
-54164.8679656445
 31
0.0
 12
15390.0
 22
-56896.0
 32
0.0
 13
15390.0
 23
-54289.1320343555
 33
0.0
  0
SOLID
  5
35F
330
17
100
AcDbEntity
  8
0
100
AcDbTrace
 10
20882.1320343555
 20
-33858.0
 30
0.0
 11
20757.8679656445
 21
-33558.0
 31
0.0
 12
22120.0
 22
-33858.0
 32
0.0
 13
22120.0
 23
-33558.0
 33
0.0
  0
SOLID
  5
360
330
17
100
AcDbEntity
  8
0
100
AcDbTrace
 10
19626.0665
 20
-35114.0665
 30
0.0
 11
19413.9335
 21
-34901.9335
 31
0.0
 12
20882.1320343555
 22
-33858.0
 32
0.0
 13
20757.8679656445
 23
-33558.0
 33
0.0
  0
SOLID
  5
361
330
17
100
AcDbEntity
  8
0
100
AcDbTrace
 10
18326.0665
 20
-36414.0665
 30
0.0
 11
18113.9335
 21
-36201.9335
 31
0.0
 12
19626.0665
 22
-35114.0665
 32
0.0
 13
19413.9335
 23
-34901.9335
 33
0.0
  0
SOLID
  5
362
330
17
100
AcDbEntity
  8
0
100
AcDbTrace
 10
17070.0
 20
-37670.1320343555
 30
0.0
 11
16770.0
 21
-37545.8679656445
 31
0.0
 12
18326.0665
 22
-36414.0665
 32
0.0
 13
18113.9335
 23
-36201.9335
 33
0.0
  0
SOLID
  5
363
330
17
100
AcDbEntity
  8
0
100
AcDbTrace
 10
16770.0
 20
-38908.0
 30
0.0
 11
16770.0
 21
-37545.8679656445
 31
0.0
 12
17070.0
 22
-38908.0
 32
0.0
 13
17070.0
 23
-37670.1320343555
 33
0.0
  0
SOLID
  5
364
330
17
100
AcDbEntity
  8
0
100
AcDbTrace
 10
16770.0
 20
-53754.8679656445
 30
0.0
 11
16770.0
 21
-38908.0
 31
0.0
 12
17070.0
 22
-53879.1320343555
 32
0.0
 13
17070.0
 23
-38908.0
 33
0.0
  0
SOLID
  5
365
330
17
100
AcDbEntity
  8
0
100
AcDbTrace
 10
16660.0
 20
-54289.1320343555
 30
0.0
 11
16360.0
 21
-54164.8679656445
 31
0.0
 12
17070.0
 22
-53879.1320343555
 32
0.0
 13
16770.0
 23
-53754.8679656445
 33
0.0
  0
SOLID
  5
366
330
17
100
AcDbEntity
  8
0
100
AcDbTrace
 10
16360.0
 20
-58103.8679656445
 30
0.0
 11
16360.0
 21
-54164.8679656445
 31
0.0
 12
16660.0
 22
-58228.1320343555
 32
0.0
 13
16660.0
 23
-54289.1320343555
 33
0.0
  0
SOLID
  5
367
330
17
100
AcDbEntity
  8
0
100
AcDbTrace
 10
15346.0665
 20
-59542.0665
 30
0.0
 11
15133.9335
 21
-59329.9335
 31
0.0
 12
16660.0
 22
-58228.1320343555
 32
0.0
 13
16360.0
 23
-58103.8679656445
 33
0.0
  0
SOLID
  5
368
330
17
100
AcDbEntity
  8
0
100
AcDbTrace
 10
20882.1320343555
 20
-35158.0
 30
0.0
 11
20757.8679656445
 21
-34858.0
 31
0.0
 12
22120.0
 22
-35158.0
 32
0.0
 13
22120.0
 23
-34858.0
 33
0.0
  0
SOLID
  5
369
330
17
100
AcDbEntity
  8
0
100
AcDbTrace
 10
19626.0665
 20
-36414.0665
 30
0.0
 11
19413.9335
 21
-36201.9335
 31
0.0
 12
20882.1320343555
 22
-35158.0
 32
0.0
 13
20757.8679656445
 23
-34858.0
 33
0.0
  0
SOLID
  5
36A
330
17
100
AcDbEntity
  8
0
100
AcDbTrace
 10
18370.0
 20
-37670.1320343555
 30
0.0
 11
18070.0
 21
-37545.8679656445
 31
0.0
 12
19626.0665
 22
-36414.0665
 32
0.0
 13
19413.9335
 23
-36201.9335
 33
0.0
  0
SOLID
  5
36B
330
17
100
AcDbEntity
  8
0
100
AcDbTrace
 10
18070.0
 20
-38908.0
 30
0.0
 11
18070.0
 21
-37545.8679656445
 31
0.0
 12
18370.0
 22
-38908.0
 32
0.0
 13
18370.0
 23
-37670.1320343555
 33
0.0
  0
SOLID
  5
36C
330
17
100
AcDbEntity
  8
0
100
AcDbTrace
 10
18070.0
 20
-40208.0
 30
0.0
 11
18070.0
 21
-38908.0
 31
0.0
 12
18370.0
 22
-40208.0
 32
0.0
 13
18370.0
 23
-38908.0
 33
0.0
  0
SOLID
  5
36D
330
17
100
AcDbEntity
  8
0
100
AcDbTrace
 10
18070.0
 20
-45470.1320343555
 30
0.0
 11
18070.0
 21
-40208.0
 31
0.0
 12
18370.0
 22
-45345.8679656445
 32
0.0
 13
18370.0
 23
-40208.0
 33
0.0
  0
SOLID
  5
36E
330
17
100
AcDbEntity
  8
0
100
AcDbTrace
 10
18070.0
 20
-45470.1320343555
 30
0.0
 11
18370.0
 21
-45345.8679656445
 31
0.0
 12
19370.0
 22
-46770.1320343555
 32
0.0
 13
19670.0
 23
-46645.8679656445
 33
0.0
  0
SOLID
  5
36F
330
17
100
AcDbEntity
  8
0
100
AcDbTrace
 10
19370.0
 20
-53694.8679656445
 30
0.0
 11
19370.0
 21
-46770.1320343555
 31
0.0
 12
19670.0
 22
-53819.1320343555
 32
0.0
 13
19670.0
 23
-46645.8679656445
 33
0.0
  0
SOLID
  5
370
330
17
100
AcDbEntity
  8
0
100
AcDbTrace
 10
19200.0
 20
-54289.1320343555
 30
0.0
 11
18900.0
 21
-54164.8679656445
 31
0.0
 12
19670.0
 22
-53819.1320343555
 32
0.0
 13
19370.0
 23
-53694.8679656445
 33
0.0
  0
SOLID
  5
371
330
17
100
AcDbEntity
  8
0
100
AcDbTrace
 10
18900.0
 20
-58103.8679656445
 30
0.0
 11
18900.0
 21
-54164.8679656445
 31
0.0
 12
19200.0
 22
-58228.1320343555
 32
0.0
 13
19200.0
 23
-54289.1320343555
 33
0.0
  0
SOLID
  5
372
330
17
100
AcDbEntity
  8
0
100
AcDbTrace
 10
17886.0665
 20
-59542.0665
 30
0.0
 11
17673.9335
 21
-59329.9335
 31
0.0
 12
19200.0
 22
-58228.1320343555
 32
0.0
 13
18900.0
 23
-58103.8679656445
 33
0.0
  0
SOLID
  5
373
330
17
100
AcDbEntity
  8
0
100
AcDbTrace
 10
20882.1320343555
 20
-36458.0
 30
0.0
 11
20757.8679656445
 21
-36158.0
 31
0.0
 12
22120.0
 22
-36458.0
 32
0.0
 13
22120.0
 23
-36158.0
 33
0.0
  0
SOLID
  5
374
330
17
100
AcDbEntity
  8
0
100
AcDbTrace
 10
19670.0
 20
-37670.1320343555
 30
0.0
 11
19370.0
 21
-37545.8679656445
 31
0.0
 12
20882.1320343555
 22
-36458.0
 32
0.0
 13
20757.8679656445
 23
-36158.0
 33
0.0
  0
SOLID
  5
375
330
17
100
AcDbEntity
  8
0
100
AcDbTrace
 10
19370.0
 20
-40270.1320343555
 30
0.0
 11
19370.0
 21
-37545.8679656445
 31
0.0
 12
19670.0
 22
-40145.8679656445
 32
0.0
 13
19670.0
 23
-37670.1320343555
 33
0.0
  0
SOLID
  5
376
330
17
100
AcDbEntity
  8
0
100
AcDbTrace
 10
19370.0
 20
-40270.1320343555
 30
0.0
 11
19670.0
 21
-40145.8679656445
 31
0.0
 12
20670.0
 22
-41570.1320343555
 32
0.0
 13
20970.0
 23
-41445.8679656445
 33
0.0
  0
SOLID
  5
377
330
17
100
AcDbEntity
  8
0
100
AcDbTrace
 10
20670.0
 20
-42808.0
 30
0.0
 11
20670.0
 21
-41570.1320343555
 31
0.0
 12
20970.0
 22
-42808.0
 32
0.0
 13
20970.0
 23
-41445.8679656445
 33
0.0
  0
SOLID
  5
378
330
17
100
AcDbEntity
  8
0
100
AcDbTrace
 10
20670.0
 20
-44108.0
 30
0.0
 11
20670.0
 21
-42808.0
 31
0.0
 12
20970.0
 22
-44108.0
 32
0.0
 13
20970.0
 23
-42808.0
 33
0.0
  0
SOLID
  5
379
330
17
100
AcDbEntity
  8
0
100
AcDbTrace
 10
20670.0
 20
-45408.0
 30
0.0
 11
20670.0
 21
-44108.0
 31
0.0
 12
20970.0
 22
-45408.0
 32
0.0
 13
20970.0
 23
-44108.0
 33
0.0
  0
SOLID
  5
37A
330
17
100
AcDbEntity
  8
0
100
AcDbTrace
 10
20670.0
 20
-53664.8679656445
 30
0.0
 11
20670.0
 21
-45408.0
 31
0.0
 12
20970.0
 22
-53789.1320343555
 32
0.0
 13
20970.0
 23
-45408.0
 33
0.0
  0
SOLID
  5
37B
330
17
100
AcDbEntity
  8
0
100
AcDbTrace
 10
20470.0
 20
-54289.1320343555
 30
0.0
 11
20170.0
 21
-54164.8679656445
 31
0.0
 12
20970.0
 22
-53789.1320343555
 32
0.0
 13
20670.0
 23
-53664.8679656445
 33
0.0
  0
SOLID
  5
37C
330
17
100
AcDbEntity
  8
0
100
AcDbTrace
 10
20170.0
 20
-56896.0
 30
0.0
 11
20170.0
 21
-54164.8679656445
 31
0.0
 12
20470.0
 22
-56896.0
 32
0.0
 13
20470.0
 23
-54289.1320343555
 33
0.0
  0
SOLID
  5
37D
330
17
100
AcDbEntity
  8
0
100
AcDbTrace
 10
21532.1320343555
 20
-37758.0
 30
0.0
 11
21407.8679656445
 21
-37458.0
 31
0.0
 12
22120.0
 22
-37758.0
 32
0.0
 13
22120.0
 23
-37458.0
 33
0.0
  0
SOLID
  5
37E
330
17
100
AcDbEntity
  8
0
100
AcDbTrace
 10
20970.0
 20
-38320.1320343555
 30
0.0
 11
20670.0
 21
-38195.8679656445
 31
0.0
 12
21532.1320343555
 22
-37758.0
 32
0.0
 13
21407.8679656445
 23
-37458.0
 33
0.0
  0
SOLID
  5
37F
330
17
100
AcDbEntity
  8
0
100
AcDbTrace
 10
20670.0
 20
-40270.1320343555
 30
0.0
 11
20670.0
 21
-38195.8679656445
 31
0.0
 12
20970.0
 22
-40145.8679656445
 32
0.0
 13
20970.0
 23
-38320.1320343555
 33
0.0
  0
SOLID
  5
380
330
17
100
AcDbEntity
  8
0
100
AcDbTrace
 10
20670.0
 20
-40270.1320343555
 30
0.0
 11
20970.0
 21
-40145.8679656445
 31
0.0
 12
21970.0
 22
-41570.1320343555
 32
0.0
 13
22270.0
 23
-41445.8679656445
 33
0.0
  0
SOLID
  5
381
330
17
100
AcDbEntity
  8
0
100
AcDbTrace
 10
21970.0
 20
-42808.0
 30
0.0
 11
21970.0
 21
-41570.1320343555
 31
0.0
 12
22270.0
 22
-42808.0
 32
0.0
 13
22270.0
 23
-41445.8679656445
 33
0.0
  0
SOLID
  5
382
330
17
100
AcDbEntity
  8
0
100
AcDbTrace
 10
21970.0
 20
-44108.0
 30
0.0
 11
21970.0
 21
-42808.0
 31
0.0
 12
22270.0
 22
-44108.0
 32
0.0
 13
22270.0
 23
-42808.0
 33
0.0
  0
SOLID
  5
383
330
17
100
AcDbEntity
  8
0
100
AcDbTrace
 10
21970.0
 20
-45408.0
 30
0.0
 11
21970.0
 21
-44108.0
 31
0.0
 12
22270.0
 22
-45408.0
 32
0.0
 13
22270.0
 23
-44108.0
 33
0.0
  0
SOLID
  5
384
330
17
100
AcDbEntity
  8
0
100
AcDbTrace
 10
21970.0
 20
-53634.8679656445
 30
0.0
 11
21970.0
 21
-45408.0
 31
0.0
 12
22270.0
 22
-53759.1320343555
 32
0.0
 13
22270.0
 23
-45408.0
 33
0.0
  0
SOLID
  5
385
330
17
100
AcDbEntity
  8
0
100
AcDbTrace
 10
21740.0
 20
-54289.1320343555
 30
0.0
 11
21440.0
 21
-54164.8679656445
 31
0.0
 12
22270.0
 22
-53759.1320343555
 32
0.0
 13
21970.0
 23
-53634.8679656445
 33
0.0
  0
SOLID
  5
386
330
17
100
AcDbEntity
  8
0
100
AcDbTrace
 10
21440.0
 20
-58103.8679656445
 30
0.0
 11
21440.0
 21
-54164.8679656445
 31
0.0
 12
21740.0
 22
-58228.1320343555
 32
0.0
 13
21740.0
 23
-54289.1320343555
 33
0.0
  0
SOLID
  5
387
330
17
100
AcDbEntity
  8
0
100
AcDbTrace
 10
20426.0665
 20
-59542.0665
 30
0.0
 11
20213.9335
 21
-59329.9335
 31
0.0
 12
21740.0
 22
-58228.1320343555
 32
0.0
 13
21440.0
 23
-58103.8679656445
 33
0.0
  0
SOLID
  5
388
330
17
100
AcDbEntity
  8
0
100
AcDbTrace
 10
23270.0
 20
-40208.0
 30
0.0
 11
23270.0
 21
-38908.0
 31
0.0
 12
23570.0
 22
-40208.0
 32
0.0
 13
23570.0
 23
-38908.0
 33
0.0
  0
SOLID
  5
389
330
17
100
AcDbEntity
  8
0
100
AcDbTrace
 10
23270.0
 20
-41508.0
 30
0.0
 11
23270.0
 21
-40208.0
 31
0.0
 12
23570.0
 22
-41508.0
 32
0.0
 13
23570.0
 23
-40208.0
 33
0.0
  0
SOLID
  5
38A
330
17
100
AcDbEntity
  8
0
100
AcDbTrace
 10
23270.0
 20
-42808.0
 30
0.0
 11
23270.0
 21
-41508.0
 31
0.0
 12
23570.0
 22
-42808.0
 32
0.0
 13
23570.0
 23
-41508.0
 33
0.0
  0
SOLID
  5
38B
330
17
100
AcDbEntity
  8
0
100
AcDbTrace
 10
23270.0
 20
-53604.8679656445
 30
0.0
 11
23270.0
 21
-42808.0
 31
0.0
 12
23570.0
 22
-53729.1320343555
 32
0.0
 13
23570.0
 23
-42808.0
 33
0.0
  0
SOLID
  5
38C
330
17
100
AcDbEntity
  8
0
100
AcDbTrace
 10
23010.0
 20
-54289.1320343555
 30
0.0
 11
22710.0
 21
-54164.8679656445
 31
0.0
 12
23570.0
 22
-53729.1320343555
 32
0.0
 13
23270.0
 23
-53604.8679656445
 33
0.0
  0
SOLID
  5
38D
330
17
100
AcDbEntity
  8
0
100
AcDbTrace
 10
22710.0
 20
-56896.0
 30
0.0
 11
22710.0
 21
-54164.8679656445
 31
0.0
 12
23010.0
 22
-56896.0
 32
0.0
 13
23010.0
 23
-54289.1320343555
 33
0.0
  0
SOLID
  5
38E
330
17
100
AcDbEntity
  8
0
100
AcDbTrace
 10
25870.0
 20
-33708.0
 30
0.0
 11
25870.0
 21
-32408.0
 31
0.0
 12
26170.0
 22
-33708.0
 32
0.0
 13
26170.0
 23
-32408.0
 33
0.0
  0
SOLID
  5
38F
330
17
100
AcDbEntity
  8
0
100
AcDbTrace
 10
25870.0
 20
-35008.0
 30
0.0
 11
25870.0
 21
-33708.0
 31
0.0
 12
26170.0
 22
-35008.0
 32
0.0
 13
26170.0
 23
-33708.0
 33
0.0
  0
SOLID
  5
390
330
17
100
AcDbEntity
  8
0
100
AcDbTrace
 10
25870.0
 20
-36308.0
 30
0.0
 11
25870.0
 21
-35008.0
 31
0.0
 12
26170.0
 22
-36308.0
 32
0.0
 13
26170.0
 23
-35008.0
 33
0.0
  0
SOLID
  5
391
330
17
100
AcDbEntity
  8
0
100
AcDbTrace
 10
25870.0
 20
-53544.8679656445
 30
0.0
 11
25870.0
 21
-36308.0
 31
0.0
 12
26170.0
 22
-53669.1320343555
 32
0.0
 13
26170.0
 23
-36308.0
 33
0.0
  0
SOLID
  5
392
330
17
100
AcDbEntity
  8
0
100
AcDbTrace
 10
25550.0
 20
-54289.1320343555
 30
0.0
 11
25250.0
 21
-54164.8679656445
 31
0.0
 12
26170.0
 22
-53669.1320343555
 32
0.0
 13
25870.0
 23
-53544.8679656445
 33
0.0
  0
SOLID
  5
393
330
17
100
AcDbEntity
  8
0
100
AcDbTrace
 10
25250.0
 20
-56896.0
 30
0.0
 11
25250.0
 21
-54164.8679656445
 31
0.0
 12
25550.0
 22
-56896.0
 32
0.0
 13
25550.0
 23
-54289.1320343555
 33
0.0
  0
SOLID
  5
394
330
17
100
AcDbEntity
  8
0
100
AcDbTrace
 10
27170.0
 20
-33708.0
 30
0.0
 11
27170.0
 21
-32408.0
 31
0.0
 12
27470.0
 22
-33708.0
 32
0.0
 13
27470.0
 23
-32408.0
 33
0.0
  0
SOLID
  5
395
330
17
100
AcDbEntity
  8
0
100
AcDbTrace
 10
27170.0
 20
-35008.0
 30
0.0
 11
27170.0
 21
-33708.0
 31
0.0
 12
27470.0
 22
-35008.0
 32
0.0
 13
27470.0
 23
-33708.0
 33
0.0
  0
SOLID
  5
396
330
17
100
AcDbEntity
  8
0
100
AcDbTrace
 10
27170.0
 20
-36308.0
 30
0.0
 11
27170.0
 21
-35008.0
 31
0.0
 12
27470.0
 22
-36308.0
 32
0.0
 13
27470.0
 23
-35008.0
 33
0.0
  0
SOLID
  5
397
330
17
100
AcDbEntity
  8
0
100
AcDbTrace
 10
27170.0
 20
-53669.1320343555
 30
0.0
 11
27170.0
 21
-36308.0
 31
0.0
 12
27470.0
 22
-53544.8679656445
 32
0.0
 13
27470.0
 23
-36308.0
 33
0.0
  0
SOLID
  5
398
330
17
100
AcDbEntity
  8
0
100
AcDbTrace
 10
27170.0
 20
-53669.1320343555
 30
0.0
 11
27470.0
 21
-53544.8679656445
 31
0.0
 12
27790.0
 22
-54289.1320343555
 32
0.0
 13
28090.0
 23
-54164.8679656445
 33
0.0
  0
SOLID
  5
399
330
17
100
AcDbEntity
  8
0
100
AcDbTrace
 10
27790.0
 20
-56896.0
 30
0.0
 11
27790.0
 21
-54289.1320343555
 31
0.0
 12
28090.0
 22
-56896.0
 32
0.0
 13
28090.0
 23
-54164.8679656445
 33
0.0
  0
SOLID
  5
39A
330
17
100
AcDbEntity
  8
0
100
AcDbTrace
 10
28470.0
 20
-33708.0
 30
0.0
 11
28470.0
 21
-32408.0
 31
0.0
 12
28770.0
 22
-33708.0
 32
0.0
 13
28770.0
 23
-32408.0
 33
0.0
  0
SOLID
  5
39B
330
17
100
AcDbEntity
  8
0
100
AcDbTrace
 10
28470.0
 20
-35008.0
 30
0.0
 11
28470.0
 21
-33708.0
 31
0.0
 12
28770.0
 22
-35008.0
 32
0.0
 13
28770.0
 23
-33708.0
 33
0.0
  0
SOLID
  5
39C
330
17
100
AcDbEntity
  8
0
100
AcDbTrace
 10
28470.0
 20
-36308.0
 30
0.0
 11
28470.0
 21
-35008.0
 31
0.0
 12
28770.0
 22
-36308.0
 32
0.0
 13
28770.0
 23
-35008.0
 33
0.0
  0
SOLID
  5
39D
330
17
100
AcDbEntity
  8
0
100
AcDbTrace
 10
28470.0
 20
-53699.1320343555
 30
0.0
 11
28470.0
 21
-36308.0
 31
0.0
 12
28770.0
 22
-53574.8679656445
 32
0.0
 13
28770.0
 23
-36308.0
 33
0.0
  0
SOLID
  5
39E
330
17
100
AcDbEntity
  8
0
100
AcDbTrace
 10
28470.0
 20
-53699.1320343555
 30
0.0
 11
28770.0
 21
-53574.8679656445
 31
0.0
 12
29060.0
 22
-54289.1320343555
 32
0.0
 13
29360.0
 23
-54164.8679656445
 33
0.0
  0
SOLID
  5
39F
330
17
100
AcDbEntity
  8
0
100
AcDbTrace
 10
29060.0
 20
-58103.8679656445
 30
0.0
 11
29060.0
 21
-54289.1320343555
 31
0.0
 12
29360.0
 22
-58228.1320343555
 32
0.0
 13
29360.0
 23
-54164.8679656445
 33
0.0
  0
SOLID
  5
3A0
330
17
100
AcDbEntity
  8
0
100
AcDbTrace
 10
28046.0665
 20
-59542.0665
 30
0.0
 11
27833.9335
 21
-59329.9335
 31
0.0
 12
29360.0
 22
-58228.1320343555
 32
0.0
 13
29060.0
 23
-58103.8679656445
 33
0.0
  0
SOLID
  5
3A1
330
17
100
AcDbEntity
  8
0
100
AcDbTrace
 10
29770.0
 20
-33708.0
 30
0.0
 11
29770.0
 21
-32408.0
 31
0.0
 12
30070.0
 22
-33708.0
 32
0.0
 13
30070.0
 23
-32408.0
 33
0.0
  0
SOLID
  5
3A2
330
17
100
AcDbEntity
  8
0
100
AcDbTrace
 10
29770.0
 20
-35008.0
 30
0.0
 11
29770.0
 21
-33708.0
 31
0.0
 12
30070.0
 22
-35008.0
 32
0.0
 13
30070.0
 23
-33708.0
 33
0.0
  0
SOLID
  5
3A3
330
17
100
AcDbEntity
  8
0
100
AcDbTrace
 10
29770.0
 20
-36308.0
 30
0.0
 11
29770.0
 21
-35008.0
 31
0.0
 12
30070.0
 22
-36308.0
 32
0.0
 13
30070.0
 23
-35008.0
 33
0.0
  0
SOLID
  5
3A4
330
17
100
AcDbEntity
  8
0
100
AcDbTrace
 10
29770.0
 20
-53729.1320343555
 30
0.0
 11
29770.0
 21
-36308.0
 31
0.0
 12
30070.0
 22
-53604.8679656445
 32
0.0
 13
30070.0
 23
-36308.0
 33
0.0
  0
SOLID
  5
3A5
330
17
100
AcDbEntity
  8
0
100
AcDbTrace
 10
29770.0
 20
-53729.1320343555
 30
0.0
 11
30070.0
 21
-53604.8679656445
 31
0.0
 12
30330.0
 22
-54289.1320343555
 32
0.0
 13
30630.0
 23
-54164.8679656445
 33
0.0
  0
SOLID
  5
3A6
330
17
100
AcDbEntity
  8
0
100
AcDbTrace
 10
30330.0
 20
-56896.0
 30
0.0
 11
30330.0
 21
-54289.1320343555
 31
0.0
 12
30630.0
 22
-56896.0
 32
0.0
 13
30630.0
 23
-54164.8679656445
 33
0.0
  0
SOLID
  5
3A7
330
17
100
AcDbEntity
  8
0
100
AcDbTrace
 10
31070.0
 20
-33708.0
 30
0.0
 11
31070.0
 21
-32408.0
 31
0.0
 12
31370.0
 22
-33708.0
 32
0.0
 13
31370.0
 23
-32408.0
 33
0.0
  0
SOLID
  5
3A8
330
17
100
AcDbEntity
  8
0
100
AcDbTrace
 10
31070.0
 20
-35008.0
 30
0.0
 11
31070.0
 21
-33708.0
 31
0.0
 12
31370.0
 22
-35008.0
 32
0.0
 13
31370.0
 23
-33708.0
 33
0.0
  0
SOLID
  5
3A9
330
17
100
AcDbEntity
  8
0
100
AcDbTrace
 10
31070.0
 20
-36308.0
 30
0.0
 11
31070.0
 21
-35008.0
 31
0.0
 12
31370.0
 22
-36308.0
 32
0.0
 13
31370.0
 23
-35008.0
 33
0.0
  0
SOLID
  5
3AA
330
17
100
AcDbEntity
  8
0
100
AcDbTrace
 10
31070.0
 20
-53759.1320343555
 30
0.0
 11
31070.0
 21
-36308.0
 31
0.0
 12
31370.0
 22
-53634.8679656445
 32
0.0
 13
31370.0
 23
-36308.0
 33
0.0
  0
SOLID
  5
3AB
330
17
100
AcDbEntity
  8
0
100
AcDbTrace
 10
31070.0
 20
-53759.1320343555
 30
0.0
 11
31370.0
 21
-53634.8679656445
 31
0.0
 12
31600.0
 22
-54289.1320343555
 32
0.0
 13
31900.0
 23
-54164.8679656445
 33
0.0
  0
SOLID
  5
3AC
330
17
100
AcDbEntity
  8
0
100
AcDbTrace
 10
31600.0
 20
-58228.1320343555
 30
0.0
 11
31600.0
 21
-54289.1320343555
 31
0.0
 12
31900.0
 22
-58103.8679656445
 32
0.0
 13
31900.0
 23
-54164.8679656445
 33
0.0
  0
SOLID
  5
3AD
330
17
100
AcDbEntity
  8
0
100
AcDbTrace
 10
31600.0
 20
-58228.1320343555
 30
0.0
 11
31900.0
 21
-58103.8679656445
 31
0.0
 12
32913.9335
 22
-59542.0665
 32
0.0
 13
33126.0665
 23
-59329.9335
 33
0.0
  0
SOLID
  5
3AE
330
17
100
AcDbEntity
  8
0
100
AcDbTrace
 10
32370.0
 20
-33708.0
 30
0.0
 11
32370.0
 21
-32408.0
 31
0.0
 12
32670.0
 22
-33708.0
 32
0.0
 13
32670.0
 23
-32408.0
 33
0.0
  0
SOLID
  5
3AF
330
17
100
AcDbEntity
  8
0
100
AcDbTrace
 10
32370.0
 20
-35008.0
 30
0.0
 11
32370.0
 21
-33708.0
 31
0.0
 12
32670.0
 22
-35008.0
 32
0.0
 13
32670.0
 23
-33708.0
 33
0.0
  0
SOLID
  5
3B0
330
17
100
AcDbEntity
  8
0
100
AcDbTrace
 10
32370.0
 20
-36308.0
 30
0.0
 11
32370.0
 21
-35008.0
 31
0.0
 12
32670.0
 22
-36308.0
 32
0.0
 13
32670.0
 23
-35008.0
 33
0.0
  0
SOLID
  5
3B1
330
17
100
AcDbEntity
  8
0
100
AcDbTrace
 10
32370.0
 20
-53789.1320343555
 30
0.0
 11
32370.0
 21
-36308.0
 31
0.0
 12
32670.0
 22
-53664.8679656445
 32
0.0
 13
32670.0
 23
-36308.0
 33
0.0
  0
SOLID
  5
3B2
330
17
100
AcDbEntity
  8
0
100
AcDbTrace
 10
32370.0
 20
-53789.1320343555
 30
0.0
 11
32670.0
 21
-53664.8679656445
 31
0.0
 12
32870.0
 22
-54289.1320343555
 32
0.0
 13
33170.0
 23
-54164.8679656445
 33
0.0
  0
SOLID
  5
3B3
330
17
100
AcDbEntity
  8
0
100
AcDbTrace
 10
32870.0
 20
-56896.0
 30
0.0
 11
32870.0
 21
-54289.1320343555
 31
0.0
 12
33170.0
 22
-56896.0
 32
0.0
 13
33170.0
 23
-54164.8679656445
 33
0.0
  0
SOLID
  5
3B4
330
17
100
AcDbEntity
  8
0
100
AcDbTrace
 10
33670.0
 20
-33708.0
 30
0.0
 11
33670.0
 21
-32408.0
 31
0.0
 12
33970.0
 22
-33708.0
 32
0.0
 13
33970.0
 23
-32408.0
 33
0.0
  0
SOLID
  5
3B5
330
17
100
AcDbEntity
  8
0
100
AcDbTrace
 10
33670.0
 20
-35008.0
 30
0.0
 11
33670.0
 21
-33708.0
 31
0.0
 12
33970.0
 22
-35008.0
 32
0.0
 13
33970.0
 23
-33708.0
 33
0.0
  0
SOLID
  5
3B6
330
17
100
AcDbEntity
  8
0
100
AcDbTrace
 10
33670.0
 20
-36308.0
 30
0.0
 11
33670.0
 21
-35008.0
 31
0.0
 12
33970.0
 22
-36308.0
 32
0.0
 13
33970.0
 23
-35008.0
 33
0.0
  0
SOLID
  5
3B7
330
17
100
AcDbEntity
  8
0
100
AcDbTrace
 10
33670.0
 20
-53819.1320343555
 30
0.0
 11
33670.0
 21
-36308.0
 31
0.0
 12
33970.0
 22
-53694.8679656445
 32
0.0
 13
33970.0
 23
-36308.0
 33
0.0
  0
SOLID
  5
3B8
330
17
100
AcDbEntity
  8
0
100
AcDbTrace
 10
33670.0
 20
-53819.1320343555
 30
0.0
 11
33970.0
 21
-53694.8679656445
 31
0.0
 12
34140.0
 22
-54289.1320343555
 32
0.0
 13
34440.0
 23
-54164.8679656445
 33
0.0
  0
SOLID
  5
3B9
330
17
100
AcDbEntity
  8
0
100
AcDbTrace
 10
34140.0
 20
-58228.1320343555
 30
0.0
 11
34140.0
 21
-54289.1320343555
 31
0.0
 12
34440.0
 22
-58103.8679656445
 32
0.0
 13
34440.0
 23
-54164.8679656445
 33
0.0
  0
SOLID
  5
3BA
330
17
100
AcDbEntity
  8
0
100
AcDbTrace
 10
34140.0
 20
-58228.1320343555
 30
0.0
 11
34440.0
 21
-58103.8679656445
 31
0.0
 12
35453.9335
 22
-59542.0665
 32
0.0
 13
35666.0665
 23
-59329.9335
 33
0.0
  0
SOLID
  5
3BB
330
17
100
AcDbEntity
  8
0
100
AcDbTrace
 10
34970.0
 20
-33708.0
 30
0.0
 11
34970.0
 21
-32408.0
 31
0.0
 12
35270.0
 22
-33708.0
 32
0.0
 13
35270.0
 23
-32408.0
 33
0.0
  0
SOLID
  5
3BC
330
17
100
AcDbEntity
  8
0
100
AcDbTrace
 10
34970.0
 20
-35008.0
 30
0.0
 11
34970.0
 21
-33708.0
 31
0.0
 12
35270.0
 22
-35008.0
 32
0.0
 13
35270.0
 23
-33708.0
 33
0.0
  0
SOLID
  5
3BD
330
17
100
AcDbEntity
  8
0
100
AcDbTrace
 10
34970.0
 20
-36308.0
 30
0.0
 11
34970.0
 21
-35008.0
 31
0.0
 12
35270.0
 22
-36308.0
 32
0.0
 13
35270.0
 23
-35008.0
 33
0.0
  0
SOLID
  5
3BE
330
17
100
AcDbEntity
  8
0
100
AcDbTrace
 10
34970.0
 20
-53849.1320343555
 30
0.0
 11
34970.0
 21
-36308.0
 31
0.0
 12
35270.0
 22
-53724.8679656445
 32
0.0
 13
35270.0
 23
-36308.0
 33
0.0
  0
SOLID
  5
3BF
330
17
100
AcDbEntity
  8
0
100
AcDbTrace
 10
34970.0
 20
-53849.1320343555
 30
0.0
 11
35270.0
 21
-53724.8679656445
 31
0.0
 12
35410.0
 22
-54289.1320343555
 32
0.0
 13
35710.0
 23
-54164.8679656445
 33
0.0
  0
SOLID
  5
3C0
330
17
100
AcDbEntity
  8
0
100
AcDbTrace
 10
35410.0
 20
-56896.0
 30
0.0
 11
35410.0
 21
-54289.1320343555
 31
0.0
 12
35710.0
 22
-56896.0
 32
0.0
 13
35710.0
 23
-54164.8679656445
 33
0.0
  0
SOLID
  5
3C1
330
17
100
AcDbEntity
  8
0
100
AcDbTrace
 10
36270.0
 20
-33708.0
 30
0.0
 11
36270.0
 21
-32408.0
 31
0.0
 12
36570.0
 22
-33708.0
 32
0.0
 13
36570.0
 23
-32408.0
 33
0.0
  0
SOLID
  5
3C2
330
17
100
AcDbEntity
  8
0
100
AcDbTrace
 10
36270.0
 20
-35008.0
 30
0.0
 11
36270.0
 21
-33708.0
 31
0.0
 12
36570.0
 22
-35008.0
 32
0.0
 13
36570.0
 23
-33708.0
 33
0.0
  0
SOLID
  5
3C3
330
17
100
AcDbEntity
  8
0
100
AcDbTrace
 10
36270.0
 20
-36308.0
 30
0.0
 11
36270.0
 21
-35008.0
 31
0.0
 12
36570.0
 22
-36308.0
 32
0.0
 13
36570.0
 23
-35008.0
 33
0.0
  0
SOLID
  5
3C4
330
17
100
AcDbEntity
  8
0
100
AcDbTrace
 10
36270.0
 20
-53879.1320343555
 30
0.0
 11
36270.0
 21
-36308.0
 31
0.0
 12
36570.0
 22
-53754.8679656445
 32
0.0
 13
36570.0
 23
-36308.0
 33
0.0
  0
SOLID
  5
3C5
330
17
100
AcDbEntity
  8
0
100
AcDbTrace
 10
36270.0
 20
-53879.1320343555
 30
0.0
 11
36570.0
 21
-53754.8679656445
 31
0.0
 12
36680.0
 22
-54289.1320343555
 32
0.0
 13
36980.0
 23
-54164.8679656445
 33
0.0
  0
SOLID
  5
3C6
330
17
100
AcDbEntity
  8
0
100
AcDbTrace
 10
36680.0
 20
-58228.1320343555
 30
0.0
 11
36680.0
 21
-54289.1320343555
 31
0.0
 12
36980.0
 22
-58103.8679656445
 32
0.0
 13
36980.0
 23
-54164.8679656445
 33
0.0
  0
SOLID
  5
3C7
330
17
100
AcDbEntity
  8
0
100
AcDbTrace
 10
36680.0
 20
-58228.1320343555
 30
0.0
 11
36980.0
 21
-58103.8679656445
 31
0.0
 12
37993.9335
 22
-59542.0665
 32
0.0
 13
38206.0665
 23
-59329.9335
 33
0.0
  0
SOLID
  5
3C8
330
17
100
AcDbEntity
  8
0
100
AcDbTrace
 10
37570.0
 20
-33770.1320343555
 30
0.0
 11
37570.0
 21
-32408.0
 31
0.0
 12
37870.0
 22
-33645.8679656445
 32
0.0
 13
37870.0
 23
-32408.0
 33
0.0
  0
SOLID
  5
3C9
330
17
100
AcDbEntity
  8
0
100
AcDbTrace
 10
37570.0
 20
-33770.1320343555
 30
0.0
 11
37870.0
 21
-33645.8679656445
 31
0.0
 12
38870.0
 22
-35070.1320343555
 32
0.0
 13
39170.0
 23
-34945.8679656445
 33
0.0
  0
SOLID
  5
3CA
330
17
100
AcDbEntity
  8
0
100
AcDbTrace
 10
38870.0
 20
-36308.0
 30
0.0
 11
38870.0
 21
-35070.1320343555
 31
0.0
 12
39170.0
 22
-36308.0
 32
0.0
 13
39170.0
 23
-34945.8679656445
 33
0.0
  0
SOLID
  5
3CB
330
17
100
AcDbEntity
  8
0
100
AcDbTrace
 10
38870.0
 20
-37608.0
 30
0.0
 11
38870.0
 21
-36308.0
 31
0.0
 12
39170.0
 22
-37608.0
 32
0.0
 13
39170.0
 23
-36308.0
 33
0.0
  0
SOLID
  5
3CC
330
17
100
AcDbEntity
  8
0
100
AcDbTrace
 10
38870.0
 20
-38908.0
 30
0.0
 11
38870.0
 21
-37608.0
 31
0.0
 12
39170.0
 22
-38908.0
 32
0.0
 13
39170.0
 23
-37608.0
 33
0.0
  0
SOLID
  5
3CD
330
17
100
AcDbEntity
  8
0
100
AcDbTrace
 10
38870.0
 20
-53939.1320343555
 30
0.0
 11
38870.0
 21
-38908.0
 31
0.0
 12
39170.0
 22
-53814.8679656445
 32
0.0
 13
39170.0
 23
-38908.0
 33
0.0
  0
SOLID
  5
3CE
330
17
100
AcDbEntity
  8
0
100
AcDbTrace
 10
38870.0
 20
-53939.1320343555
 30
0.0
 11
39170.0
 21
-53814.8679656445
 31
0.0
 12
39220.0
 22
-54289.1320343555
 32
0.0
 13
39520.0
 23
-54164.8679656445
 33
0.0
  0
SOLID
  5
3CF
330
17
100
AcDbEntity
  8
0
100
AcDbTrace
 10
39220.0
 20
-58228.1320343555
 30
0.0
 11
39220.0
 21
-54289.1320343555
 31
0.0
 12
39520.0
 22
-58103.8679656445
 32
0.0
 13
39520.0
 23
-54164.8679656445
 33
0.0
  0
SOLID
  5
3D0
330
17
100
AcDbEntity
  8
0
100
AcDbTrace
 10
39220.0
 20
-58228.1320343555
 30
0.0
 11
39520.0
 21
-58103.8679656445
 31
0.0
 12
40533.9335
 22
-59542.0665
 32
0.0
 13
40746.0665
 23
-59329.9335
 33
0.0
  0
SOLID
  5
3D1
330
17
100
AcDbEntity
  8
0
100
AcDbTrace
 10
38870.0
 20
-33770.1320343555
 30
0.0
 11
38870.0
 21
-32408.0
 31
0.0
 12
39170.0
 22
-33645.8679656445
 32
0.0
 13
39170.0
 23
-32408.0
 33
0.0
  0
SOLID
  5
3D2
330
17
100
AcDbEntity
  8
0
100
AcDbTrace
 10
38870.0
 20
-33770.1320343555
 30
0.0
 11
39170.0
 21
-33645.8679656445
 31
0.0
 12
40170.0
 22
-35070.1320343555
 32
0.0
 13
40470.0
 23
-34945.8679656445
 33
0.0
  0
SOLID
  5
3D3
330
17
100
AcDbEntity
  8
0
100
AcDbTrace
 10
40170.0
 20
-36308.0
 30
0.0
 11
40170.0
 21
-35070.1320343555
 31
0.0
 12
40470.0
 22
-36308.0
 32
0.0
 13
40470.0
 23
-34945.8679656445
 33
0.0
  0
SOLID
  5
3D4
330
17
100
AcDbEntity
  8
0
100
AcDbTrace
 10
40170.0
 20
-37608.0
 30
0.0
 11
40170.0
 21
-36308.0
 31
0.0
 12
40470.0
 22
-37608.0
 32
0.0
 13
40470.0
 23
-36308.0
 33
0.0
  0
SOLID
  5
3D5
330
17
100
AcDbEntity
  8
0
100
AcDbTrace
 10
40170.0
 20
-38908.0
 30
0.0
 11
40170.0
 21
-37608.0
 31
0.0
 12
40470.0
 22
-38908.0
 32
0.0
 13
40470.0
 23
-37608.0
 33
0.0
  0
SOLID
  5
3D6
330
17
100
AcDbEntity
  8
0
100
AcDbTrace
 10
40170.0
 20
-53969.1320343555
 30
0.0
 11
40170.0
 21
-38908.0
 31
0.0
 12
40470.0
 22
-53844.8679656445
 32
0.0
 13
40470.0
 23
-38908.0
 33
0.0
  0
SOLID
  5
3D7
330
17
100
AcDbEntity
  8
0
100
AcDbTrace
 10
40170.0
 20
-53969.1320343555
 30
0.0
 11
40470.0
 21
-53844.8679656445
 31
0.0
 12
40490.0
 22
-54289.1320343555
 32
0.0
 13
40790.0
 23
-54164.8679656445
 33
0.0
  0
SOLID
  5
3D8
330
17
100
AcDbEntity
  8
0
100
AcDbTrace
 10
40490.0
 20
-56896.0
 30
0.0
 11
40490.0
 21
-54289.1320343555
 31
0.0
 12
40790.0
 22
-56896.0
 32
0.0
 13
40790.0
 23
-54164.8679656445
 33
0.0
  0
SOLID
  5
3D9
330
17
100
AcDbEntity
  8
0
100
AcDbTrace
 10
40170.0
 20
-33770.1320343555
 30
0.0
 11
40170.0
 21
-32408.0
 31
0.0
 12
40470.0
 22
-33645.8679656445
 32
0.0
 13
40470.0
 23
-32408.0
 33
0.0
  0
SOLID
  5
3DA
330
17
100
AcDbEntity
  8
0
100
AcDbTrace
 10
40170.0
 20
-33770.1320343555
 30
0.0
 11
40470.0
 21
-33645.8679656445
 31
0.0
 12
41470.0
 22
-35070.1320343555
 32
0.0
 13
41770.0
 23
-34945.8679656445
 33
0.0
  0
SOLID
  5
3DB
330
17
100
AcDbEntity
  8
0
100
AcDbTrace
 10
41470.0
 20
-36308.0
 30
0.0
 11
41470.0
 21
-35070.1320343555
 31
0.0
 12
41770.0
 22
-36308.0
 32
0.0
 13
41770.0
 23
-34945.8679656445
 33
0.0
  0
SOLID
  5
3DC
330
17
100
AcDbEntity
  8
0
100
AcDbTrace
 10
41470.0
 20
-37608.0
 30
0.0
 11
41470.0
 21
-36308.0
 31
0.0
 12
41770.0
 22
-37608.0
 32
0.0
 13
41770.0
 23
-36308.0
 33
0.0
  0
SOLID
  5
3DD
330
17
100
AcDbEntity
  8
0
100
AcDbTrace
 10
41470.0
 20
-38908.0
 30
0.0
 11
41470.0
 21
-37608.0
 31
0.0
 12
41770.0
 22
-38908.0
 32
0.0
 13
41770.0
 23
-37608.0
 33
0.0
  0
SOLID
  5
3DE
330
17
100
AcDbEntity
  8
0
100
AcDbTrace
 10
41470.0
 20
-53999.1320343555
 30
0.0
 11
41470.0
 21
-38908.0
 31
0.0
 12
41770.0
 22
-53874.8679656445
 32
0.0
 13
41770.0
 23
-38908.0
 33
0.0
  0
SOLID
  5
3DF
330
17
100
AcDbEntity
  8
0
100
AcDbTrace
 10
41760.0
 20
-54289.1320343555
 30
0.0
 11
41470.0
 21
-53999.1320343555
 31
0.0
 12
42060.0
 22
-54164.8679656445
 32
0.0
 13
41770.0
 23
-53874.8679656445
 33
0.0
  0
SOLID
  5
3E0
330
17
100
AcDbEntity
  8
0
100
AcDbTrace
 10
41760.0
 20
-58228.1320343555
 30
0.0
 11
41760.0
 21
-54289.1320343555
 31
0.0
 12
42060.0
 22
-58103.8679656445
 32
0.0
 13
42060.0
 23
-54164.8679656445
 33
0.0
  0
SOLID
  5
3E1
330
17
100
AcDbEntity
  8
0
100
AcDbTrace
 10
41760.0
 20
-58228.1320343555
 30
0.0
 11
42060.0
 21
-58103.8679656445
 31
0.0
 12
43073.9335
 22
-59542.0665
 32
0.0
 13
43286.0665
 23
-59329.9335
 33
0.0
  0
SOLID
  5
3E2
330
17
100
AcDbEntity
  8
0
100
AcDbTrace
 10
41513.9335
 20
-32514.0665
 30
0.0
 11
41726.0665
 21
-32301.9335
 31
0.0
 12
42770.0
 22
-33770.1320343555
 32
0.0
 13
43070.0
 23
-33645.8679656445
 33
0.0
  0
SOLID
  5
3E3
330
17
100
AcDbEntity
  8
0
100
AcDbTrace
 10
42770.0
 20
-35008.0
 30
0.0
 11
42770.0
 21
-33770.1320343555
 31
0.0
 12
43070.0
 22
-35008.0
 32
0.0
 13
43070.0
 23
-33645.8679656445
 33
0.0
  0
SOLID
  5
3E4
330
17
100
AcDbEntity
  8
0
100
AcDbTrace
 10
42770.0
 20
-36308.0
 30
0.0
 11
42770.0
 21
-35008.0
 31
0.0
 12
43070.0
 22
-36308.0
 32
0.0
 13
43070.0
 23
-35008.0
 33
0.0
  0
SOLID
  5
3E5
330
17
100
AcDbEntity
  8
0
100
AcDbTrace
 10
42770.0
 20
-37608.0
 30
0.0
 11
42770.0
 21
-36308.0
 31
0.0
 12
43070.0
 22
-37608.0
 32
0.0
 13
43070.0
 23
-36308.0
 33
0.0
  0
SOLID
  5
3E6
330
17
100
AcDbEntity
  8
0
100
AcDbTrace
 10
42770.0
 20
-54029.1320343555
 30
0.0
 11
42770.0
 21
-37608.0
 31
0.0
 12
43070.0
 22
-53904.8679656445
 32
0.0
 13
43070.0
 23
-37608.0
 33
0.0
  0
SOLID
  5
3E7
330
17
100
AcDbEntity
  8
0
100
AcDbTrace
 10
43030.0
 20
-54289.1320343555
 30
0.0
 11
42770.0
 21
-54029.1320343555
 31
0.0
 12
43330.0
 22
-54164.8679656445
 32
0.0
 13
43070.0
 23
-53904.8679656445
 33
0.0
  0
SOLID
  5
3E8
330
17
100
AcDbEntity
  8
0
100
AcDbTrace
 10
43030.0
 20
-56896.0
 30
0.0
 11
43030.0
 21
-54289.1320343555
 31
0.0
 12
43330.0
 22
-56896.0
 32
0.0
 13
43330.0
 23
-54164.8679656445
 33
0.0
  0
SOLID
  5
3E9
330
17
100
AcDbEntity
  8
0
100
AcDbTrace
 10
32370.0
 20
-14208.0
 30
0.0
 11
32370.0
 21
-12908.0
 31
0.0
 12
32670.0
 22
-14208.0
 32
0.0
 13
32670.0
 23
-12908.0
 33
0.0
  0
SOLID
  5
3EA
330
17
100
AcDbEntity
  8
0
100
AcDbTrace
 10
32370.0
 20
-12908.0
 30
0.0
 11
32370.0
 21
-11608.0
 31
0.0
 12
32670.0
 22
-12908.0
 32
0.0
 13
32670.0
 23
-11608.0
 33
0.0
  0
SOLID
  5
3EB
330
17
100
AcDbEntity
  8
0
100
AcDbTrace
 10
32370.0
 20
-11608.0
 30
0.0
 11
32370.0
 21
-9776.8679656445
 31
0.0
 12
32670.0
 22
-11608.0
 32
0.0
 13
32670.0
 23
-9901.1320343555
 33
0.0
  0
SOLID
  5
3EC
330
17
100
AcDbEntity
  8
0
100
AcDbTrace
 10
32670.0
 20
-9901.1320343555
 30
0.0
 11
32370.0
 21
-9776.8679656445
 31
0.0
 12
33170.0
 22
-9401.1320343555
 32
0.0
 13
32870.0
 23
-9276.8679656445
 33
0.0
  0
SOLID
  5
3ED
330
17
100
AcDbEntity
  8
0
100
AcDbTrace
 10
32870.0
 20
-9276.8679656445
 30
0.0
 11
32870.0
 21
-7620.0
 31
0.0
 12
33170.0
 22
-9401.1320343555
 32
0.0
 13
33170.0
 23
-7620.0
 33
0.0
  0
SOLID
  5
3EE
330
17
100
AcDbEntity
  8
0
100
AcDbTrace
 10
35120.0
 20
-15658.0
 30
0.0
 11
35120.0
 21
-15358.0
 31
0.0
 12
35832.1320343555
 22
-15658.0
 32
0.0
 13
35707.8679656445
 23
-15358.0
 33
0.0
  0
SOLID
  5
3EF
330
17
100
AcDbEntity
  8
0
100
AcDbTrace
 10
35832.1320343555
 20
-15658.0
 30
0.0
 11
35707.8679656445
 21
-15358.0
 31
0.0
 12
36570.0
 22
-14920.1320343555
 32
0.0
 13
36270.0
 23
-14795.8679656445
 33
0.0
  0
SOLID
  5
3F0
330
17
100
AcDbEntity
  8
0
100
AcDbTrace
 10
36270.0
 20
-14795.8679656445
 30
0.0
 11
36270.0
 21
-12970.1320343555
 31
0.0
 12
36570.0
 22
-14920.1320343555
 32
0.0
 13
36570.0
 23
-12845.8679656445
 33
0.0
  0
SOLID
  5
3F1
330
17
100
AcDbEntity
  8
0
100
AcDbTrace
 10
34970.0
 20
-11670.1320343555
 30
0.0
 11
35270.0
 21
-11545.8679656445
 31
0.0
 12
36270.0
 22
-12970.1320343555
 32
0.0
 13
36570.0
 23
-12845.8679656445
 33
0.0
  0
SOLID
  5
3F2
330
17
100
AcDbEntity
  8
0
100
AcDbTrace
 10
34970.0
 20
-11670.1320343555
 30
0.0
 11
34970.0
 21
-9716.8679656445
 31
0.0
 12
35270.0
 22
-11545.8679656445
 32
0.0
 13
35270.0
 23
-9841.1320343555
 33
0.0
  0
SOLID
  5
3F3
330
17
100
AcDbEntity
  8
0
100
AcDbTrace
 10
35270.0
 20
-9841.1320343555
 30
0.0
 11
34970.0
 21
-9716.8679656445
 31
0.0
 12
35710.0
 22
-9401.1320343555
 32
0.0
 13
35410.0
 23
-9276.8679656445
 33
0.0
  0
SOLID
  5
3F4
330
17
100
AcDbEntity
  8
0
100
AcDbTrace
 10
35410.0
 20
-9276.8679656445
 30
0.0
 11
35410.0
 21
-7620.0
 31
0.0
 12
35710.0
 22
-9401.1320343555
 32
0.0
 13
35710.0
 23
-7620.0
 33
0.0
  0
SOLID
  5
3F5
330
17
100
AcDbEntity
  8
0
100
AcDbTrace
 10
35120.0
 20
-16958.0
 30
0.0
 11
35120.0
 21
-16658.0
 31
0.0
 12
36482.1320343555
 22
-16958.0
 32
0.0
 13
36357.8679656445
 23
-16658.0
 33
0.0
  0
SOLID
  5
3F6
330
17
100
AcDbEntity
  8
0
100
AcDbTrace
 10
36482.1320343555
 20
-16958.0
 30
0.0
 11
36357.8679656445
 21
-16658.0
 31
0.0
 12
37870.0
 22
-15570.1320343555
 32
0.0
 13
37570.0
 23
-15445.8679656445
 33
0.0
  0
SOLID
  5
3F7
330
17
100
AcDbEntity
  8
0
100
AcDbTrace
 10
37570.0
 20
-15445.8679656445
 30
0.0
 11
37570.0
 21
-12970.1320343555
 31
0.0
 12
37870.0
 22
-15570.1320343555
 32
0.0
 13
37870.0
 23
-12845.8679656445
 33
0.0
  0
SOLID
  5
3F8
330
17
100
AcDbEntity
  8
0
100
AcDbTrace
 10
36270.0
 20
-11670.1320343555
 30
0.0
 11
36570.0
 21
-11545.8679656445
 31
0.0
 12
37570.0
 22
-12970.1320343555
 32
0.0
 13
37870.0
 23
-12845.8679656445
 33
0.0
  0
SOLID
  5
3F9
330
17
100
AcDbEntity
  8
0
100
AcDbTrace
 10
36270.0
 20
-11670.1320343555
 30
0.0
 11
36270.0
 21
-9686.8679656445
 31
0.0
 12
36570.0
 22
-11545.8679656445
 32
0.0
 13
36570.0
 23
-9811.1320343555
 33
0.0
  0
SOLID
  5
3FA
330
17
100
AcDbEntity
  8
0
100
AcDbTrace
 10
36570.0
 20
-9811.1320343555
 30
0.0
 11
36270.0
 21
-9686.8679656445
 31
0.0
 12
36980.0
 22
-9401.1320343555
 32
0.0
 13
36680.0
 23
-9276.8679656445
 33
0.0
  0
SOLID
  5
3FB
330
17
100
AcDbEntity
  8
0
100
AcDbTrace
 10
36680.0
 20
-9276.8679656445
 30
0.0
 11
36680.0
 21
-8039.0
 31
0.0
 12
36980.0
 22
-9401.1320343555
 32
0.0
 13
36980.0
 23
-8039.0
 33
0.0
  0
SOLID
  5
3FC
330
17
100
AcDbEntity
  8
0
100
AcDbTrace
 10
36680.0
 20
-8039.0
 30
0.0
 11
36680.0
 21
-6412.1320343555
 31
0.0
 12
36980.0
 22
-8039.0
 32
0.0
 13
36980.0
 23
-6287.8679656445
 33
0.0
  0
SOLID
  5
3FD
330
17
100
AcDbEntity
  8
0
100
AcDbTrace
 10
35453.9335
 20
-5186.0665
 30
0.0
 11
35666.0665
 21
-4973.9335
 31
0.0
 12
36680.0
 22
-6412.1320343555
 32
0.0
 13
36980.0
 23
-6287.8679656445
 33
0.0
  0
SOLID
  5
3FE
330
17
100
AcDbEntity
  8
0
100
AcDbTrace
 10
35120.0
 20
-18258.0
 30
0.0
 11
35120.0
 21
-17958.0
 31
0.0
 12
36482.1320343555
 22
-18258.0
 32
0.0
 13
36357.8679656445
 23
-17958.0
 33
0.0
  0
SOLID
  5
3FF
330
17
100
AcDbEntity
  8
0
100
AcDbTrace
 10
36482.1320343555
 20
-18258.0
 30
0.0
 11
36357.8679656445
 21
-17958.0
 31
0.0
 12
37826.0665
 22
-16914.0665
 32
0.0
 13
37613.9335
 23
-16701.9335
 33
0.0
  0
SOLID
  5
400
330
17
100
AcDbEntity
  8
0
100
AcDbTrace
 10
37826.0665
 20
-16914.0665
 30
0.0
 11
37613.9335
 21
-16701.9335
 31
0.0
 12
39170.0
 22
-15570.1320343555
 32
0.0
 13
38870.0
 23
-15445.8679656445
 33
0.0
  0
SOLID
  5
401
330
17
100
AcDbEntity
  8
0
100
AcDbTrace
 10
38870.0
 20
-15445.8679656445
 30
0.0
 11
38870.0
 21
-14208.0
 31
0.0
 12
39170.0
 22
-15570.1320343555
 32
0.0
 13
39170.0
 23
-14208.0
 33
0.0
  0
SOLID
  5
402
330
17
100
AcDbEntity
  8
0
100
AcDbTrace
 10
38870.0
 20
-14208.0
 30
0.0
 11
38870.0
 21
-11670.1320343555
 31
0.0
 12
39170.0
 22
-14208.0
 32
0.0
 13
39170.0
 23
-11545.8679656445
 33
0.0
  0
SOLID
  5
403
330
17
100
AcDbEntity
  8
0
100
AcDbTrace
 10
37570.0
 20
-10370.1320343555
 30
0.0
 11
37870.0
 21
-10245.8679656445
 31
0.0
 12
38870.0
 22
-11670.1320343555
 32
0.0
 13
39170.0
 23
-11545.8679656445
 33
0.0
  0
SOLID
  5
404
330
17
100
AcDbEntity
  8
0
100
AcDbTrace
 10
37570.0
 20
-10370.1320343555
 30
0.0
 11
37570.0
 21
-9656.8679656445
 31
0.0
 12
37870.0
 22
-10245.8679656445
 32
0.0
 13
37870.0
 23
-9781.1320343555
 33
0.0
  0
SOLID
  5
405
330
17
100
AcDbEntity
  8
0
100
AcDbTrace
 10
37870.0
 20
-9781.1320343555
 30
0.0
 11
37570.0
 21
-9656.8679656445
 31
0.0
 12
38250.0
 22
-9401.1320343555
 32
0.0
 13
37950.0
 23
-9276.8679656445
 33
0.0
  0
SOLID
  5
406
330
17
100
AcDbEntity
  8
0
100
AcDbTrace
 10
37950.0
 20
-9276.8679656445
 30
0.0
 11
37950.0
 21
-7620.0
 31
0.0
 12
38250.0
 22
-9401.1320343555
 32
0.0
 13
38250.0
 23
-7620.0
 33
0.0
  0
SOLID
  5
407
330
17
100
AcDbEntity
  8
0
100
AcDbTrace
 10
35120.0
 20
-19558.0
 30
0.0
 11
35120.0
 21
-19258.0
 31
0.0
 12
36482.1320343555
 22
-19558.0
 32
0.0
 13
36357.8679656445
 23
-19258.0
 33
0.0
  0
SOLID
  5
408
330
17
100
AcDbEntity
  8
0
100
AcDbTrace
 10
36482.1320343555
 20
-19558.0
 30
0.0
 11
36357.8679656445
 21
-19258.0
 31
0.0
 12
37826.0665
 22
-18214.0665
 32
0.0
 13
37613.9335
 23
-18001.9335
 33
0.0
  0
SOLID
  5
409
330
17
100
AcDbEntity
  8
0
100
AcDbTrace
 10
37826.0665
 20
-18214.0665
 30
0.0
 11
37613.9335
 21
-18001.9335
 31
0.0
 12
39126.0665
 22
-16914.0665
 32
0.0
 13
38913.9335
 23
-16701.9335
 33
0.0
  0
SOLID
  5
40A
330
17
100
AcDbEntity
  8
0
100
AcDbTrace
 10
39126.0665
 20
-16914.0665
 30
0.0
 11
38913.9335
 21
-16701.9335
 31
0.0
 12
40470.0
 22
-15570.1320343555
 32
0.0
 13
40170.0
 23
-15445.8679656445
 33
0.0
  0
SOLID
  5
40B
330
17
100
AcDbEntity
  8
0
100
AcDbTrace
 10
40170.0
 20
-15445.8679656445
 30
0.0
 11
40170.0
 21
-14208.0
 31
0.0
 12
40470.0
 22
-15570.1320343555
 32
0.0
 13
40470.0
 23
-14208.0
 33
0.0
  0
SOLID
  5
40C
330
17
100
AcDbEntity
  8
0
100
AcDbTrace
 10
40170.0
 20
-14208.0
 30
0.0
 11
40170.0
 21
-11670.1320343555
 31
0.0
 12
40470.0
 22
-14208.0
 32
0.0
 13
40470.0
 23
-11545.8679656445
 33
0.0
  0
SOLID
  5
40D
330
17
100
AcDbEntity
  8
0
100
AcDbTrace
 10
38870.0
 20
-10370.1320343555
 30
0.0
 11
39170.0
 21
-10245.8679656445
 31
0.0
 12
40170.0
 22
-11670.1320343555
 32
0.0
 13
40470.0
 23
-11545.8679656445
 33
0.0
  0
SOLID
  5
40E
330
17
100
AcDbEntity
  8
0
100
AcDbTrace
 10
38870.0
 20
-10370.1320343555
 30
0.0
 11
38870.0
 21
-9626.8679656445
 31
0.0
 12
39170.0
 22
-10245.8679656445
 32
0.0
 13
39170.0
 23
-9751.1320343555
 33
0.0
  0
SOLID
  5
40F
330
17
100
AcDbEntity
  8
0
100
AcDbTrace
 10
39170.0
 20
-9751.1320343555
 30
0.0
 11
38870.0
 21
-9626.8679656445
 31
0.0
 12
39520.0
 22
-9401.1320343555
 32
0.0
 13
39220.0
 23
-9276.8679656445
 33
0.0
  0
SOLID
  5
410
330
17
100
AcDbEntity
  8
0
100
AcDbTrace
 10
39220.0
 20
-9276.8679656445
 30
0.0
 11
39220.0
 21
-6412.1320343555
 31
0.0
 12
39520.0
 22
-9401.1320343555
 32
0.0
 13
39520.0
 23
-6287.8679656445
 33
0.0
  0
SOLID
  5
411
330
17
100
AcDbEntity
  8
0
100
AcDbTrace
 10
37993.9335
 20
-5186.0665
 30
0.0
 11
38206.0665
 21
-4973.9335
 31
0.0
 12
39220.0
 22
-6412.1320343555
 32
0.0
 13
39520.0
 23
-6287.8679656445
 33
0.0
  0
SOLID
  5
412
330
17
100
AcDbEntity
  8
0
100
AcDbTrace
 10
35120.0
 20
-20858.0
 30
0.0
 11
35120.0
 21
-20558.0
 31
0.0
 12
36482.1320343555
 22
-20858.0
 32
0.0
 13
36357.8679656445
 23
-20558.0
 33
0.0
  0
SOLID
  5
413
330
17
100
AcDbEntity
  8
0
100
AcDbTrace
 10
36482.1320343555
 20
-20858.0
 30
0.0
 11
36357.8679656445
 21
-20558.0
 31
0.0
 12
37826.0665
 22
-19514.0665
 32
0.0
 13
37613.9335
 23
-19301.9335
 33
0.0
  0
SOLID
  5
414
330
17
100
AcDbEntity
  8
0
100
AcDbTrace
 10
37826.0665
 20
-19514.0665
 30
0.0
 11
37613.9335
 21
-19301.9335
 31
0.0
 12
39126.0665
 22
-18214.0665
 32
0.0
 13
38913.9335
 23
-18001.9335
 33
0.0
  0
SOLID
  5
415
330
17
100
AcDbEntity
  8
0
100
AcDbTrace
 10
39126.0665
 20
-18214.0665
 30
0.0
 11
38913.9335
 21
-18001.9335
 31
0.0
 12
40426.0665
 22
-16914.0665
 32
0.0
 13
40213.9335
 23
-16701.9335
 33
0.0
  0
SOLID
  5
416
330
17
100
AcDbEntity
  8
0
100
AcDbTrace
 10
40426.0665
 20
-16914.0665
 30
0.0
 11
40213.9335
 21
-16701.9335
 31
0.0
 12
41770.0
 22
-15570.1320343555
 32
0.0
 13
41470.0
 23
-15445.8679656445
 33
0.0
  0
SOLID
  5
417
330
17
100
AcDbEntity
  8
0
100
AcDbTrace
 10
41470.0
 20
-15445.8679656445
 30
0.0
 11
41470.0
 21
-9566.8679656445
 31
0.0
 12
41770.0
 22
-15570.1320343555
 32
0.0
 13
41770.0
 23
-9691.1320343555
 33
0.0
  0
SOLID
  5
418
330
17
100
AcDbEntity
  8
0
100
AcDbTrace
 10
41470.0
 20
-9566.8679656445
 30
0.0
 11
41760.0
 21
-9276.8679656445
 31
0.0
 12
41770.0
 22
-9691.1320343555
 32
0.0
 13
42060.0
 23
-9401.1320343555
 33
0.0
  0
SOLID
  5
419
330
17
100
AcDbEntity
  8
0
100
AcDbTrace
 10
41760.0
 20
-9276.8679656445
 30
0.0
 11
41760.0
 21
-6287.8679656445
 31
0.0
 12
42060.0
 22
-9401.1320343555
 32
0.0
 13
42060.0
 23
-6412.1320343555
 33
0.0
  0
SOLID
  5
41A
330
17
100
AcDbEntity
  8
0
100
AcDbTrace
 10
42060.0
 20
-6412.1320343555
 30
0.0
 11
41760.0
 21
-6287.8679656445
 31
0.0
 12
43286.0665
 22
-5186.0665
 32
0.0
 13
43073.9335
 23
-4973.9335
 33
0.0
  0
SOLID
  5
41B
330
17
100
AcDbEntity
  8
0
100
AcDbTrace
 10
35120.0
 20
-22158.0
 30
0.0
 11
35120.0
 21
-21858.0
 31
0.0
 12
36482.1320343555
 22
-22158.0
 32
0.0
 13
36357.8679656445
 23
-21858.0
 33
0.0
  0
SOLID
  5
41C
330
17
100
AcDbEntity
  8
0
100
AcDbTrace
 10
36482.1320343555
 20
-22158.0
 30
0.0
 11
36357.8679656445
 21
-21858.0
 31
0.0
 12
37826.0665
 22
-20814.0665
 32
0.0
 13
37613.9335
 23
-20601.9335
 33
0.0
  0
SOLID
  5
41D
330
17
100
AcDbEntity
  8
0
100
AcDbTrace
 10
37826.0665
 20
-20814.0665
 30
0.0
 11
37613.9335
 21
-20601.9335
 31
0.0
 12
39126.0665
 22
-19514.0665
 32
0.0
 13
38913.9335
 23
-19301.9335
 33
0.0
  0
SOLID
  5
41E
330
17
100
AcDbEntity
  8
0
100
AcDbTrace
 10
39126.0665
 20
-19514.0665
 30
0.0
 11
38913.9335
 21
-19301.9335
 31
0.0
 12
40426.0665
 22
-18214.0665
 32
0.0
 13
40213.9335
 23
-18001.9335
 33
0.0
  0
SOLID
  5
41F
330
17
100
AcDbEntity
  8
0
100
AcDbTrace
 10
40426.0665
 20
-18214.0665
 30
0.0
 11
40213.9335
 21
-18001.9335
 31
0.0
 12
43070.0
 22
-15570.1320343555
 32
0.0
 13
42770.0
 23
-15445.8679656445
 33
0.0
  0
SOLID
  5
420
330
17
100
AcDbEntity
  8
0
100
AcDbTrace
 10
42770.0
 20
-15445.8679656445
 30
0.0
 11
42770.0
 21
-9536.8679656445
 31
0.0
 12
43070.0
 22
-15570.1320343555
 32
0.0
 13
43070.0
 23
-9661.1320343555
 33
0.0
  0
SOLID
  5
421
330
17
100
AcDbEntity
  8
0
100
AcDbTrace
 10
42770.0
 20
-9536.8679656445
 30
0.0
 11
43030.0
 21
-9276.8679656445
 31
0.0
 12
43070.0
 22
-9661.1320343555
 32
0.0
 13
43330.0
 23
-9401.1320343555
 33
0.0
  0
SOLID
  5
422
330
17
100
AcDbEntity
  8
0
100
AcDbTrace
 10
43030.0
 20
-9276.8679656445
 30
0.0
 11
43030.0
 21
-7620.0
 31
0.0
 12
43330.0
 22
-9401.1320343555
 32
0.0
 13
43330.0
 23
-7620.0
 33
0.0
  0
SOLID
  5
423
330
17
100
AcDbEntity
  8
0
100
AcDbTrace
 10
35120.0
 20
-23458.0
 30
0.0
 11
35120.0
 21
-23158.0
 31
0.0
 12
36482.1320343555
 22
-23458.0
 32
0.0
 13
36357.8679656445
 23
-23158.0
 33
0.0
  0
SOLID
  5
424
330
17
100
AcDbEntity
  8
0
100
AcDbTrace
 10
36482.1320343555
 20
-23458.0
 30
0.0
 11
36357.8679656445
 21
-23158.0
 31
0.0
 12
37826.0665
 22
-22114.0665
 32
0.0
 13
37613.9335
 23
-21901.9335
 33
0.0
  0
SOLID
  5
425
330
17
100
AcDbEntity
  8
0
100
AcDbTrace
 10
37826.0665
 20
-22114.0665
 30
0.0
 11
37613.9335
 21
-21901.9335
 31
0.0
 12
39126.0665
 22
-20814.0665
 32
0.0
 13
38913.9335
 23
-20601.9335
 33
0.0
  0
SOLID
  5
426
330
17
100
AcDbEntity
  8
0
100
AcDbTrace
 10
39126.0665
 20
-20814.0665
 30
0.0
 11
38913.9335
 21
-20601.9335
 31
0.0
 12
40426.0665
 22
-19514.0665
 32
0.0
 13
40213.9335
 23
-19301.9335
 33
0.0
  0
SOLID
  5
427
330
17
100
AcDbEntity
  8
0
100
AcDbTrace
 10
40426.0665
 20
-19514.0665
 30
0.0
 11
40213.9335
 21
-19301.9335
 31
0.0
 12
44370.0
 22
-15570.1320343555
 32
0.0
 13
44070.0
 23
-15445.8679656445
 33
0.0
  0
SOLID
  5
428
330
17
100
AcDbEntity
  8
0
100
AcDbTrace
 10
44070.0
 20
-15445.8679656445
 30
0.0
 11
44070.0
 21
-9506.8679656445
 31
0.0
 12
44370.0
 22
-15570.1320343555
 32
0.0
 13
44370.0
 23
-9631.1320343555
 33
0.0
  0
SOLID
  5
429
330
17
100
AcDbEntity
  8
0
100
AcDbTrace
 10
44070.0
 20
-9506.8679656445
 30
0.0
 11
44300.0
 21
-9276.8679656445
 31
0.0
 12
44370.0
 22
-9631.1320343555
 32
0.0
 13
44600.0
 23
-9401.1320343555
 33
0.0
  0
SOLID
  5
42A
330
17
100
AcDbEntity
  8
0
100
AcDbTrace
 10
44300.0
 20
-9276.8679656445
 30
0.0
 11
44300.0
 21
-6287.8679656445
 31
0.0
 12
44600.0
 22
-9401.1320343555
 32
0.0
 13
44600.0
 23
-6412.1320343555
 33
0.0
  0
SOLID
  5
42B
330
17
100
AcDbEntity
  8
0
100
AcDbTrace
 10
44600.0
 20
-6412.1320343555
 30
0.0
 11
44300.0
 21
-6287.8679656445
 31
0.0
 12
45826.0665
 22
-5186.0665
 32
0.0
 13
45613.9335
 23
-4973.9335
 33
0.0
  0
SOLID
  5
42C
330
17
100
AcDbEntity
  8
0
100
AcDbTrace
 10
35120.0
 20
-24758.0
 30
0.0
 11
35120.0
 21
-24458.0
 31
0.0
 12
36482.1320343555
 22
-24758.0
 32
0.0
 13
36357.8679656445
 23
-24458.0
 33
0.0
  0
SOLID
  5
42D
330
17
100
AcDbEntity
  8
0
100
AcDbTrace
 10
36482.1320343555
 20
-24758.0
 30
0.0
 11
36357.8679656445
 21
-24458.0
 31
0.0
 12
37826.0665
 22
-23414.0665
 32
0.0
 13
37613.9335
 23
-23201.9335
 33
0.0
  0
SOLID
  5
42E
330
17
100
AcDbEntity
  8
0
100
AcDbTrace
 10
37826.0665
 20
-23414.0665
 30
0.0
 11
37613.9335
 21
-23201.9335
 31
0.0
 12
39126.0665
 22
-22114.0665
 32
0.0
 13
38913.9335
 23
-21901.9335
 33
0.0
  0
SOLID
  5
42F
330
17
100
AcDbEntity
  8
0
100
AcDbTrace
 10
39126.0665
 20
-22114.0665
 30
0.0
 11
38913.9335
 21
-21901.9335
 31
0.0
 12
40426.0665
 22
-20814.0665
 32
0.0
 13
40213.9335
 23
-20601.9335
 33
0.0
  0
SOLID
  5
430
330
17
100
AcDbEntity
  8
0
100
AcDbTrace
 10
40426.0665
 20
-20814.0665
 30
0.0
 11
40213.9335
 21
-20601.9335
 31
0.0
 12
45670.0
 22
-15570.1320343555
 32
0.0
 13
45370.0
 23
-15445.8679656445
 33
0.0
  0
SOLID
  5
431
330
17
100
AcDbEntity
  8
0
100
AcDbTrace
 10
45370.0
 20
-15445.8679656445
 30
0.0
 11
45370.0
 21
-9476.8679656445
 31
0.0
 12
45670.0
 22
-15570.1320343555
 32
0.0
 13
45670.0
 23
-9601.1320343555
 33
0.0
  0
SOLID
  5
432
330
17
100
AcDbEntity
  8
0
100
AcDbTrace
 10
45370.0
 20
-9476.8679656445
 30
0.0
 11
45570.0
 21
-9276.8679656445
 31
0.0
 12
45670.0
 22
-9601.1320343555
 32
0.0
 13
45870.0
 23
-9401.1320343555
 33
0.0
  0
SOLID
  5
433
330
17
100
AcDbEntity
  8
0
100
AcDbTrace
 10
45570.0
 20
-9276.8679656445
 30
0.0
 11
45570.0
 21
-7620.0
 31
0.0
 12
45870.0
 22
-9401.1320343555
 32
0.0
 13
45870.0
 23
-7620.0
 33
0.0
  0
SOLID
  5
434
330
17
100
AcDbEntity
  8
0
100
AcDbTrace
 10
35120.0
 20
-26058.0
 30
0.0
 11
35120.0
 21
-25758.0
 31
0.0
 12
36482.1320343555
 22
-26058.0
 32
0.0
 13
36357.8679656445
 23
-25758.0
 33
0.0
  0
SOLID
  5
435
330
17
100
AcDbEntity
  8
0
100
AcDbTrace
 10
36482.1320343555
 20
-26058.0
 30
0.0
 11
36357.8679656445
 21
-25758.0
 31
0.0
 12
37826.0665
 22
-24714.0665
 32
0.0
 13
37613.9335
 23
-24501.9335
 33
0.0
  0
SOLID
  5
436
330
17
100
AcDbEntity
  8
0
100
AcDbTrace
 10
37826.0665
 20
-24714.0665
 30
0.0
 11
37613.9335
 21
-24501.9335
 31
0.0
 12
39126.0665
 22
-23414.0665
 32
0.0
 13
38913.9335
 23
-23201.9335
 33
0.0
  0
SOLID
  5
437
330
17
100
AcDbEntity
  8
0
100
AcDbTrace
 10
39126.0665
 20
-23414.0665
 30
0.0
 11
38913.9335
 21
-23201.9335
 31
0.0
 12
40426.0665
 22
-22114.0665
 32
0.0
 13
40213.9335
 23
-21901.9335
 33
0.0
  0
SOLID
  5
438
330
17
100
AcDbEntity
  8
0
100
AcDbTrace
 10
40426.0665
 20
-22114.0665
 30
0.0
 11
40213.9335
 21
-21901.9335
 31
0.0
 12
46970.0
 22
-15570.1320343555
 32
0.0
 13
46670.0
 23
-15445.8679656445
 33
0.0
  0
SOLID
  5
439
330
17
100
AcDbEntity
  8
0
100
AcDbTrace
 10
46670.0
 20
-15445.8679656445
 30
0.0
 11
46670.0
 21
-9446.8679656445
 31
0.0
 12
46970.0
 22
-15570.1320343555
 32
0.0
 13
46970.0
 23
-9571.1320343555
 33
0.0
  0
SOLID
  5
43A
330
17
100
AcDbEntity
  8
0
100
AcDbTrace
 10
46670.0
 20
-9446.8679656445
 30
0.0
 11
46840.0
 21
-9276.8679656445
 31
0.0
 12
46970.0
 22
-9571.1320343555
 32
0.0
 13
47140.0
 23
-9401.1320343555
 33
0.0
  0
SOLID
  5
43B
330
17
100
AcDbEntity
  8
0
100
AcDbTrace
 10
46840.0
 20
-9276.8679656445
 30
0.0
 11
46840.0
 21
-6287.8679656445
 31
0.0
 12
47140.0
 22
-9401.1320343555
 32
0.0
 13
47140.0
 23
-6412.1320343555
 33
0.0
  0
SOLID
  5
43C
330
17
100
AcDbEntity
  8
0
100
AcDbTrace
 10
47140.0
 20
-6412.1320343555
 30
0.0
 11
46840.0
 21
-6287.8679656445
 31
0.0
 12
48366.0665
 22
-5186.0665
 32
0.0
 13
48153.9335
 23
-4973.9335
 33
0.0
  0
SOLID
  5
43D
330
17
100
AcDbEntity
  8
0
100
AcDbTrace
 10
35120.0
 20
-27358.0
 30
0.0
 11
35120.0
 21
-27058.0
 31
0.0
 12
36482.1320343555
 22
-27358.0
 32
0.0
 13
36357.8679656445
 23
-27058.0
 33
0.0
  0
SOLID
  5
43E
330
17
100
AcDbEntity
  8
0
100
AcDbTrace
 10
36482.1320343555
 20
-27358.0
 30
0.0
 11
36357.8679656445
 21
-27058.0
 31
0.0
 12
37826.0665
 22
-26014.0665
 32
0.0
 13
37613.9335
 23
-25801.9335
 33
0.0
  0
SOLID
  5
43F
330
17
100
AcDbEntity
  8
0
100
AcDbTrace
 10
37826.0665
 20
-26014.0665
 30
0.0
 11
37613.9335
 21
-25801.9335
 31
0.0
 12
39126.0665
 22
-24714.0665
 32
0.0
 13
38913.9335
 23
-24501.9335
 33
0.0
  0
SOLID
  5
440
330
17
100
AcDbEntity
  8
0
100
AcDbTrace
 10
39126.0665
 20
-24714.0665
 30
0.0
 11
38913.9335
 21
-24501.9335
 31
0.0
 12
40426.0665
 22
-23414.0665
 32
0.0
 13
40213.9335
 23
-23201.9335
 33
0.0
  0
SOLID
  5
441
330
17
100
AcDbEntity
  8
0
100
AcDbTrace
 10
40426.0665
 20
-23414.0665
 30
0.0
 11
40213.9335
 21
-23201.9335
 31
0.0
 12
48270.0
 22
-15570.1320343555
 32
0.0
 13
47970.0
 23
-15445.8679656445
 33
0.0
  0
SOLID
  5
442
330
17
100
AcDbEntity
  8
0
100
AcDbTrace
 10
47970.0
 20
-15445.8679656445
 30
0.0
 11
47970.0
 21
-9416.8679656445
 31
0.0
 12
48270.0
 22
-15570.1320343555
 32
0.0
 13
48270.0
 23
-9541.1320343555
 33
0.0
  0
SOLID
  5
443
330
17
100
AcDbEntity
  8
0
100
AcDbTrace
 10
47970.0
 20
-9416.8679656445
 30
0.0
 11
48110.0
 21
-9276.8679656445
 31
0.0
 12
48270.0
 22
-9541.1320343555
 32
0.0
 13
48410.0
 23
-9401.1320343555
 33
0.0
  0
SOLID
  5
444
330
17
100
AcDbEntity
  8
0
100
AcDbTrace
 10
48110.0
 20
-9276.8679656445
 30
0.0
 11
48110.0
 21
-7620.0
 31
0.0
 12
48410.0
 22
-9401.1320343555
 32
0.0
 13
48410.0
 23
-7620.0
 33
0.0
  0
SOLID
  5
445
330
17
100
AcDbEntity
  8
0
100
AcDbTrace
 10
35120.0
 20
-28658.0
 30
0.0
 11
35120.0
 21
-28358.0
 31
0.0
 12
36482.1320343555
 22
-28658.0
 32
0.0
 13
36357.8679656445
 23
-28358.0
 33
0.0
  0
SOLID
  5
446
330
17
100
AcDbEntity
  8
0
100
AcDbTrace
 10
36482.1320343555
 20
-28658.0
 30
0.0
 11
36357.8679656445
 21
-28358.0
 31
0.0
 12
37826.0665
 22
-27314.0665
 32
0.0
 13
37613.9335
 23
-27101.9335
 33
0.0
  0
SOLID
  5
447
330
17
100
AcDbEntity
  8
0
100
AcDbTrace
 10
37826.0665
 20
-27314.0665
 30
0.0
 11
37613.9335
 21
-27101.9335
 31
0.0
 12
39126.0665
 22
-26014.0665
 32
0.0
 13
38913.9335
 23
-25801.9335
 33
0.0
  0
SOLID
  5
448
330
17
100
AcDbEntity
  8
0
100
AcDbTrace
 10
39126.0665
 20
-26014.0665
 30
0.0
 11
38913.9335
 21
-25801.9335
 31
0.0
 12
40426.0665
 22
-24714.0665
 32
0.0
 13
40213.9335
 23
-24501.9335
 33
0.0
  0
SOLID
  5
449
330
17
100
AcDbEntity
  8
0
100
AcDbTrace
 10
40426.0665
 20
-24714.0665
 30
0.0
 11
40213.9335
 21
-24501.9335
 31
0.0
 12
50870.0
 22
-14270.1320343555
 32
0.0
 13
50570.0
 23
-14145.8679656445
 33
0.0
  0
SOLID
  5
44A
330
17
100
AcDbEntity
  8
0
100
AcDbTrace
 10
50570.0
 20
-14145.8679656445
 30
0.0
 11
50570.0
 21
-9356.8679656445
 31
0.0
 12
50870.0
 22
-14270.1320343555
 32
0.0
 13
50870.0
 23
-9481.1320343555
 33
0.0
  0
SOLID
  5
44B
330
17
100
AcDbEntity
  8
0
100
AcDbTrace
 10
50570.0
 20
-9356.8679656445
 30
0.0
 11
50650.0
 21
-9276.8679656445
 31
0.0
 12
50870.0
 22
-9481.1320343555
 32
0.0
 13
50950.0
 23
-9401.1320343555
 33
0.0
  0
SOLID
  5
44C
330
17
100
AcDbEntity
  8
0
100
AcDbTrace
 10
50650.0
 20
-9276.8679656445
 30
0.0
 11
50650.0
 21
-7620.0
 31
0.0
 12
50950.0
 22
-9401.1320343555
 32
0.0
 13
50950.0
 23
-7620.0
 33
0.0
  0
ENDSEC
  0
SECTION
  2
OBJECTS
  0
DICTIONARY
  5
A
330
0
100
AcDbDictionary
281
1
  3
ACAD_COLOR
350
B
  3
ACAD_GROUP
350
C
  3
ACAD_LAYOUT
350
D
  3
ACAD_MATERIAL
350
E
  3
ACAD_MLEADERSTYLE
350
F
  3
ACAD_MLINESTYLE
350
10
  3
ACAD_PLOTSETTINGS
350
11
  3
ACAD_PLOTSTYLENAME
350
12
  3
ACAD_SCALELIST
350
14
  3
ACAD_TABLESTYLE
350
15
  3
ACAD_VISUALSTYLE
350
16
  3
EZDXF_META
350
2D
  0
DICTIONARY
  5
B
330
A
100
AcDbDictionary
281
1
  0
DICTIONARY
  5
C
330
A
100
AcDbDictionary
281
1
  0
DICTIONARY
  5
D
330
A
100
AcDbDictionary
281
1
  3
Model
350
1A
  3
Layout1
350
1E
  0
DICTIONARY
  5
E
330
A
100
AcDbDictionary
281
1
  3
ByBlock
350
1F
  3
ByLayer
350
20
  3
Global
350
21
  0
DICTIONARY
  5
F
330
A
100
AcDbDictionary
281
1
  3
Standard
350
2C
  0
DICTIONARY
  5
10
330
A
100
AcDbDictionary
281
1
  3
Standard
350
22
  0
DICTIONARY
  5
11
330
A
100
AcDbDictionary
281
1
  0
ACDBDICTIONARYWDFLT
  5
12
330
A
100
AcDbDictionary
281
1
  3
Normal
350
13
100
AcDbDictionaryWithDefault
340
13
  0
ACDBPLACEHOLDER
  5
13
330
12
  0
DICTIONARY
  5
14
330
A
100
AcDbDictionary
281
1
  0
DICTIONARY
  5
15
330
A
100
AcDbDictionary
281
1
  0
DICTIONARY
  5
16
330
A
100
AcDbDictionary
281
1
  0
LAYOUT
  5
1A
330
D
100
AcDbPlotSettings
  1

  2
Adobe PDF
  4
A3
  6

 40
7.5
 41
20.0
 42
7.5
 43
20.0
 44
420.0
 45
297.0
 46
0.0
 47
0.0
 48
0.0
 49
0.0
140
0.0
141
0.0
142
1.0
143
1.0
 70
1024
 72
1
 73
0
 74
5
  7

 75
16
 76
0
 77
2
 78
300
147
1.0
148
0.0
149
0.0
100
AcDbLayout
  1
Model
 70
1
 71
0
 10
0.0
 20
0.0
 11
420.0
 21
297.0
 12
0.0
 22
0.0
 32
0.0
 14
1e+20
 24
1e+20
 34
1e+20
 15
-1e+20
 25
-1e+20
 35
-1e+20
146
0.0
 13
0.0
 23
0.0
 33
0.0
 16
1.0
 26
0.0
 36
0.0
 17
0.0
 27
1.0
 37
0.0
 76
1
330
17
  0
LAYOUT
  5
1E
330
D
100
AcDbPlotSettings
  1

  2
Adobe PDF
  4
A3
  6

 40
7.5
 41
20.0
 42
7.5
 43
20.0
 44
420.0
 45
297.0
 46
0.0
 47
0.0
 48
0.0
 49
0.0
140
0.0
141
0.0
142
1.0
143
1.0
 70
0
 72
1
 73
0
 74
5
  7

 75
16
 76
0
 77
2
 78
300
147
1.0
148
0.0
149
0.0
100
AcDbLayout
  1
Layout1
 70
1
 71
1
 10
0.0
 20
0.0
 11
420.0
 21
297.0
 12
0.0
 22
0.0
 32
0.0
 14
1e+20
 24
1e+20
 34
1e+20
 15
-1e+20
 25
-1e+20
 35
-1e+20
146
0.0
 13
0.0
 23
0.0
 33
0.0
 16
1.0
 26
0.0
 36
0.0
 17
0.0
 27
1.0
 37
0.0
 76
1
330
1B
  0
MATERIAL
  5
1F
102
{ACAD_REACTORS
330
E
102
}
330
E
100
AcDbMaterial
  1
ByBlock
  2

 70
0
 40
1.0
 71
1
 41
1.0
 91
-1023410177
 42
1.0
 72
1
  3

 73
1
 74
1
 75
1
 44
0.5
 73
0
 45
1.0
 46
1.0
 77
1
  4

 78
1
 79
1
170
1
 48
1.0
171
1
  6

172
1
173
1
174
1
140
1.0
141
1.0
175
1
  7

176
1
177
1
178
1
143
1.0
179
1
  8

270
1
271
1
272
1
145
1.0
146
1.0
273
1
  9

274
1
275
1
276
1
 42
1.0
 72
1
  3

 73
1
 74
1
 75
1
 94
63
  0
MATERIAL
  5
20
102
{ACAD_REACTORS
330
E
102
}
330
E
100
AcDbMaterial
  1
ByLayer
  2

 70
0
 40
1.0
 71
1
 41
1.0
 91
-1023410177
 42
1.0
 72
1
  3

 73
1
 74
1
 75
1
 44
0.5
 73
0
 45
1.0
 46
1.0
 77
1
  4

 78
1
 79
1
170
1
 48
1.0
171
1
  6

172
1
173
1
174
1
140
1.0
141
1.0
175
1
  7

176
1
177
1
178
1
143
1.0
179
1
  8

270
1
271
1
272
1
145
1.0
146
1.0
273
1
  9

274
1
275
1
276
1
 42
1.0
 72
1
  3

 73
1
 74
1
 75
1
 94
63
  0
MATERIAL
  5
21
102
{ACAD_REACTORS
330
E
102
}
330
E
100
AcDbMaterial
  1
Global
  2

 70
0
 40
1.0
 71
1
 41
1.0
 91
-1023410177
 42
1.0
 72
1
  3

 73
1
 74
1
 75
1
 44
0.5
 73
0
 45
1.0
 46
1.0
 77
1
  4

 78
1
 79
1
170
1
 48
1.0
171
1
  6

172
1
173
1
174
1
140
1.0
141
1.0
175
1
  7

176
1
177
1
178
1
143
1.0
179
1
  8

270
1
271
1
272
1
145
1.0
146
1.0
273
1
  9

274
1
275
1
276
1
 42
1.0
 72
1
  3

 73
1
 74
1
 75
1
 94
63
  0
MLINESTYLE
  5
22
102
{ACAD_REACTORS
330
10
102
}
330
10
100
AcDbMlineStyle
  2
Standard
 70
0
  3

 62
256
 51
90.0
 52
90.0
 71
2
 49
0.5
 62
256
  6
BYLAYER
 49
-0.5
 62
256
  6
BYLAYER
  0
MLEADERSTYLE
  5
2C
102
{ACAD_REACTORS
330
F
102
}
330
F
100
AcDbMLeaderStyle
179
2
170
2
171
1
172
0
 90
2
 40
0.0
 41
0.0
173
1
 91
-1056964608
 92
-2
290
1
 42
2.0
291
1
 43
8.0
  3
Standard
 44
4.0
300

342
29
174
1
175
1
176
0
178
1
 93
-1056964608
 45
4.0
292
0
297
0
 46
4.0
 94
-1056964608
 47
1.0
 49
1.0
140
1.0
294
1
141
0.0
177
0
142
1.0
295
0
296
0
143
3.75
271
0
272
9
273
9
  0
DICTIONARY
  5
2D
330
A
100
AcDbDictionary
280
1
281
1
  3
CREATED_BY_EZDXF
350
2E
  3
WRITTEN_BY_EZDXF
350
44F
  0
DICTIONARYVAR
  5
2E
330
2D
100
DictionaryVariables
280
0
  1
1.0.1 @ 2023-09-18T17:15:54.628954+00:00
  0
DICTIONARYVAR
  5
44F
330
2D
100
DictionaryVariables
280
0
  1
1.0.1 @ 2023-09-18T17:15:54.664356+00:00
  0
ENDSEC
  0
EOF

